# Blender 4.2.10 LTS
# www.blender.org
mtllib book_shelf.mtl
o Cube.004
v -0.500000 -0.015317 4.100300
v -0.500000 2.963934 4.100300
v -0.500000 -0.015317 3.974374
v -0.500000 2.963934 3.974374
v 0.500000 -0.015317 4.100300
v 0.500000 2.963934 4.100300
v 0.500000 -0.015317 3.974374
v 0.500000 2.963934 3.974374
v -0.500000 0.000000 4.000000
v -0.500000 0.200000 4.000000
v -0.500000 0.000000 -4.000000
v -0.500000 0.200000 -4.000000
v 0.500000 0.000000 4.000000
v 0.500000 0.200000 4.000000
v 0.500000 0.000000 -4.000000
v 0.500000 0.200000 -4.000000
v -0.500000 0.850563 4.000000
v -0.500000 1.050563 4.000000
v -0.500000 0.850563 -4.000000
v -0.500000 1.050563 -4.000000
v 0.500000 0.850563 4.000000
v 0.500000 1.050563 4.000000
v 0.500000 0.850563 -4.000000
v 0.500000 1.050563 -4.000000
v -0.500000 1.689784 4.000000
v -0.500000 1.889784 4.000000
v -0.500000 1.689784 -4.000000
v -0.500000 1.889784 -4.000000
v 0.500000 1.689784 4.000000
v 0.500000 1.889784 4.000000
v 0.500000 1.689784 -4.000000
v 0.500000 1.889784 -4.000000
v -0.500000 2.506324 4.000000
v -0.500000 2.706324 4.000000
v -0.500000 2.506324 -4.000000
v -0.500000 2.706324 -4.000000
v 0.500000 2.506324 4.000000
v 0.500000 2.706324 4.000000
v 0.500000 2.506324 -4.000000
v 0.500000 2.706324 -4.000000
v -0.500000 -0.015317 -4.008398
v -0.500000 2.963934 -4.008398
v -0.500000 -0.015317 -4.134324
v -0.500000 2.963934 -4.134324
v 0.500000 -0.015317 -4.008398
v 0.500000 2.963934 -4.008398
v 0.500000 -0.015317 -4.134324
v 0.500000 2.963934 -4.134324
vn -1.0000 -0.0000 -0.0000
vn -0.0000 -0.0000 -1.0000
vn 1.0000 -0.0000 -0.0000
vn -0.0000 -0.0000 1.0000
vn -0.0000 -1.0000 -0.0000
vn -0.0000 1.0000 -0.0000
vt 0.905097 0.015741
vt 0.810194 0.015741
vt 0.810194 0.000000
vt 0.905097 0.000000
vt 0.905097 0.031481
vt 0.810194 0.031481
vt 0.905097 0.015741
vt 0.905097 0.047222
vt 0.810194 0.047222
vt 0.905097 0.062963
vt 0.810194 0.062963
vt 0.905097 0.078704
vt 0.810194 0.078704
vt 0.905097 0.094444
vt 0.810194 0.094444
vt 0.778338 1.000000
vt 0.771967 1.000000
vt 0.771967 0.000000
vt 0.778338 0.000000
vt 0.911468 0.047222
vt 0.911468 0.031481
vt 0.765595 1.000000
vt 0.759224 1.000000
vt 0.759224 0.000000
vt 0.765595 0.000000
vt 0.911468 0.062963
vt 0.094903 1.000000
vt 0.000000 1.000000
vt 0.000000 0.000000
vt 0.094903 0.000000
vt 0.189806 1.000000
vt 0.189806 0.000000
vt 0.791080 1.000000
vt 0.784709 1.000000
vt 0.784709 0.000000
vt 0.791080 0.000000
vt 0.911468 0.141666
vt 0.905097 0.141666
vt 0.905097 0.125926
vt 0.911468 0.125926
vt 0.797451 1.000000
vt 0.791081 1.000000
vt 0.791080 0.000000
vt 0.797451 0.000000
vt 0.917839 0.047222
vt 0.917839 0.031481
vt 0.284709 1.000000
vt 0.284709 0.000000
vt 0.379612 1.000000
vt 0.379612 0.000000
vt 0.803823 1.000000
vt 0.797452 1.000000
vt 0.797451 0.000000
vt 0.803822 0.000000
vt 0.911468 0.110185
vt 0.905097 0.110185
vt 0.911468 0.094444
vt 0.810194 1.000000
vt 0.803823 1.000000
vt 0.803823 0.000000
vt 0.810194 0.000000
vt 0.474515 1.000000
vt 0.474515 0.000000
vt 0.569418 1.000000
vt 0.569418 0.000000
vt 0.771967 1.000000
vt 0.765596 1.000000
vt 0.765595 0.000000
vt 0.771966 0.000000
vt 0.911468 0.078704
vt 0.784709 1.000000
vt 0.778338 1.000000
vt 0.778338 0.000000
vt 0.784709 0.000000
vt 0.664321 1.000000
vt 0.664321 0.000000
vt 0.759224 1.000000
vt 0.759224 0.000000
vt 0.905097 0.110185
vt 0.810194 0.110185
vt 0.810194 0.094444
vt 0.905097 0.094444
vt 0.810194 0.125926
vt 0.810194 0.110185
vt 0.810194 0.141666
vt 0.905097 0.157407
vt 0.810194 0.157407
vt 1.000000 0.000000
vt 1.000000 0.015741
vt 0.905097 0.015741
vt 0.905097 0.000000
vt 1.000000 0.031481
s 0
usemtl Material
f 1/1/1 2/2/1 4/3/1 3/4/1
f 3/5/2 4/6/2 8/2/2 7/7/2
f 7/8/3 8/9/3 6/6/3 5/5/3
f 5/10/4 6/11/4 2/9/4 1/8/4
f 3/10/5 7/12/5 5/13/5 1/11/5
f 8/12/6 4/14/6 2/15/6 6/13/6
f 9/16/1 10/17/1 12/18/1 11/19/1
f 11/20/2 12/8/2 16/5/2 15/21/2
f 15/22/3 16/23/3 14/24/3 13/25/3
f 13/26/4 14/10/4 10/8/4 9/20/4
f 11/27/5 15/28/5 13/29/5 9/30/5
f 16/31/6 12/27/6 10/30/6 14/32/6
f 17/33/1 18/34/1 20/35/1 19/36/1
f 19/37/2 20/38/2 24/39/2 23/40/2
f 23/41/3 24/42/3 22/43/3 21/44/3
f 21/45/4 22/20/4 18/21/4 17/46/4
f 19/47/5 23/31/5 21/32/5 17/48/5
f 24/49/6 20/47/6 18/48/6 22/50/6
f 25/51/1 26/52/1 28/53/1 27/54/1
f 27/55/2 28/56/2 32/14/2 31/57/2
f 31/58/3 32/59/3 30/60/3 29/61/3
f 29/40/4 30/39/4 26/56/4 25/55/4
f 27/62/5 31/49/5 29/50/5 25/63/5
f 32/64/6 28/62/6 26/63/6 30/65/6
f 33/66/1 34/67/1 36/68/1 35/69/1
f 35/70/2 36/12/2 40/10/2 39/26/2
f 39/71/3 40/72/3 38/73/3 37/74/3
f 37/57/4 38/14/4 34/12/4 33/70/4
f 35/75/5 39/64/5 37/65/5 33/76/5
f 40/77/6 36/75/6 34/76/6 38/78/6
f 41/79/1 42/80/1 44/81/1 43/82/1
f 43/39/2 44/83/2 48/84/2 47/56/2
f 47/38/3 48/85/3 46/83/3 45/39/3
f 45/86/4 46/87/4 42/85/4 41/38/4
f 43/88/5 47/89/5 45/90/5 41/91/5
f 48/89/6 44/92/6 42/5/6 46/90/6
