# Blender 4.2.10 LTS
# www.blender.org
mtllib door.mtl
o Cube
v -0.100000 0.000000 0.000000
v -0.100000 4.000000 0.000000
v -0.100000 0.000000 -2.000000
v -0.100000 4.000000 -2.000000
v 0.100000 0.000000 0.000000
v 0.100000 4.000000 0.000000
v 0.100000 0.000000 -2.000000
v 0.100000 4.000000 -2.000000
v -0.100000 0.000000 -0.395929
v -0.100000 0.000000 -1.604071
v -0.100000 4.000000 -1.604071
v -0.100000 4.000000 -0.395929
v 0.100000 0.000000 -1.604071
v 0.100000 0.000000 -0.395929
v 0.100000 4.000000 -0.395929
v 0.100000 4.000000 -1.604071
v 0.100000 3.797840 0.000000
v 0.100000 0.183292 0.000000
v 0.100000 0.183292 -2.000000
v 0.100000 3.797840 -2.000000
v -0.100000 3.797840 -2.000000
v -0.100000 0.183292 -2.000000
v -0.100000 0.183292 0.000000
v -0.100000 3.797840 0.000000
v 0.100000 0.308843 -0.458705
v 0.100000 3.672289 -0.458705
v 0.100000 0.308843 -1.541295
v 0.100000 3.672289 -1.541295
v -0.100000 3.797840 -1.604071
v -0.100000 0.183292 -1.604071
v -0.100000 0.183292 -0.395929
v -0.100000 3.797840 -0.395929
v 0.100000 2.340638 -0.458705
v 0.100000 1.621668 -0.458705
v 0.100000 1.747220 0.000000
v 0.100000 2.215087 0.000000
v 0.100000 2.340638 -1.541295
v 0.100000 1.621668 -1.541295
v -0.100000 1.747220 -1.604071
v -0.100000 2.215087 -1.604071
v -0.100000 2.215087 -0.395929
v -0.100000 1.747220 -0.395929
v -0.100000 2.215087 0.000000
v -0.100000 1.747220 0.000000
v 0.100000 2.215087 -2.000000
v 0.100000 1.747220 -2.000000
v -0.100000 1.747220 -2.000000
v -0.100000 2.215087 -2.000000
v 0.100000 0.183292 -0.395929
v 0.100000 0.183292 -1.604071
v 0.100000 3.797840 -1.604071
v 0.100000 3.797840 -0.395929
v 0.100000 2.215087 -1.604071
v 0.100000 2.215087 -0.395929
v 0.100000 1.747220 -0.395929
v 0.100000 1.747220 -1.604071
v 0.062197 0.308843 -0.458705
v 0.062197 0.308843 -1.541295
v 0.062197 3.672289 -1.541295
v 0.062197 3.672289 -0.458705
v 0.062197 2.340638 -1.541295
v 0.062197 2.340638 -0.458705
v 0.062197 1.621668 -0.458705
v 0.062197 1.621668 -1.541295
v -0.061716 0.183292 -1.604071
v -0.061716 0.183292 -0.395929
v -0.061716 3.797840 -0.395929
v -0.061716 3.797840 -1.604071
v -0.061716 2.215087 -0.395929
v -0.061716 2.215087 -1.604071
v -0.061716 1.747220 -1.604071
v -0.061716 1.747220 -0.395929
v 0.118901 0.183292 -0.395929
v 0.118901 0.183292 -1.604071
v 0.118901 3.797840 -1.604071
v 0.118901 3.797840 -0.395929
v 0.118901 2.215087 -1.604071
v 0.118901 2.215087 -0.395929
v 0.118901 1.747220 -0.395929
v 0.118901 1.747220 -1.604071
v 0.118901 0.308843 -0.458705
v 0.118901 0.308843 -1.541295
v 0.118901 3.672289 -1.541295
v 0.118901 3.672289 -0.458705
v 0.118901 2.340638 -1.541295
v 0.118901 2.340638 -0.458705
v 0.118901 1.621668 -0.458705
v 0.118901 1.621668 -1.541295
vn -0.0000 1.0000 -0.0000
vn -1.0000 -0.0000 -0.0000
vn 1.0000 -0.0000 -0.0000
vn -0.0000 -0.0000 1.0000
vn -0.0000 -1.0000 -0.0000
vn -0.0000 -0.0000 -1.0000
vt 0.625000 0.500000
vt 0.875000 0.500000
vt 0.875000 0.549491
vt 0.625000 0.549491
vt 0.375000 0.200509
vt 0.386456 0.200509
vt 0.386456 0.250000
vt 0.375000 0.250000
vt 0.625000 0.700509
vt 0.612365 0.700509
vt 0.612365 0.549491
vt 0.375000 0.750000
vt 0.386456 0.750000
vt 0.386456 1.000000
vt 0.375000 1.000000
vt 0.612365 0.000000
vt 0.625000 0.000000
vt 0.625000 0.049491
vt 0.612365 0.049491
vt 0.375000 0.500000
vt 0.386456 0.500000
vt 0.386456 0.549491
vt 0.375000 0.549491
vt 0.875000 0.700509
vt 0.875000 0.750000
vt 0.625000 0.750000
vt 0.125000 0.700509
vt 0.375000 0.700509
vt 0.125000 0.750000
vt 0.125000 0.500000
vt 0.125000 0.549491
vt 0.625000 0.200509
vt 0.612365 0.200509
vt 0.375000 0.000000
vt 0.386456 0.000000
vt 0.386456 0.049491
vt 0.375000 0.049491
vt 0.386456 0.700509
vt 0.612365 0.750000
vt 0.625000 1.000000
vt 0.612365 1.000000
vt 0.612365 0.250000
vt 0.625000 0.250000
vt 0.612365 0.500000
vt 0.612365 0.750000
vt 0.484201 0.750000
vt 0.484201 1.000000
vt 0.484201 0.700509
vt 0.513443 0.049491
vt 0.513443 0.000000
vt 0.513443 0.500000
vt 0.513443 0.250000
vt 0.513443 1.000000
vt 0.513443 0.750000
vt 0.484201 0.250000
vt 0.484201 0.500000
vt 0.513443 0.549491
vt 0.484201 0.200509
vt 0.484201 0.549491
vt 0.484201 0.000000
vt 0.484201 0.049491
vt 0.513443 0.200509
vt 0.604518 0.557338
vt 0.604518 0.692662
vt 0.476354 0.557338
vt 0.476354 0.692662
vt 0.513443 0.049491
vt 0.513443 0.200509
vt 0.513443 0.700509
vt 0.513443 0.700509
vt 0.513443 0.750000
vt 0.394303 0.557338
vt 0.394303 0.692662
vt 0.521290 0.692662
vt 0.521290 0.557338
s 0
usemtl Material.001
f 8/1/1 4/2/1 11/3/1 16/4/1
f 10/5/2 30/6/2 22/7/2 3/8/2
f 15/9/3 52/10/3 51/11/3 16/4/3
f 5/12/4 18/13/4 23/14/4 1/15/4
f 24/16/2 2/17/2 12/18/2 32/19/2
f 7/20/3 19/21/3 50/22/3 13/23/3
f 15/9/1 12/24/1 2/25/1 6/26/1
f 9/27/5 14/28/5 5/12/5 1/29/5
f 3/8/6 22/7/6 19/21/6 7/20/6
f 3/30/5 7/20/5 13/23/5 10/31/5
f 12/24/1 15/9/1 16/4/1 11/3/1
f 14/28/5 9/27/5 10/31/5 13/23/5
f 11/32/2 29/33/2 32/19/2 12/18/2
f 1/34/2 23/35/2 31/36/2 9/37/2
f 30/6/2 10/5/2 9/37/2 31/36/2
f 49/38/3 14/28/3 13/23/3 50/22/3
f 17/39/4 6/26/4 2/40/4 24/41/4
f 21/42/6 4/43/6 8/1/6 20/44/6
f 29/33/2 11/32/2 4/43/2 21/42/2
f 52/10/3 15/9/3 6/26/3 17/45/3
f 20/44/3 8/1/3 16/4/3 51/11/3
f 35/46/4 44/47/4 23/14/4 18/13/4
f 55/48/3 35/46/3 18/13/3 49/38/3
f 24/16/2 32/19/2 41/49/2 43/50/2
f 21/42/6 20/44/6 45/51/6 48/52/6
f 32/19/5 29/33/5 68/33/5 67/19/5
f 41/49/6 32/19/6 67/19/6 69/49/6
f 17/39/4 24/41/4 43/53/4 36/54/4
f 14/28/3 49/38/3 18/13/3 5/12/3
f 47/55/6 46/56/6 19/21/6 22/7/6
f 20/44/3 51/11/3 53/57/3 45/51/3
f 39/58/2 47/55/2 22/7/2 30/6/2
f 46/56/3 56/59/3 50/22/3 19/21/3
f 44/60/2 42/61/2 31/36/2 23/35/2
f 29/33/2 21/42/2 48/52/2 40/62/2
f 28/63/5 26/64/5 60/64/5 59/63/5
f 38/65/5 34/66/5 63/66/5 64/65/5
f 46/56/6 47/55/6 48/52/6 45/51/6
f 44/47/4 35/46/4 36/54/4 43/53/4
f 47/55/2 39/58/2 40/62/2 48/52/2
f 56/59/3 46/56/3 45/51/3 53/57/3
f 42/61/2 44/60/2 43/50/2 41/49/2
f 41/67/2 40/68/2 39/58/2 42/61/2
f 53/57/3 54/69/3 55/48/3 56/59/3
f 35/46/3 55/48/3 54/70/3 36/71/3
f 52/10/3 17/45/3 36/71/3 54/70/3
f 52/10/4 54/70/4 78/70/4 76/10/4
f 38/65/4 27/72/4 82/72/4 88/65/4
f 51/11/1 52/10/1 76/10/1 75/11/1
f 25/73/6 34/66/6 87/66/6 81/73/6
f 49/38/5 50/22/5 74/22/5 73/38/5
f 33/74/6 26/64/6 84/64/6 86/74/6
f 56/59/1 55/48/1 79/48/1 80/59/1
f 34/66/5 38/65/5 88/65/5 87/66/5
f 62/74/3 61/75/3 59/63/3 60/64/3
f 57/73/3 58/72/3 64/65/3 63/66/3
f 27/72/4 38/65/4 64/65/4 58/72/4
f 26/64/6 33/74/6 62/74/6 60/64/6
f 33/74/1 37/75/1 61/75/1 62/74/1
f 25/73/1 27/72/1 58/72/1 57/73/1
f 37/75/4 28/63/4 59/63/4 61/75/4
f 34/66/6 25/73/6 57/73/6 63/66/6
f 65/6/2 66/36/2 72/61/2 71/58/2
f 70/68/2 69/67/2 67/19/2 68/33/2
f 40/68/1 41/67/1 69/67/1 70/68/1
f 31/36/6 42/61/6 72/61/6 66/36/6
f 42/61/5 39/58/5 71/58/5 72/61/5
f 30/6/1 31/36/1 66/36/1 65/6/1
f 29/33/4 40/62/4 70/62/4 68/33/4
f 39/58/4 30/6/4 65/6/4 71/58/4
f 82/72/3 81/73/3 73/38/3 74/22/3
f 84/64/3 83/63/3 75/11/3 76/10/3
f 85/75/3 86/74/3 78/69/3 77/57/3
f 87/66/3 88/65/3 80/59/3 79/48/3
f 86/74/3 84/64/3 76/10/3 78/69/3
f 81/73/3 87/66/3 79/48/3 73/38/3
f 88/65/3 82/72/3 74/22/3 80/59/3
f 83/63/3 85/75/3 77/57/3 75/11/3
f 28/63/4 37/75/4 85/75/4 83/63/4
f 27/72/1 25/73/1 81/73/1 82/72/1
f 55/48/4 49/38/4 73/38/4 79/48/4
f 26/64/5 28/63/5 83/63/5 84/64/5
f 54/69/5 53/57/5 77/57/5 78/69/5
f 50/22/6 56/59/6 80/59/6 74/22/6
f 37/75/1 33/74/1 86/74/1 85/75/1
f 53/57/6 51/11/6 75/11/6 77/57/6
