# Blender 4.2.10 LTS
# www.blender.org
mtllib horrorhouse.mtl
o Cube
v -15.000000 0.000000 20.000000
v -15.000000 12.000000 20.000000
v -15.000000 0.000000 -20.000000
v -15.000000 12.000000 -20.000000
v 15.000000 0.000000 20.000000
v 15.000000 12.000000 20.000000
v 15.000000 0.000000 -20.000000
v 15.000000 12.000000 -20.000000
v -15.000000 0.396226 20.000000
v -15.000000 0.396226 -20.000000
v 15.000000 0.396226 -20.000000
v 15.000000 0.396226 20.000000
v 14.344265 0.000000 -20.000000
v -14.344265 0.000000 -20.000000
v 14.344265 12.000000 -20.000000
v -14.344265 12.000000 -20.000000
v -14.344265 0.000000 20.000000
v 14.344265 0.000000 20.000000
v -14.344265 12.000000 20.000000
v 14.344265 12.000000 20.000000
v 14.344265 0.396226 20.000000
v -14.344265 0.396226 20.000000
v -14.344265 0.396226 -20.000000
v 14.344265 0.396226 -20.000000
v -15.000000 0.396226 19.263609
v -15.000000 0.396226 -19.263609
v 15.000000 0.396226 19.263609
v 15.000000 0.396226 -19.263609
v 15.000000 12.000000 -19.263609
v 15.000000 12.000000 19.263609
v 15.000000 0.000000 -19.263609
v 15.000000 0.000000 19.263609
v -15.000000 12.000000 -19.263609
v -15.000000 12.000000 19.263609
v -15.000000 0.000000 -19.263609
v -15.000000 0.000000 19.263609
v -14.344265 12.000000 -19.263609
v -14.344265 12.000000 19.263609
v 14.344265 12.000000 19.263609
v 14.344265 12.000000 -19.263609
v 14.344265 0.000000 19.263609
v 14.344265 0.000000 -19.263609
v -14.344265 0.000000 19.263609
v -14.344265 0.000000 -19.263609
v -14.344265 0.655709 -19.263609
v -14.344265 0.655709 19.263609
v 14.344265 0.655709 19.263609
v 14.344265 0.655709 -19.263609
v -15.000000 6.078175 20.000000
v -15.000000 6.318052 20.000000
v -15.000000 6.318052 -20.000000
v -15.000000 6.078174 -20.000000
v 15.000000 6.318052 -20.000000
v 15.000000 6.078174 -20.000000
v 15.000000 6.318052 20.000000
v 15.000000 6.078174 20.000000
v -14.344265 6.318052 20.000000
v -14.344265 6.078174 20.000000
v 14.344265 6.078175 20.000000
v 14.344265 6.318052 20.000000
v 14.344265 6.318052 -20.000000
v 14.344265 6.078174 -20.000000
v -14.344265 6.078175 -20.000000
v -14.344265 6.318052 -20.000000
v 15.000000 6.318052 19.263609
v 15.000000 6.078174 19.263609
v 15.000000 6.078175 -19.263609
v 15.000000 6.318052 -19.263609
v -15.000000 6.318052 -19.263609
v -15.000000 6.078174 -19.263609
v -15.000000 6.078175 19.263609
v -15.000000 6.318052 19.263609
v 15.000000 12.000000 0.405561
v 15.000000 12.000000 -0.405561
v 15.000000 0.396226 0.405561
v 15.000000 0.396226 -0.405561
v 15.000000 0.000000 0.405561
v 15.000000 0.000000 -0.405561
v 14.344265 0.000000 -0.405561
v 14.344265 0.000000 0.405561
v -14.344265 12.000000 -0.405561
v -14.344265 12.000000 0.405561
v 14.344265 12.000000 -0.405561
v 14.344265 12.000000 0.405561
v -14.344265 0.000000 -0.405561
v -14.344265 0.000000 0.405561
v -15.000000 0.396226 -0.405561
v -15.000000 0.396226 0.405561
v -15.000000 0.000000 0.405561
v -15.000000 0.000000 -0.405561
v -15.000000 12.000000 0.405561
v -15.000000 12.000000 -0.405561
v -14.344265 0.655709 0.405561
v -14.344265 0.655709 -0.405561
v 14.344265 0.655709 0.405561
v 14.344265 0.655709 -0.405561
v -15.000000 6.078174 -0.405561
v -15.000000 6.078174 0.405561
v -15.000000 6.318052 0.405561
v -15.000000 6.318052 -0.405561
v 15.000000 6.078174 0.405561
v 15.000000 6.078174 -0.405561
v 15.000000 6.318052 -0.405561
v 15.000000 6.318052 0.405561
v -0.436939 6.318052 20.000000
v 0.436939 6.318052 20.000000
v 0.436939 6.078174 20.000000
v -0.436939 6.078174 20.000000
v -0.436939 6.318052 -20.000000
v 0.436939 6.318052 -20.000000
v -0.436939 6.078174 -20.000000
v 0.436939 6.078174 -20.000000
v 0.436939 0.655709 -19.263609
v -0.436939 0.655709 -19.263609
v -0.436939 0.655709 19.263609
v 0.436939 0.655709 19.263609
v 0.436939 0.000000 -19.263609
v -0.436939 0.000000 -19.263609
v -0.436939 0.000000 19.263609
v 0.436939 0.000000 19.263609
v -0.436939 12.000000 -19.263609
v 0.436939 12.000000 -19.263609
v 0.436939 12.000000 19.263609
v -0.436939 12.000000 19.263609
v 0.436939 12.000000 20.000000
v -0.436939 12.000000 20.000000
v 0.436939 12.000000 -20.000000
v -0.436939 12.000000 -20.000000
v 0.436939 0.000000 20.000000
v -0.436939 0.000000 20.000000
v -0.436939 0.396226 20.000000
v 0.436939 0.396226 20.000000
v -0.436939 0.000000 -20.000000
v 0.436939 0.000000 -20.000000
v 0.436939 0.396226 -20.000000
v -0.436939 0.396226 -20.000000
v -0.436939 0.655709 -0.405561
v 0.436939 0.655709 -0.405561
v 0.436939 0.655709 0.405561
v -0.436939 0.655709 0.405561
v 0.436939 0.000000 -0.405561
v -0.436939 0.000000 -0.405561
v -0.436939 0.000000 0.405561
v 0.436939 0.000000 0.405561
v -14.344265 8.184658 0.405561
v -14.344265 8.184658 -0.405561
v -0.436939 8.184658 -0.405561
v 0.436939 8.184658 -0.405561
v -0.436939 8.184658 19.263609
v 0.436939 8.184658 19.263609
v 0.436939 8.184658 0.405561
v -0.436939 8.184658 0.405561
v -14.344265 6.318052 -19.303398
v -14.344265 6.078174 -19.303398
v 14.344265 6.078175 -19.303398
v 14.344265 6.318052 -19.303398
v -0.436939 6.318052 -19.303398
v 0.436939 6.318052 -19.303398
v 0.436939 6.078174 -19.303398
v -0.436939 6.078174 -19.303398
vn -0.0000 -0.0000 -1.0000
vn -0.0000 -1.0000 -0.0000
vn 1.0000 -0.0000 -0.0000
vn -0.0000 -0.0000 1.0000
vn -0.0000 1.0000 -0.0000
vn -1.0000 -0.0000 -0.0000
vt 0.506626 0.494536
vt 0.625000 0.494536
vt 0.625000 0.500000
vt 0.506626 0.500000
vt 0.125000 0.745398
vt 0.130464 0.745398
vt 0.130464 0.750000
vt 0.125000 0.750000
vt 0.375000 0.745398
vt 0.383255 0.745398
vt 0.383255 0.750000
vt 0.375000 0.750000
vt 0.506626 0.745398
vt 0.625000 0.745398
vt 0.625000 0.750000
vt 0.506626 0.750000
vt 0.375000 0.494536
vt 0.383255 0.494536
vt 0.383255 0.500000
vt 0.375000 0.500000
vt 0.383255 0.755464
vt 0.375000 0.755464
vt 0.383255 0.250000
vt 0.501629 0.250000
vt 0.501629 0.255464
vt 0.383255 0.255464
vt 0.383255 0.504602
vt 0.375000 0.504602
vt 0.630464 0.500000
vt 0.630464 0.504602
vt 0.625000 0.504602
vt 0.383255 0.994536
vt 0.501629 0.994536
vt 0.501629 1.000000
vt 0.383255 1.000000
vt 0.869536 0.500000
vt 0.875000 0.500000
vt 0.875000 0.504602
vt 0.869536 0.504602
vt 0.375000 0.994536
vt 0.375000 1.000000
vt 0.506626 0.245398
vt 0.625000 0.245398
vt 0.625000 0.250000
vt 0.506626 0.250000
vt 0.375000 0.250000
vt 0.375000 0.255464
vt 0.746359 0.745398
vt 0.746359 0.750000
vt 0.630464 0.750000
vt 0.630464 0.745398
vt 0.501629 0.750000
vt 0.501629 0.755464
vt 0.375000 0.378641
vt 0.383255 0.378641
vt 0.375000 0.878641
vt 0.383255 0.878641
vt 0.246359 0.622465
vt 0.130464 0.622465
vt 0.130464 0.504602
vt 0.246359 0.504602
vt 0.506626 0.871359
vt 0.506626 0.878641
vt 0.501629 0.494536
vt 0.383255 0.378641
vt 0.501629 0.378641
vt 0.125000 0.500000
vt 0.130464 0.500000
vt 0.125000 0.504602
vt 0.369536 0.745398
vt 0.253641 0.745398
vt 0.253641 0.627535
vt 0.369536 0.627535
vt 0.869536 0.745398
vt 0.869536 0.750000
vt 0.753641 0.750000
vt 0.753641 0.745398
vt 0.369536 0.750000
vt 0.501629 0.500000
vt 0.501629 0.504602
vt 0.369536 0.500000
vt 0.369536 0.504602
vt 0.506626 0.378641
vt 0.625000 0.378641
vt 0.875000 0.745398
vt 0.875000 0.750000
vt 0.375000 0.000000
vt 0.383255 0.000000
vt 0.383255 0.004602
vt 0.375000 0.004602
vt 0.501629 0.622465
vt 0.383255 0.622465
vt 0.253641 0.750000
vt 0.253641 0.745398
vt 0.369536 0.627535
vt 0.375000 0.627535
vt 0.630464 0.627535
vt 0.630464 0.627535
vt 0.625000 0.627535
vt 0.753641 0.504602
vt 0.753641 0.500000
vt 0.625000 0.122465
vt 0.506626 0.122465
vt 0.506626 0.004602
vt 0.625000 0.004602
vt 0.125000 0.627535
vt 0.130464 0.627535
vt 0.869536 0.622465
vt 0.506626 0.127535
vt 0.625000 0.127535
vt 0.375000 0.245398
vt 0.383255 0.245398
vt 0.501629 0.122465
vt 0.501629 0.004602
vt 0.875000 0.622465
vt 0.746359 0.622465
vt 0.630464 0.622465
vt 0.746359 0.504602
vt 0.253641 0.504602
vt 0.253641 0.500000
vt 0.501629 0.245398
vt 0.383255 0.127535
vt 0.501629 0.127535
vt 0.625000 0.755464
vt 0.506626 0.755464
vt 0.625000 0.255464
vt 0.506626 0.255464
vt 0.375000 0.627535
vt 0.383255 0.627535
vt 0.753641 0.622465
vt 0.753641 0.504602
vt 0.506626 0.504602
vt 0.506626 0.994536
vt 0.625000 0.994536
vt 0.625000 1.000000
vt 0.506626 1.000000
vt 0.501629 0.000000
vt 0.501629 0.745398
vt 0.501629 0.750000
vt 0.501629 0.627535
vt 0.506626 0.627535
vt 0.625000 0.371359
vt 0.506626 0.371359
vt 0.506626 0.000000
vt 0.625000 0.000000
vt 0.253641 0.622465
vt 0.369536 0.622465
vt 0.506626 0.622465
vt 0.383255 0.622465
vt 0.375000 0.622465
vt 0.383255 0.122465
vt 0.375000 0.122465
vt 0.746359 0.504602
vt 0.753641 0.745398
vt 0.753641 0.627535
vt 0.869536 0.627535
vt 0.869536 0.627535
vt 0.375000 0.127535
vt 0.383255 0.127535
vt 0.383255 0.122465
vt 0.875000 0.627535
vt 0.625000 0.622465
vt 0.125000 0.622465
vt 0.383255 0.627535
vt 0.501629 0.627535
vt 0.246359 0.627535
vt 0.130464 0.627535
vt 0.625000 0.627535
vt 0.506626 0.627535
vt 0.746359 0.745398
vt 0.746359 0.627535
vt 0.753641 0.745398
vt 0.753641 0.745398
vt 0.501629 0.878641
vt 0.501629 0.371359
vt 0.383255 0.371359
vt 0.746359 0.745398
vt 0.746359 0.745398
vt 0.246359 0.745398
vt 0.246359 0.500000
vt 0.501629 0.871359
vt 0.383255 0.871359
vt 0.375000 0.871359
vt 0.246359 0.745398
vt 0.246359 0.750000
vt 0.625000 0.871359
vt 0.375000 0.371359
vt 0.746359 0.500000
vt 0.625000 0.878641
s 0
usemtl Material.001
f 61/1/1 15/2/1 8/3/1 53/4/1
f 36/5/2 43/6/2 17/7/2 1/8/2
f 32/9/3 27/10/3 12/11/3 5/12/3
f 65/13/3 30/14/3 6/15/3 55/16/3
f 13/17/1 24/18/1 11/19/1 7/20/1
f 5/12/4 12/11/4 21/21/4 18/22/4
f 10/23/1 52/24/1 63/25/1 23/26/1
f 7/20/3 11/19/3 28/27/3 31/28/3
f 8/3/5 15/29/5 40/30/5 29/31/5
f 22/32/4 58/33/4 49/34/4 9/35/4
f 16/36/5 4/37/5 33/38/5 37/39/5
f 17/40/4 22/32/4 9/35/4 1/41/4
f 69/42/6 33/43/6 4/44/6 51/45/6
f 3/46/1 10/23/1 23/26/1 14/47/1
f 123/48/5 125/49/5 20/50/5 39/51/5
f 12/11/4 56/52/4 59/53/4 21/21/4
f 24/18/1 13/17/1 134/54/1 135/55/1
f 22/32/4 17/40/4 130/56/4 131/57/4
f 142/58/2 85/59/2 44/60/2 118/61/2
f 106/62/5 158/62/5 157/63/5 105/63/5
f 62/64/1 24/18/1 135/65/1 112/66/1
f 3/67/2 14/68/2 44/60/2 35/69/2
f 41/70/2 120/71/2 144/72/2 80/73/2
f 38/74/5 19/75/5 126/76/5 124/77/5
f 41/70/2 32/9/2 5/12/2 18/78/2
f 11/19/3 54/79/3 67/80/3 28/27/3
f 13/81/2 7/20/2 31/28/2 42/82/2
f 30/14/5 39/51/5 20/50/5 6/15/5
f 15/2/1 61/1/1 110/83/1 127/84/1
f 38/74/5 34/85/5 2/86/5 19/75/5
f 1/87/6 9/88/6 25/89/6 36/90/6
f 102/91/3 76/92/3 28/27/3 67/80/3
f 41/70/2 18/78/2 129/93/2 120/94/2
f 32/9/2 41/70/2 80/95/2 77/96/2
f 39/51/6 84/97/6 95/98/6 47/51/6
f 39/51/5 30/14/5 73/99/5 84/98/5
f 16/36/5 37/39/5 121/100/5 128/101/5
f 91/102/6 99/103/6 72/104/6 34/105/6
f 43/6/2 36/5/2 89/106/2 86/107/2
f 37/39/3 81/108/3 94/108/3 45/39/3
f 33/43/6 69/42/6 100/109/6 92/110/6
f 35/111/6 26/112/6 10/23/6 3/46/6
f 98/113/6 71/114/6 72/104/6 99/103/6
f 92/115/5 81/108/5 37/39/5 33/38/5
f 138/116/5 96/117/5 48/30/5 113/118/5
f 13/81/2 42/82/2 117/119/2 134/120/2
f 70/121/6 26/112/6 87/122/6 97/123/6
f 55/16/4 6/15/4 20/124/4 60/125/4
f 51/45/1 4/44/1 16/126/1 64/127/1
f 27/10/3 32/9/3 77/128/3 75/129/3
f 94/108/5 137/130/5 114/131/5 45/39/5
f 53/4/3 8/3/3 29/31/3 68/132/3
f 26/112/6 70/121/6 52/24/6 10/23/6
f 57/133/4 19/134/4 2/135/4 50/136/4
f 9/88/6 49/137/6 71/114/6 25/89/6
f 27/10/3 66/138/3 56/139/3 12/11/3
f 24/18/1 62/64/1 54/79/1 11/19/1
f 70/121/6 97/123/6 100/109/6 69/42/6
f 66/138/3 101/140/3 104/141/3 65/13/3
f 65/13/3 55/16/3 56/139/3 66/138/3
f 69/42/6 51/45/6 52/24/6 70/121/6
f 128/142/1 109/143/1 64/127/1 16/126/1
f 57/133/3 58/33/3 154/33/3 153/133/3
f 61/1/1 53/4/1 54/79/1 62/64/1
f 51/45/1 64/127/1 63/25/1 52/24/1
f 50/144/6 72/104/6 71/114/6 49/137/6
f 57/133/4 50/136/4 49/34/4 58/33/4
f 55/16/4 60/125/4 59/53/4 56/52/4
f 53/4/3 68/132/3 67/80/3 54/79/3
f 50/144/6 2/145/6 34/105/6 72/104/6
f 141/146/2 79/147/2 80/73/2 144/72/2
f 102/91/3 67/80/3 68/132/3 103/148/3
f 76/149/3 78/150/3 31/28/3 28/27/3
f 88/151/6 89/152/6 36/90/6 25/89/6
f 83/117/6 40/30/6 48/30/6 96/117/6
f 40/30/4 122/153/4 113/118/4 48/30/4
f 46/74/5 115/154/5 140/155/5 93/156/5
f 82/156/3 38/74/3 46/74/3 93/157/3
f 26/112/6 35/111/6 90/158/6 87/159/6
f 98/113/6 88/160/6 25/89/6 71/114/6
f 34/85/5 38/74/5 82/157/5 91/161/5
f 74/162/3 103/148/3 68/132/3 29/31/3
f 85/59/2 90/163/2 35/69/2 44/60/2
f 66/138/3 27/10/3 75/164/3 101/165/3
f 78/150/2 79/147/2 42/82/2 31/28/2
f 83/117/5 74/162/5 29/31/5 40/30/5
f 102/91/3 103/148/3 104/141/3 101/140/3
f 98/113/6 99/103/6 100/109/6 97/123/6
f 76/92/3 102/91/3 101/165/3 75/164/3
f 88/160/6 98/113/6 97/123/6 87/122/6
f 82/156/3 93/157/3 94/108/3 81/108/3
f 85/59/2 142/58/2 143/166/2 86/167/2
f 99/103/6 91/102/6 92/110/6 100/109/6
f 81/108/5 92/115/5 91/161/5 82/157/5
f 90/163/2 85/59/2 86/107/2 89/106/2
f 89/152/6 88/151/6 87/159/6 90/158/6
f 74/162/5 83/117/5 84/98/5 73/99/5
f 83/117/6 96/117/6 95/98/6 84/97/6
f 78/150/3 76/149/3 75/129/3 77/128/3
f 79/147/2 78/150/2 77/96/2 80/95/2
f 103/148/3 74/162/3 73/168/3 104/169/3
f 30/14/3 65/13/3 104/169/3 73/168/3
f 116/170/3 139/171/3 151/171/3 150/170/3
f 38/74/1 124/172/1 115/173/1 46/74/1
f 121/100/4 37/39/4 45/39/4 114/131/4
f 58/33/4 22/32/4 131/57/4 108/174/4
f 111/175/1 63/25/1 64/127/1 109/143/1
f 111/175/1 136/176/1 23/26/1 63/25/1
f 123/177/1 39/51/1 47/51/1 116/178/1
f 116/170/5 47/51/5 95/97/5 139/171/5
f 119/179/2 43/6/2 86/167/2 143/166/2
f 133/180/2 118/61/2 44/60/2 14/68/2
f 107/181/4 132/182/4 21/21/4 59/53/4
f 132/182/4 129/183/4 18/22/4 21/21/4
f 119/184/2 130/185/2 17/7/2 43/6/2
f 62/64/1 112/66/1 110/83/1 61/1/1
f 125/186/4 106/62/4 60/125/4 20/124/4
f 79/147/2 141/146/2 117/119/2 42/82/2
f 136/176/1 133/187/1 14/47/1 23/26/1
f 96/117/5 138/116/5 139/171/5 95/97/5
f 127/188/5 122/153/5 40/30/5 15/29/5
f 122/153/5 127/188/5 128/101/5 121/100/5
f 118/61/2 133/180/2 134/120/2 117/119/2
f 130/185/2 119/184/2 120/94/2 129/93/2
f 119/179/2 143/166/2 144/72/2 120/71/2
f 136/176/1 111/175/1 112/66/1 135/65/1
f 138/116/5 113/118/5 114/131/5 137/130/5
f 133/187/1 136/176/1 135/55/1 134/54/1
f 106/62/4 125/186/4 126/189/4 105/63/4
f 125/49/5 123/48/5 124/77/5 126/76/5
f 121/100/4 114/131/4 113/118/4 122/153/4
f 111/175/1 109/143/1 110/83/1 112/66/1
f 140/155/6 115/154/6 149/154/6 152/155/6
f 139/171/3 138/116/3 148/116/3 151/171/3
f 132/182/4 107/181/4 108/174/4 131/57/4
f 142/58/2 118/61/2 117/119/2 141/146/2
f 107/181/2 159/181/2 155/53/2 59/53/2
f 141/146/2 144/72/2 143/166/2 142/58/2
f 109/143/1 128/142/1 127/84/1 110/83/1
f 123/177/1 116/178/1 115/173/1 124/172/1
f 129/183/4 132/182/4 131/57/4 130/56/4
f 19/134/4 57/133/4 105/63/4 126/189/4
f 147/130/5 146/108/5 145/156/5 152/155/5
f 150/170/5 151/171/5 152/155/5 149/154/5
f 147/130/5 152/155/5 151/171/5 148/116/5
f 137/130/1 94/108/1 146/108/1 147/130/1
f 93/156/4 140/155/4 152/155/4 145/156/4
f 138/116/1 137/130/1 147/130/1 148/116/1
f 94/108/6 93/157/6 145/157/6 146/108/6
f 115/173/4 116/178/4 150/178/4 149/173/4
f 159/181/4 155/53/4 156/125/4 158/62/4
f 154/33/4 160/174/4 157/63/4 153/133/4
f 159/181/4 158/62/4 157/63/4 160/174/4
f 108/174/2 160/174/2 159/181/2 107/181/2
f 58/33/2 154/33/2 160/174/2 108/174/2
f 60/125/5 156/125/5 158/62/5 106/62/5
f 105/63/5 157/63/5 153/133/5 57/133/5
f 59/53/6 60/125/6 156/125/6 155/53/6
