# Blender 4.2.10 LTS
# www.blender.org
mtllib house_demo.mtl
o House
v -10.500000 0.000000 9.000000
v -10.500000 4.000000 9.000000
v -10.500000 0.000000 5.000000
v -10.500000 4.000000 5.000000
v -9.500000 0.000000 9.000000
v -9.500000 4.000000 9.000000
v -9.500000 0.000000 5.000000
v -9.500000 4.000000 5.000000
v -10.500000 4.000000 7.000000
v -9.500000 4.000000 7.000000
v -10.500000 0.000000 8.000000
v -9.500000 4.000000 8.000000
v -10.500000 4.000000 8.000000
v -9.500000 0.000000 8.000000
v -10.500000 4.000000 6.000000
v -9.500000 0.000000 6.000000
v -10.500000 0.000000 6.000000
v -9.500000 4.000000 6.000000
v -10.500000 3.200000 9.000000
v -10.500000 3.200000 5.000000
v -9.500000 3.200000 5.000000
v -9.500000 3.200000 9.000000
v -9.500000 3.200000 7.000000
v -10.500000 3.200000 7.000000
v -10.500000 3.200000 8.000000
v -9.500000 3.200000 8.000000
v -9.500000 3.200000 6.000000
v -10.500000 3.200000 6.000000
v -10.500000 0.000000 15.000000
v -10.500000 4.000000 15.000000
v -10.500000 0.000000 9.000000
v -10.500000 4.000000 9.000000
v -9.500000 0.000000 15.000000
v -9.500000 4.000000 15.000000
v -9.500000 0.000000 9.000000
v -9.500000 4.000000 9.000000
v 19.500000 0.000000 3.000000
v 19.500000 4.000000 3.000000
v 19.500000 0.000000 -3.000000
v 19.500000 4.000000 -3.000000
v 20.500000 0.000000 3.000000
v 20.500000 4.000000 3.000000
v 20.500000 0.000000 -3.000000
v 20.500000 4.000000 -3.000000
v 19.500000 0.000000 -3.000000
v 19.500000 4.000000 -3.000000
v 19.500000 0.000000 -9.000000
v 19.500000 4.000000 -9.000000
v 20.500000 0.000000 -3.000000
v 20.500000 4.000000 -3.000000
v 20.500000 0.000000 -9.000000
v 20.500000 4.000000 -9.000000
v 19.500000 0.000000 -9.000000
v 19.500000 4.000000 -9.000000
v 19.500000 0.000000 -15.000000
v 19.500000 4.000000 -15.000000
v 20.500000 0.000000 -9.000000
v 20.500000 4.000000 -9.000000
v 20.500000 0.000000 -15.000000
v 20.500000 4.000000 -15.000000
v 19.500000 0.000000 9.000000
v 19.500000 4.000000 9.000000
v 19.500000 0.000000 3.000000
v 19.500000 4.000000 3.000000
v 20.500000 0.000000 9.000000
v 20.500000 4.000000 9.000000
v 20.500000 0.000000 3.000000
v 20.500000 4.000000 3.000000
v 19.500000 0.000000 15.000000
v 19.500000 4.000000 15.000000
v 19.500000 0.000000 9.000000
v 19.500000 4.000000 9.000000
v 20.500000 0.000000 15.000000
v 20.500000 4.000000 15.000000
v 20.500000 0.000000 9.000000
v 20.500000 4.000000 9.000000
v 20.000000 0.000000 15.500000
v 20.000000 4.000000 15.500000
v 14.000000 0.000000 15.500000
v 14.000000 4.000000 15.500000
v 20.000000 0.000000 14.500000
v 20.000000 4.000000 14.500000
v 14.000000 0.000000 14.500000
v 14.000000 4.000000 14.500000
v 14.000000 0.000000 15.500000
v 14.000000 4.000000 15.500000
v 8.000000 0.000000 15.500000
v 8.000000 4.000000 15.500000
v 14.000000 0.000000 14.500000
v 14.000000 4.000000 14.500000
v 8.000000 0.000000 14.500000
v 8.000000 4.000000 14.500000
v 8.000000 0.000000 15.500000
v 8.000000 4.000000 15.500000
v 2.000000 0.000000 15.500000
v 2.000000 4.000000 15.500000
v 8.000000 0.000000 14.500000
v 8.000000 4.000000 14.500000
v 2.000000 0.000000 14.500000
v 2.000000 4.000000 14.500000
v 2.000000 0.000000 15.500000
v 2.000000 4.000000 15.500000
v -4.000000 0.000000 15.500000
v -4.000000 4.000000 15.500000
v 2.000000 0.000000 14.500000
v 2.000000 4.000000 14.500000
v -4.000000 0.000000 14.500000
v -4.000000 4.000000 14.500000
v -4.000000 0.000000 15.500000
v -4.000000 4.000000 15.500000
v -10.000000 0.000000 15.500000
v -10.000000 4.000000 15.500000
v -4.000000 0.000000 14.500000
v -4.000000 4.000000 14.500000
v -10.000000 0.000000 14.500000
v -10.000000 4.000000 14.500000
v -10.000000 0.000000 15.500000
v -10.000000 4.000000 15.500000
v -16.000000 0.000000 15.500000
v -16.000000 4.000000 15.500000
v -10.000000 0.000000 14.500000
v -10.000000 4.000000 14.500000
v -16.000000 0.000000 14.500000
v -16.000000 4.000000 14.500000
v -16.000000 0.000000 15.500000
v -16.000000 4.000000 15.500000
v -22.000000 0.000000 15.500000
v -22.000000 4.000000 15.500000
v -16.000000 0.000000 14.500000
v -16.000000 4.000000 14.500000
v -22.000000 0.000000 14.500000
v -22.000000 4.000000 14.500000
v -22.500000 0.000000 15.000000
v -22.500000 4.000000 15.000000
v -22.500000 0.000000 9.000000
v -22.500000 4.000000 9.000000
v -21.500000 0.000000 15.000000
v -21.500000 4.000000 15.000000
v -21.500000 0.000000 9.000000
v -21.500000 4.000000 9.000000
v -22.500000 0.000000 9.000000
v -22.500000 4.000000 9.000000
v -22.500000 0.000000 3.000000
v -22.500000 4.000000 3.000000
v -21.500000 0.000000 9.000000
v -21.500000 4.000000 9.000000
v -21.500000 0.000000 3.000000
v -21.500000 4.000000 3.000000
v -22.500000 0.000000 3.000000
v -22.500000 4.000000 3.000000
v -22.500000 0.000000 -3.000000
v -22.500000 4.000000 -3.000000
v -21.500000 0.000000 3.000000
v -21.500000 4.000000 3.000000
v -21.500000 0.000000 -3.000000
v -21.500000 4.000000 -3.000000
v -22.500000 0.000000 -3.000000
v -22.500000 4.000000 -3.000000
v -22.500000 0.000000 -9.000000
v -22.500000 4.000000 -9.000000
v -21.500000 0.000000 -3.000000
v -21.500000 4.000000 -3.000000
v -21.500000 0.000000 -9.000000
v -21.500000 4.000000 -9.000000
v -22.500000 0.000000 -9.000000
v -22.500000 4.000000 -9.000000
v -22.500000 0.000000 -15.000000
v -22.500000 4.000000 -15.000000
v -21.500000 0.000000 -9.000000
v -21.500000 4.000000 -9.000000
v -21.500000 0.000000 -15.000000
v -21.500000 4.000000 -15.000000
v -16.000000 0.000000 -14.500000
v -16.000000 4.000000 -14.500000
v -22.000000 0.000000 -14.500000
v -22.000000 4.000000 -14.500000
v -16.000000 0.000000 -15.500000
v -16.000000 4.000000 -15.500000
v -22.000000 0.000000 -15.500000
v -22.000000 4.000000 -15.500000
v -10.000000 0.000000 -14.500000
v -10.000000 4.000000 -14.500000
v -16.000000 0.000000 -14.500000
v -16.000000 4.000000 -14.500000
v -10.000000 0.000000 -15.500000
v -10.000000 4.000000 -15.500000
v -16.000000 0.000000 -15.500000
v -16.000000 4.000000 -15.500000
v -4.000000 0.000000 -14.500000
v -4.000000 4.000000 -14.500000
v -10.000000 0.000000 -14.500000
v -10.000000 4.000000 -14.500000
v -4.000000 0.000000 -15.500000
v -4.000000 4.000000 -15.500000
v -10.000000 0.000000 -15.500000
v -10.000000 4.000000 -15.500000
v 2.000000 0.000000 -14.500000
v 2.000000 4.000000 -14.500000
v -4.000000 0.000000 -14.500000
v -4.000000 4.000000 -14.500000
v 2.000000 0.000000 -15.500000
v 2.000000 4.000000 -15.500000
v -4.000000 0.000000 -15.500000
v -4.000000 4.000000 -15.500000
v 8.000000 0.000000 -14.500000
v 8.000000 4.000000 -14.500000
v 2.000000 0.000000 -14.500000
v 2.000000 4.000000 -14.500000
v 8.000000 0.000000 -15.500000
v 8.000000 4.000000 -15.500000
v 2.000000 0.000000 -15.500000
v 2.000000 4.000000 -15.500000
v 14.000000 0.000000 -14.500000
v 14.000000 4.000000 -14.500000
v 8.000000 0.000000 -14.500000
v 8.000000 4.000000 -14.500000
v 14.000000 0.000000 -15.500000
v 14.000000 4.000000 -15.500000
v 8.000000 0.000000 -15.500000
v 8.000000 4.000000 -15.500000
v 20.000000 0.000000 -14.500000
v 20.000000 4.000000 -14.500000
v 14.000000 0.000000 -14.500000
v 14.000000 4.000000 -14.500000
v 20.000000 0.000000 -15.500000
v 20.000000 4.000000 -15.500000
v 14.000000 0.000000 -15.500000
v 14.000000 4.000000 -15.500000
v -10.500000 0.000000 5.000000
v -10.500000 4.000000 5.000000
v -10.500000 0.000000 -1.000000
v -10.500000 4.000000 -1.000000
v -9.500000 0.000000 5.000000
v -9.500000 4.000000 5.000000
v -9.500000 0.000000 -1.000000
v -9.500000 4.000000 -1.000000
v -9.500000 0.000000 -1.000000
v -9.500000 4.000000 -1.000000
v -15.500000 0.000000 -1.000000
v -15.500000 4.000000 -1.000000
v -9.500000 0.000000 -2.000000
v -9.500000 4.000000 -2.000000
v -15.500000 0.000000 -2.000000
v -15.500000 4.000000 -2.000000
v -15.500000 0.000000 -1.000000
v -15.500000 4.000000 -1.000000
v -21.500000 0.000000 -1.000000
v -21.500000 4.000000 -1.000000
v -15.500000 0.000000 -2.000000
v -15.500000 4.000000 -2.000000
v -21.500000 0.000000 -2.000000
v -21.500000 4.000000 -2.000000
v -10.500000 0.000000 -10.500000
v -10.500000 4.000000 -10.500000
v -10.500000 0.000000 -14.500000
v -10.500000 4.000000 -14.500000
v -9.500000 0.000000 -10.500000
v -9.500000 4.000000 -10.500000
v -9.500000 0.000000 -14.500000
v -9.500000 4.000000 -14.500000
v -10.500000 4.000000 -12.500000
v -9.500000 4.000000 -12.500000
v -10.500000 0.000000 -11.500000
v -9.500000 4.000000 -11.500000
v -10.500000 4.000000 -11.500000
v -9.500000 0.000000 -11.500000
v -10.500000 4.000000 -13.500000
v -9.500000 0.000000 -13.500000
v -10.500000 0.000000 -13.500000
v -9.500000 4.000000 -13.500000
v -10.500000 3.200000 -10.500000
v -10.500000 3.200000 -14.500000
v -9.500000 3.200000 -14.500000
v -9.500000 3.200000 -10.500000
v -9.500000 3.200000 -12.500000
v -10.500000 3.200000 -12.500000
v -10.500000 3.200000 -11.500000
v -9.500000 3.200000 -11.500000
v -9.500000 3.200000 -13.500000
v -10.500000 3.200000 -13.500000
v -10.500000 0.000000 -4.500000
v -10.500000 4.000000 -4.500000
v -10.500000 0.000000 -10.500000
v -10.500000 4.000000 -10.500000
v -9.500000 0.000000 -4.500000
v -9.500000 4.000000 -4.500000
v -9.500000 0.000000 -10.500000
v -9.500000 4.000000 -10.500000
v -10.500000 0.000000 -1.979392
v -10.500000 4.000000 -1.979392
v -10.500000 0.000000 -4.513068
v -10.500000 4.000000 -4.513068
v -9.500000 0.000000 -1.979392
v -9.500000 4.000000 -1.979392
v -9.500000 0.000000 -4.513068
v -9.500000 4.000000 -4.513068
vn -1.0000 -0.0000 -0.0000
vn -0.0000 -0.0000 -1.0000
vn 1.0000 -0.0000 -0.0000
vn -0.0000 -0.0000 1.0000
vn -0.0000 -1.0000 -0.0000
vn -0.0000 1.0000 -0.0000
vt 0.365057 0.837715
vt 0.375000 0.837715
vt 0.375000 0.850143
vt 0.365057 0.850143
vt 0.575000 0.250000
vt 0.625000 0.250000
vt 0.625000 0.500000
vt 0.575000 0.500000
vt 0.450000 0.937500
vt 0.500000 0.937500
vt 0.500000 1.000000
vt 0.450000 1.000000
vt 0.575000 0.750000
vt 0.625000 0.750000
vt 0.625000 1.000000
vt 0.575000 1.000000
vt 0.125000 0.687500
vt 0.375000 0.687500
vt 0.375000 0.750000
vt 0.125000 0.750000
vt 0.375000 0.937142
vt 0.424714 0.937142
vt 0.424714 0.949570
vt 0.375000 0.949570
vt 0.375000 0.912285
vt 0.424714 0.912285
vt 0.424714 0.924713
vt 0.375000 0.924713
vt 0.450000 0.812500
vt 0.500000 0.812500
vt 0.500000 0.875000
vt 0.450000 0.875000
vt 0.365057 0.812858
vt 0.375000 0.812858
vt 0.375000 0.825287
vt 0.365057 0.825287
vt 0.365057 0.800430
vt 0.375000 0.800430
vt 0.284777 0.965588
vt 0.415223 0.784412
vt 0.415223 0.965588
vt 0.357247 0.965588
vt 0.450000 0.750000
vt 0.500000 0.750000
vt 0.125000 0.500000
vt 0.375000 0.500000
vt 0.375000 0.562500
vt 0.125000 0.562500
vt 0.375000 0.899857
vt 0.424714 0.899857
vt 0.250000 0.750000
vt 0.250000 0.812500
vt 0.325286 0.800430
vt 0.325286 0.812858
vt 0.375000 1.000000
vt 0.250000 0.937500
vt 0.250000 1.000000
vt 0.375000 0.250000
vt 0.325286 0.837715
vt 0.325286 0.850143
vt 0.357247 0.929353
vt 0.415223 0.929353
vt 0.415223 0.820647
vt 0.284777 0.929353
vt 0.575000 0.125000
vt 0.575000 0.187500
vt 0.575000 0.562500
vt 0.575000 0.625000
vt 0.575000 0.687500
vt 0.575000 0.062500
vt 0.059669 0.559669
vt 0.190331 0.559669
vt 0.190331 0.690331
vt 0.059669 0.690331
vt 0.059535 0.559535
vt 0.190465 0.559535
vt 0.190465 0.690465
vt 0.059535 0.690465
vt 0.000000 0.500000
vt 0.250000 0.500000
vt 0.000000 0.750000
vt 0.053858 0.553858
vt 0.196142 0.553858
vt 0.196142 0.696142
vt 0.053858 0.696142
vt 0.062604 0.562604
vt 0.187396 0.562604
vt 0.187396 0.687396
vt 0.062604 0.687396
vt 0.065333 0.565333
vt 0.184667 0.565333
vt 0.184667 0.684667
vt 0.065333 0.684667
vt 0.060427 0.560427
vt 0.189573 0.560427
vt 0.189573 0.689573
vt 0.060427 0.689573
vt 0.184667 0.677209
vt 0.065333 0.677209
vt 0.065333 0.572791
vt 0.184667 0.572791
vt 0.054396 0.554396
vt 0.195604 0.554396
vt 0.195604 0.695604
vt 0.054396 0.695604
vt 0.092528 0.592528
vt 0.157472 0.592528
vt 0.157472 0.657472
vt 0.092528 0.657472
vt 0.425633 0.882516
vt 0.438291 0.882516
vt 0.438291 0.898339
vt 0.425633 0.898339
vt 0.404438 0.899531
vt 0.424063 0.899531
vt 0.424063 0.924062
vt 0.404438 0.924062
vt 0.343382 0.890809
vt 0.406618 0.890809
vt 0.406618 0.906618
vt 0.343382 0.906618
vt 0.343382 0.859191
vt 0.406618 0.859191
vt 0.406618 0.875000
vt 0.343382 0.875000
vt 0.404438 0.850469
vt 0.424063 0.850469
vt 0.424063 0.875000
vt 0.404438 0.875000
vt 0.425633 0.850870
vt 0.438291 0.850870
vt 0.438291 0.866693
vt 0.425633 0.866693
vt 0.425633 0.835047
vt 0.438291 0.835047
vt 0.269172 0.987261
vt 0.430828 0.762739
vt 0.430828 0.987261
vt 0.358981 0.987261
vt 0.404438 0.825937
vt 0.424063 0.825937
vt 0.343382 0.843382
vt 0.406618 0.843382
vt 0.325937 0.825937
vt 0.325937 0.850469
vt 0.375000 0.835047
vt 0.375000 0.850870
vt 0.325937 0.899531
vt 0.325937 0.924062
vt 0.375000 0.882516
vt 0.375000 0.898339
vt 0.375000 0.977453
vt 0.425633 0.977453
vt 0.311709 0.977453
s 0
usemtl Material.001
f 28/1/1 15/2/1 4/3/1 20/4/1
f 20/5/2 4/6/2 8/7/2 21/8/2
f 26/9/3 12/10/3 6/11/3 22/12/3
f 22/13/4 6/14/4 2/15/4 19/16/4
f 11/17/5 14/18/5 5/19/5 1/20/5
f 12/21/6 13/22/6 2/23/6 6/24/6
f 18/25/6 15/26/6 9/27/6 10/28/6
f 27/29/3 18/30/3 10/31/3 23/32/3
f 25/33/1 13/34/1 9/35/1 24/36/1
f 19/37/1 2/38/1 13/34/1 25/33/1
f 10/28/6 9/27/6 13/22/6 12/21/6
f 11/39/2 25/40/2 26/41/2 14/42/2
f 23/32/3 10/31/3 12/10/3 26/9/3
f 21/43/3 8/44/3 18/30/3 27/29/3
f 3/45/5 7/46/5 16/47/5 17/48/5
f 8/49/6 4/50/6 15/26/6 18/25/6
f 24/36/1 9/35/1 15/2/1 28/1/1
f 7/51/3 21/43/3 27/29/3 16/52/3
f 1/53/1 19/37/1 25/33/1 11/54/1
f 5/19/4 22/13/4 19/16/4 1/55/4
f 14/56/3 26/9/3 22/12/3 5/57/3
f 3/58/2 20/5/2 21/8/2 7/46/2
f 17/59/1 28/1/1 20/4/1 3/60/1
f 16/61/4 27/62/4 28/63/4 17/64/4
f 24/65/5 28/66/5 27/67/5 23/68/5
f 26/69/5 25/70/5 24/65/5 23/68/5
f 29/71/1 30/72/1 32/73/1 31/74/1
f 31/58/2 32/6/2 36/7/2 35/46/2
f 35/75/3 36/76/3 34/77/3 33/78/3
f 33/19/4 34/14/4 30/15/4 29/55/4
f 31/45/5 35/46/5 33/19/5 29/20/5
f 36/79/6 32/80/6 30/51/6 34/81/6
f 37/82/1 38/83/1 40/84/1 39/85/1
f 39/58/2 40/6/2 44/7/2 43/46/2
f 43/86/3 44/87/3 42/88/3 41/89/3
f 41/19/4 42/14/4 38/15/4 37/55/4
f 39/45/5 43/46/5 41/19/5 37/20/5
f 44/79/6 40/80/6 38/51/6 42/81/6
f 45/82/1 46/83/1 48/84/1 47/85/1
f 47/58/2 48/6/2 52/7/2 51/46/2
f 51/86/3 52/87/3 50/88/3 49/89/3
f 49/19/4 50/14/4 46/15/4 45/55/4
f 47/45/5 51/46/5 49/19/5 45/20/5
f 52/79/6 48/80/6 46/51/6 50/81/6
f 53/82/1 54/83/1 56/84/1 55/85/1
f 55/79/2 56/80/2 60/51/2 59/81/2
f 59/86/3 60/87/3 58/88/3 57/89/3
f 57/19/4 58/14/4 54/15/4 53/55/4
f 55/45/5 59/46/5 57/19/5 53/20/5
f 60/79/6 56/80/6 54/51/6 58/81/6
f 61/82/1 62/83/1 64/84/1 63/85/1
f 63/58/2 64/6/2 68/7/2 67/46/2
f 67/86/3 68/87/3 66/88/3 65/89/3
f 65/19/4 66/14/4 62/15/4 61/55/4
f 63/45/5 67/46/5 65/19/5 61/20/5
f 68/79/6 64/80/6 62/51/6 66/81/6
f 69/82/1 70/83/1 72/84/1 71/85/1
f 71/58/2 72/6/2 76/7/2 75/46/2
f 75/86/3 76/87/3 74/88/3 73/89/3
f 73/79/4 74/80/4 70/51/4 69/81/4
f 71/45/5 75/46/5 73/19/5 69/20/5
f 76/79/6 72/80/6 70/51/6 74/81/6
f 77/90/4 78/91/4 80/92/4 79/93/4
f 79/58/1 80/6/1 84/7/1 83/46/1
f 83/94/2 84/95/2 82/96/2 81/97/2
f 81/79/3 82/80/3 78/51/3 77/81/3
f 79/45/5 83/46/5 81/19/5 77/20/5
f 84/79/6 80/80/6 78/51/6 82/81/6
f 85/90/4 86/91/4 88/92/4 87/93/4
f 87/58/1 88/6/1 92/7/1 91/46/1
f 91/94/2 92/95/2 90/96/2 89/97/2
f 89/19/3 90/14/3 86/15/3 85/55/3
f 87/45/5 91/46/5 89/19/5 85/20/5
f 92/79/6 88/80/6 86/51/6 90/81/6
f 93/90/4 94/91/4 96/92/4 95/93/4
f 95/58/1 96/6/1 100/7/1 99/46/1
f 99/94/2 100/95/2 98/96/2 97/97/2
f 97/19/3 98/14/3 94/15/3 93/55/3
f 95/45/5 99/46/5 97/19/5 93/20/5
f 100/79/6 96/80/6 94/51/6 98/81/6
f 101/90/4 102/91/4 104/92/4 103/93/4
f 103/58/1 104/6/1 108/7/1 107/46/1
f 107/94/2 108/95/2 106/96/2 105/97/2
f 105/19/3 106/14/3 102/15/3 101/55/3
f 103/45/5 107/46/5 105/19/5 101/20/5
f 108/79/6 104/80/6 102/51/6 106/81/6
f 109/90/4 110/91/4 112/92/4 111/93/4
f 111/58/1 112/6/1 116/7/1 115/46/1
f 115/94/2 116/95/2 114/96/2 113/97/2
f 113/19/3 114/14/3 110/15/3 109/55/3
f 111/45/5 115/46/5 113/19/5 109/20/5
f 116/79/6 112/80/6 110/51/6 114/81/6
f 117/90/4 118/91/4 120/92/4 119/93/4
f 119/58/1 120/6/1 124/7/1 123/46/1
f 123/71/2 124/72/2 122/73/2 121/74/2
f 121/19/3 122/14/3 118/15/3 117/55/3
f 119/45/5 123/46/5 121/19/5 117/20/5
f 124/79/6 120/80/6 118/51/6 122/81/6
f 125/90/4 126/91/4 128/92/4 127/93/4
f 127/79/1 128/80/1 132/51/1 131/81/1
f 131/71/2 132/72/2 130/73/2 129/74/2
f 129/19/3 130/14/3 126/15/3 125/55/3
f 127/45/5 131/46/5 129/19/5 125/20/5
f 132/79/6 128/80/6 126/51/6 130/81/6
f 133/90/1 134/91/1 136/92/1 135/93/1
f 135/58/2 136/6/2 140/7/2 139/46/2
f 139/71/3 140/72/3 138/73/3 137/74/3
f 137/79/4 138/80/4 134/51/4 133/81/4
f 135/45/5 139/46/5 137/19/5 133/20/5
f 140/79/6 136/80/6 134/51/6 138/81/6
f 141/90/1 142/91/1 144/98/1 143/99/1
f 143/58/2 144/6/2 148/7/2 147/46/2
f 147/71/3 148/72/3 146/73/3 145/74/3
f 145/19/4 146/14/4 142/15/4 141/55/4
f 143/45/5 147/46/5 145/19/5 141/20/5
f 148/79/6 144/80/6 142/51/6 146/81/6
f 149/100/1 150/101/1 152/98/1 151/99/1
f 151/58/2 152/6/2 156/7/2 155/46/2
f 155/71/3 156/72/3 154/73/3 153/74/3
f 153/19/4 154/14/4 150/15/4 149/55/4
f 151/45/5 155/46/5 153/19/5 149/20/5
f 156/79/6 152/80/6 150/51/6 154/81/6
f 157/90/1 158/91/1 160/92/1 159/93/1
f 159/58/2 160/6/2 164/7/2 163/46/2
f 163/102/3 164/103/3 162/104/3 161/105/3
f 161/19/4 162/14/4 158/15/4 157/55/4
f 159/45/5 163/46/5 161/19/5 157/20/5
f 164/79/6 160/80/6 158/51/6 162/81/6
f 165/90/1 166/91/1 168/92/1 167/93/1
f 167/79/2 168/80/2 172/51/2 171/81/2
f 171/102/3 172/103/3 170/104/3 169/105/3
f 169/19/4 170/14/4 166/15/4 165/55/4
f 167/45/5 171/46/5 169/19/5 165/20/5
f 172/79/6 168/80/6 166/51/6 170/81/6
f 173/102/4 174/103/4 176/104/4 175/105/4
f 175/79/1 176/80/1 180/51/1 179/81/1
f 179/86/2 180/87/2 178/88/2 177/89/2
f 177/19/3 178/14/3 174/15/3 173/55/3
f 175/45/5 179/46/5 177/19/5 173/20/5
f 180/79/6 176/80/6 174/51/6 178/81/6
f 181/102/4 182/103/4 184/104/4 183/105/4
f 183/58/1 184/6/1 188/7/1 187/46/1
f 187/86/2 188/87/2 186/88/2 185/89/2
f 185/19/3 186/14/3 182/15/3 181/55/3
f 183/45/5 187/46/5 185/19/5 181/20/5
f 188/79/6 184/80/6 182/51/6 186/81/6
f 189/106/4 190/107/4 192/108/4 191/109/4
f 191/58/1 192/6/1 196/7/1 195/46/1
f 195/86/2 196/87/2 194/88/2 193/89/2
f 193/19/3 194/14/3 190/15/3 189/55/3
f 191/45/5 195/46/5 193/19/5 189/20/5
f 196/79/6 192/80/6 190/51/6 194/81/6
f 197/106/4 198/107/4 200/108/4 199/109/4
f 199/58/1 200/6/1 204/7/1 203/46/1
f 203/86/2 204/87/2 202/88/2 201/89/2
f 201/19/3 202/14/3 198/15/3 197/55/3
f 199/45/5 203/46/5 201/19/5 197/20/5
f 204/79/6 200/80/6 198/51/6 202/81/6
f 205/106/4 206/107/4 208/108/4 207/109/4
f 207/58/1 208/6/1 212/7/1 211/46/1
f 211/86/2 212/87/2 210/88/2 209/89/2
f 209/19/3 210/14/3 206/15/3 205/55/3
f 207/45/5 211/46/5 209/19/5 205/20/5
f 212/79/6 208/80/6 206/51/6 210/81/6
f 213/106/4 214/107/4 216/108/4 215/109/4
f 215/58/1 216/6/1 220/7/1 219/46/1
f 219/86/2 220/87/2 218/88/2 217/89/2
f 217/19/3 218/14/3 214/15/3 213/55/3
f 215/45/5 219/46/5 217/19/5 213/20/5
f 220/79/6 216/80/6 214/51/6 218/81/6
f 221/106/4 222/107/4 224/108/4 223/109/4
f 223/58/1 224/6/1 228/7/1 227/46/1
f 227/86/2 228/87/2 226/88/2 225/89/2
f 225/79/3 226/80/3 222/51/3 221/81/3
f 223/45/5 227/46/5 225/19/5 221/20/5
f 228/79/6 224/80/6 222/51/6 226/81/6
f 229/71/1 230/72/1 232/73/1 231/74/1
f 231/58/2 232/6/2 236/7/2 235/46/2
f 235/75/3 236/76/3 234/77/3 233/78/3
f 233/19/4 234/14/4 230/15/4 229/55/4
f 231/45/5 235/46/5 233/19/5 229/20/5
f 236/79/6 232/80/6 230/51/6 234/81/6
f 237/71/4 238/72/4 240/73/4 239/74/4
f 239/58/1 240/6/1 244/7/1 243/46/1
f 243/102/2 244/103/2 242/104/2 241/105/2
f 241/75/3 242/76/3 238/77/3 237/78/3
f 239/45/5 243/46/5 241/19/5 237/20/5
f 244/79/6 240/80/6 238/51/6 242/81/6
f 245/71/4 246/72/4 248/73/4 247/74/4
f 247/58/1 248/6/1 252/7/1 251/46/1
f 251/102/2 252/103/2 250/104/2 249/105/2
f 249/19/3 250/14/3 246/15/3 245/55/3
f 247/45/5 251/46/5 249/19/5 245/20/5
f 252/79/6 248/80/6 246/51/6 250/81/6
f 280/110/1 267/111/1 256/112/1 272/113/1
f 272/5/2 256/6/2 260/7/2 273/8/2
f 278/114/3 264/115/3 258/116/3 274/117/3
f 274/13/4 258/14/4 254/15/4 271/16/4
f 263/17/5 266/18/5 257/19/5 253/20/5
f 264/118/6 265/119/6 254/120/6 258/121/6
f 270/122/6 267/123/6 261/124/6 262/125/6
f 279/126/3 270/127/3 262/128/3 275/129/3
f 277/130/1 265/131/1 261/132/1 276/133/1
f 271/134/1 254/135/1 265/131/1 277/130/1
f 262/125/6 261/124/6 265/119/6 264/118/6
f 263/136/2 277/137/2 278/138/2 266/139/2
f 275/129/3 262/128/3 264/115/3 278/114/3
f 273/140/3 260/141/3 270/127/3 279/126/3
f 255/45/5 259/46/5 268/47/5 269/48/5
f 260/142/6 256/143/6 267/123/6 270/122/6
f 276/133/1 261/132/1 267/111/1 280/110/1
f 259/144/3 273/140/3 279/126/3 268/145/3
f 253/146/1 271/134/1 277/130/1 263/147/1
f 257/19/4 274/13/4 271/16/4 253/55/4
f 266/148/3 278/114/3 274/117/3 257/149/3
f 255/58/2 272/5/2 273/8/2 259/46/2
f 269/150/1 280/110/1 272/113/1 255/151/1
f 268/152/4 279/153/4 280/110/4 269/154/4
f 276/65/5 280/66/5 279/67/5 275/68/5
f 278/69/5 277/70/5 276/65/5 275/68/5
f 281/102/1 282/103/1 284/104/1 283/105/1
f 283/58/2 284/6/2 288/7/2 287/46/2
f 287/75/3 288/76/3 286/77/3 285/78/3
f 285/19/4 286/14/4 282/15/4 281/55/4
f 283/45/5 287/46/5 285/19/5 281/20/5
f 288/79/6 284/80/6 282/51/6 286/81/6
f 289/102/1 290/103/1 292/104/1 291/105/1
f 291/58/2 292/6/2 296/7/2 295/46/2
f 295/75/3 296/76/3 294/77/3 293/78/3
f 293/19/4 294/14/4 290/15/4 289/55/4
f 291/45/5 295/46/5 293/19/5 289/20/5
f 296/79/6 292/80/6 290/51/6 294/81/6
o ceiling
v -22.400492 3.978427 15.496641
v -22.400492 4.568421 15.496641
v -22.400492 3.978427 -15.613308
v -22.400492 4.568421 -15.613308
v 20.410940 3.978427 15.496641
v 20.410940 4.568421 15.496641
v 20.410940 3.978427 -15.613308
v 20.410940 4.568421 -15.613308
vn -1.0000 -0.0000 -0.0000
vn -0.0000 -0.0000 -1.0000
vn 1.0000 -0.0000 -0.0000
vn -0.0000 -0.0000 1.0000
vn -0.0000 -1.0000 -0.0000
vn -0.0000 1.0000 -0.0000
vt 0.000000 0.500000
vt 0.250000 0.500000
vt 0.250000 0.750000
vt 0.000000 0.750000
s 0
usemtl Material.001
f 297/155/7 298/156/7 300/157/7 299/158/7
f 299/155/8 300/156/8 304/157/8 303/158/8
f 303/155/9 304/156/9 302/157/9 301/158/9
f 301/155/10 302/156/10 298/157/10 297/158/10
f 299/155/11 303/156/11 301/157/11 297/158/11
f 304/155/12 300/156/12 298/157/12 302/158/12
o Plane
v -22.053291 0.000000 20.824451
v 19.946709 0.000000 20.824451
v -22.053291 0.000000 -21.175549
v 19.946709 0.000000 -21.175549
v -22.053291 0.000000 -0.175549
v -1.053292 0.000000 20.824451
v 19.946709 0.000000 -0.175549
v -1.053292 0.000000 -21.175549
v -1.053292 0.000000 -0.175549
v -22.053291 0.000000 10.324451
v 9.446708 0.000000 20.824451
v 19.946709 0.000000 -10.675549
v -11.553292 0.000000 -21.175549
v -22.053291 0.000000 -10.675549
v -11.553292 0.000000 20.824451
v 19.946709 0.000000 10.324451
v 9.446708 0.000000 -21.175549
v -1.053292 0.000000 -10.675549
v -1.053292 0.000000 10.324451
v -11.553292 0.000000 -0.175549
v 9.446708 0.000000 -0.175549
v 9.446708 0.000000 10.324451
v -11.553292 0.000000 10.324451
v -11.553292 0.000000 -10.675549
v 9.446708 0.000000 -10.675549
vn -0.0000 1.0000 -0.0000
vt 0.000000 0.750000
vt 0.250000 0.750000
vt 0.250000 1.000000
vt 0.000000 1.000000
vt -0.001953 0.750000
vt 0.248047 0.750000
vt 0.248047 1.000000
vt -0.001953 1.000000
vt 0.000000 0.748047
vt 0.250000 0.748047
vt 0.250000 0.998047
vt 0.000000 0.998047
s 0
usemtl Material.001
f 329/159/13 316/160/13 308/161/13 321/162/13
f 328/163/13 322/164/13 312/165/13 317/166/13
f 327/159/13 323/160/13 313/161/13 324/162/13
f 326/159/13 320/160/13 311/161/13 325/162/13
f 323/159/13 326/160/13 325/161/13 313/162/13
f 310/159/13 315/160/13 326/161/13 323/162/13
f 315/159/13 306/160/13 320/161/13 326/162/13
f 314/159/13 327/160/13 324/161/13 309/162/13
f 305/159/13 319/160/13 327/161/13 314/162/13
f 319/159/13 310/160/13 323/161/13 327/162/13
f 318/159/13 328/160/13 317/161/13 307/162/13
f 309/159/13 324/160/13 328/161/13 318/162/13
f 324/159/13 313/160/13 322/161/13 328/162/13
f 322/167/13 329/168/13 321/169/13 312/170/13
f 313/159/13 325/160/13 329/161/13 322/162/13
f 325/159/13 311/160/13 316/161/13 329/162/13
