# Blender 4.2.10 LTS
# www.blender.org
mtllib house.mtl
o Cube
v 3.988636 0.000000 9.729727
v 3.988636 2.000000 9.729727
v 3.988636 0.000000 5.020925
v 3.988636 2.000000 5.020925
v 4.138636 0.000000 9.729727
v 4.138636 2.000000 9.729727
v 4.138636 0.000000 5.020925
v 4.138636 2.000000 5.020925
v 3.988636 0.000000 9.529726
v 3.988636 2.000000 9.529726
v 4.138636 0.000000 9.529726
v 4.138636 2.000000 9.529726
v -3.935404 0.000000 9.529726
v -3.935404 0.000000 9.729727
v -3.935404 2.000000 9.729727
v -3.935404 2.000000 9.529726
v -3.771684 2.000000 9.529726
v -3.771684 2.000000 9.729727
v -3.771684 0.000000 9.729727
v -3.771684 0.000000 9.529726
v -3.935404 2.000000 -10.267117
v -3.935404 0.000000 -10.267117
v -3.771684 2.000000 -10.267117
v -3.771684 0.000000 -10.267117
v -3.771684 2.000000 -10.097624
v -3.935404 2.000000 -10.097624
v -3.935404 0.000000 -10.097624
v -3.771684 0.000000 -10.097624
v 2.068676 0.000000 -10.267117
v 2.068676 2.000000 -10.267117
v 2.068676 2.000000 -10.097624
v 2.068676 0.000000 -10.097624
v 1.904621 2.000000 -10.097624
v 1.904621 2.000000 -10.267117
v 1.904621 0.000000 -10.267117
v 1.904621 0.000000 -10.097624
v 2.068676 0.000000 3.725224
v 2.068676 2.000000 3.725224
v 1.904621 2.000000 3.725224
v 1.904621 0.000000 3.725224
v 2.068676 2.000000 3.556940
v 2.068676 0.000000 3.556940
v 1.904621 0.000000 3.556940
v 1.904621 2.000000 3.556940
v 4.142313 0.000000 3.725224
v 4.142313 2.000000 3.725224
v 4.142313 2.000000 3.556940
v 4.142313 0.000000 3.556940
v 3.997939 0.000000 3.725224
v 3.997939 2.000000 3.725224
v 3.997939 0.000000 3.556940
v 3.997939 2.000000 3.556940
v 4.142313 0.000000 4.120852
v 4.142313 2.000000 4.120852
v 3.997939 0.000000 4.120852
v 3.997939 2.000000 4.120852
v 0.064493 2.000000 5.794818
v 0.064493 2.000000 5.675691
v 0.064493 0.000000 5.675691
v 0.064493 0.000000 5.794818
v 3.988636 2.000000 5.675691
v 3.988636 2.000000 5.794818
v 4.138636 0.000000 5.794818
v 4.138636 0.000000 5.675691
v 3.988636 0.000000 5.794818
v 3.988636 0.000000 5.675691
v 4.138636 2.000000 5.675691
v 4.138636 2.000000 5.794818
v 0.211085 0.000000 5.675691
v 0.211085 0.000000 5.794818
v 0.211085 2.000000 5.794818
v 0.211085 2.000000 5.675691
v 0.064493 0.000000 9.529610
v 0.064493 2.000000 9.529610
v 0.211085 0.000000 9.529610
v 0.211085 2.000000 9.529610
v -0.956382 2.000000 6.733418
v -1.078846 2.000000 6.733418
v -0.956382 0.000000 6.733418
v -1.078846 0.000000 6.733418
v 0.064493 2.000000 7.605631
v 0.064493 2.000000 6.342704
v 0.211085 2.000000 6.342704
v 0.211085 2.000000 7.605631
v 0.064493 0.000000 7.605631
v 0.064493 0.000000 6.342704
v 0.211085 0.000000 7.605631
v 0.211085 0.000000 6.342704
v -0.953745 0.000000 9.729727
v -1.076209 0.000000 9.729727
v -1.076209 2.000000 9.529726
v -0.953745 2.000000 9.529726
v -1.076209 0.000000 9.529726
v -0.953745 0.000000 9.529726
v -1.076209 2.000000 9.729727
v -0.953745 2.000000 9.729727
v -1.078705 0.000000 6.883632
v -1.078705 2.000000 6.883632
v -0.956240 2.000000 6.883632
v -0.956240 0.000000 6.883632
v -3.771095 0.000000 6.735219
v -3.771095 2.000000 6.735219
v -3.770953 2.000000 6.885433
v -3.770953 0.000000 6.885433
v 0.052283 2.000000 3.556940
v 0.052283 0.000000 3.556940
v 0.052283 2.000000 3.725224
v 0.052283 0.000000 3.725224
v -1.077345 0.000000 8.325237
v -1.076763 0.000000 8.943050
v -0.954881 2.000000 8.325237
v -0.954298 2.000000 8.943050
v -1.076763 2.000000 8.943049
v -1.077345 2.000000 8.325236
v -0.954298 0.000000 8.943049
v -0.954881 0.000000 8.325236
v -1.939224 2.000000 -0.185407
v -1.939224 2.000000 -0.357571
v -1.939224 0.000000 -0.357571
v -1.939224 0.000000 -0.185407
v 2.068676 0.000000 -0.357571
v 2.068676 0.000000 -0.185407
v 1.904621 2.000000 -0.357571
v 1.904621 2.000000 -0.185407
v 2.068676 2.000000 -0.185407
v 2.068676 2.000000 -0.357571
v 1.904621 0.000000 -0.185407
v 1.904621 0.000000 -0.357571
v -1.743774 0.000000 -0.357571
v -1.743774 2.000000 -0.357571
v -1.743774 0.000000 -0.185407
v -1.743774 2.000000 -0.185407
v -1.939224 0.000000 3.725899
v -1.743774 0.000000 3.725899
v -1.939224 2.000000 3.725899
v -1.743774 2.000000 3.725899
v -3.771684 0.000000 3.729347
v -3.771684 0.000000 3.570522
v -3.771684 2.000000 3.570523
v -3.771684 2.000000 3.729348
v -3.935404 2.000000 3.570522
v -3.935404 2.000000 3.729347
v -3.771684 0.000000 3.570522
v -3.771684 0.000000 3.729347
v -3.771684 2.000000 3.729348
v -3.771684 2.000000 3.570523
v -3.935404 0.000000 3.729348
v -3.935404 0.000000 3.570523
v -3.197761 2.000000 3.729348
v -3.197761 0.000000 3.729347
v -3.197761 0.000000 3.570522
v -3.197761 2.000000 3.570523
v -1.743774 2.000000 3.568397
v -1.743774 0.000000 3.568397
v -1.939224 2.000000 3.568397
v -1.939224 0.000000 3.568397
v -2.442990 0.000000 3.725899
v -2.442990 2.000000 3.725899
v -2.442990 2.000000 3.568397
v -2.442990 0.000000 3.568397
v -1.938914 2.000000 -4.265500
v -1.938914 2.000000 -4.112441
v -1.938914 0.000000 -4.265500
v -1.938914 0.000000 -4.112441
v 1.904621 0.000000 -4.112441
v 1.904621 0.000000 -4.265500
v 2.068676 0.000000 -4.265500
v 2.068676 0.000000 -4.112441
v 2.068676 2.000000 -4.265500
v 2.068676 2.000000 -4.112441
v 1.904621 2.000000 -4.112441
v 1.904621 2.000000 -4.265500
v -1.938710 2.000000 -4.112459
v -1.938710 0.000000 -4.112459
v -1.743260 2.000000 -4.112459
v -1.743260 0.000000 -4.112459
v -1.743356 2.000000 -3.411381
v -1.743444 2.000000 -2.689810
v -1.938894 2.000000 -2.689810
v -1.938806 2.000000 -3.411381
v -1.938806 0.000000 -3.411381
v -1.938894 0.000000 -2.689810
v -1.743444 0.000000 -2.689810
v -1.743356 0.000000 -3.411381
v -1.932510 2.000000 -6.428387
v -1.932510 2.000000 -6.265126
v -1.932510 0.000000 -6.265126
v -1.932510 0.000000 -6.428387
v 1.904621 2.000000 -6.259020
v 1.904621 2.000000 -6.422282
v 1.904621 0.000000 -6.422282
v 1.904621 0.000000 -6.259020
v 2.068676 0.000000 -6.422282
v 2.068676 0.000000 -6.259020
v 2.068676 2.000000 -6.422282
v 2.068676 2.000000 -6.259020
v -1.735011 0.000000 -6.264811
v -1.735011 0.000000 -6.428072
v -1.735011 2.000000 -6.264811
v -1.735011 2.000000 -6.428072
v -1.926763 2.000000 -10.099380
v -1.729263 2.000000 -10.099066
v -1.729263 0.000000 -10.099066
v -1.926763 0.000000 -10.099380
v 0.437896 2.000000 -6.263884
v 0.280829 2.000000 -6.263884
v 0.280829 0.000000 -6.263884
v 0.437896 0.000000 -6.263884
v 0.437896 0.000000 -4.265500
v 0.280829 0.000000 -4.265500
v 0.280829 2.000000 -4.265500
v 0.437896 2.000000 -4.265500
v 0.280829 0.000000 -4.112441
v 0.437896 0.000000 -4.112441
v 0.437896 2.000000 -4.112441
v 0.280829 2.000000 -4.112441
v -1.403005 0.000000 -6.264283
v -0.702155 0.000000 -6.263168
v -0.702155 2.000000 -6.263168
v -1.403005 2.000000 -6.264283
v -0.702155 0.000000 -6.426429
v -1.403005 0.000000 -6.427544
v -1.403005 2.000000 -6.427544
v -0.702155 2.000000 -6.426429
v 0.437896 2.000000 -4.879030
v 0.437896 2.000000 -5.650354
v 0.280829 2.000000 -5.650354
v 0.280829 2.000000 -4.879030
v 0.437896 0.000000 -5.650354
v 0.437896 0.000000 -4.879030
v 0.280829 0.000000 -4.879030
v 0.280829 0.000000 -5.650354
v 2.545027 0.000000 9.529726
v 1.464661 0.000000 9.529726
v 2.545027 0.000000 9.729727
v 1.464661 0.000000 9.729727
v 2.545027 2.000000 9.729727
v 1.464661 2.000000 9.729727
v 1.464661 2.000000 9.529726
v 2.545027 2.000000 9.529726
v 2.012667 0.906782 9.529726
v 2.005415 1.863959 9.570745
v 1.958591 1.863976 9.570745
v 2.011083 1.863957 9.529726
v 1.951802 0.906760 9.570745
v 2.007125 0.906780 9.570745
v 2.545027 0.906973 9.570745
v 2.545027 1.863765 9.570745
v 1.464661 1.864154 9.570745
v 1.464661 0.906584 9.570745
v 4.138636 0.908405 9.729727
v 4.138636 1.862333 9.729727
v 4.138636 0.908405 5.020925
v 4.138636 1.862333 5.020925
v 3.988636 1.862333 5.020925
v 3.988636 0.908405 5.020925
v 3.988636 0.908405 9.729727
v 3.988636 1.862333 9.729727
v 0.064493 1.862333 5.794818
v 0.064493 0.908405 5.794818
v 4.138636 1.862333 9.529726
v 4.138636 0.908405 9.529726
v 3.988636 1.863491 9.529726
v 3.988636 0.907247 9.529726
v -3.935404 1.862333 9.729727
v -3.935404 0.908405 9.729727
v -3.935404 0.908405 9.529726
v -3.935404 1.862333 9.529726
v -3.771684 1.869393 9.529726
v -3.771684 0.495429 9.529726
v -3.771684 1.862333 9.729727
v -3.771684 0.908405 9.729727
v -3.935404 1.862333 -10.267117
v -3.935404 0.908405 -10.267117
v -3.771684 0.908405 -10.267117
v -3.771684 1.862333 -10.267117
v -3.771684 1.872645 3.729348
v -3.771684 0.898093 3.729348
v -3.771684 0.495452 -10.097624
v -3.771684 1.869371 -10.097624
v -3.935404 1.862333 -10.097624
v -3.935404 0.908405 -10.097624
v 2.068676 1.862333 -10.267117
v 2.068676 0.908405 -10.267117
v 2.068676 0.908405 -10.097624
v 2.068676 1.862333 -10.097624
v 1.904621 1.867642 -10.097624
v 1.904621 0.903096 -10.097624
v 1.904621 1.862333 -10.267117
v 1.904621 0.908405 -10.267117
v 2.068676 1.862333 3.725224
v 2.068676 0.908405 3.725224
v 1.904621 0.908405 3.725224
v 1.904621 1.862334 3.725224
v -1.939224 0.615415 -0.357571
v -1.939224 1.862358 -0.357571
v 1.904621 1.862334 3.556940
v 1.904621 0.908404 3.556940
v 2.068676 1.862333 3.556940
v 2.068676 0.908405 3.556940
v 4.142313 0.908405 3.725224
v 4.142313 1.862333 3.725224
v 4.142313 1.862333 3.556940
v 4.142313 0.908405 3.556940
v 3.997939 1.862333 3.556940
v 3.997939 0.908405 3.556940
v 3.997939 1.862333 3.725224
v 3.997939 0.908405 3.725224
v 4.142313 1.862333 4.120852
v 4.142313 0.908405 4.120852
v 3.997939 0.908405 4.120852
v 3.997939 1.862333 4.120852
v 0.064493 0.908405 5.675691
v 0.064493 1.862333 5.675691
v 4.138636 1.862333 5.794818
v 4.138636 0.908405 5.794818
v 4.138636 0.908405 5.675691
v 4.138636 1.862333 5.675691
v 3.988636 1.862333 5.675691
v 3.988636 0.908405 5.675691
v 3.988636 0.907429 5.794818
v 3.988636 1.863309 5.794818
v 0.211085 0.907532 5.794818
v 0.211085 1.863206 5.794818
v 0.211085 0.908405 5.675691
v 0.211085 1.862333 5.675691
v 0.211085 0.907566 6.342704
v 0.211085 1.863172 6.342704
v 0.064493 1.862333 6.342704
v 0.064493 0.908405 6.342704
v -1.076209 0.903065 9.529726
v -1.076209 1.867673 9.529726
v -0.953745 0.906050 9.529726
v -0.953745 1.864688 9.529726
v -1.076209 1.862333 9.729727
v -1.076209 0.908405 9.729727
v -0.953745 0.908405 9.729727
v -0.953745 1.862333 9.729727
v -1.939224 1.862352 -0.185407
v -1.939224 0.615421 -0.185407
v 0.052283 1.862334 3.556940
v 0.052283 0.908404 3.556940
v -0.954298 1.865411 8.943050
v -0.954298 0.905327 8.943050
v 0.052283 0.908404 3.725224
v 0.052283 1.862334 3.725224
v -1.076763 0.904358 8.943050
v -1.076763 1.866380 8.943049
v 1.904621 0.908403 -0.185407
v 1.904621 1.862335 -0.185407
v 1.904621 0.908328 -0.357571
v 1.904621 1.862410 -0.357571
v 2.068676 1.862333 -0.185407
v 2.068676 0.908405 -0.185407
v 2.068676 1.862333 -0.357571
v 2.068676 0.908405 -0.357571
v -1.938914 1.862572 -4.112441
v -1.938914 0.908166 -4.112441
v -1.743774 0.908347 -0.357571
v -1.743774 1.862391 -0.357571
v -1.743774 0.908403 -0.185407
v -1.743774 1.862336 -0.185407
v -1.939224 0.908399 3.725899
v -1.939224 1.862339 3.725899
v -1.743774 0.908401 3.725899
v -1.743774 1.862338 3.725899
v -3.197761 1.871877 3.570523
v -3.197761 0.898862 3.570523
v -3.771684 0.898101 3.570523
v -3.771684 1.872638 3.570523
v -3.197761 0.898859 3.729348
v -3.197761 1.871879 3.729348
v -3.935404 1.862333 3.570522
v -3.935404 0.908405 3.570523
v -3.935404 1.862333 3.729347
v -3.935404 0.908405 3.729348
v -3.771684 0.493160 3.570523
v -3.771684 1.871662 3.570523
v -3.771684 1.871678 3.729348
v -3.771684 0.493144 3.729348
v -1.939224 1.862347 3.568397
v -1.939224 0.615426 3.568397
v -1.743774 1.862336 3.568397
v -1.743774 0.908402 3.568397
v -2.442990 0.908397 3.725899
v -2.442990 1.862341 3.725899
v -2.442990 0.908395 3.568397
v -2.442990 1.862344 3.568397
v -1.938914 0.908089 -4.265500
v -1.938914 1.862650 -4.265500
v 2.068676 1.862333 -4.112441
v 2.068676 0.908405 -4.112441
v 2.068676 1.862333 -4.265500
v 2.068676 0.908405 -4.265500
v 1.904621 0.908303 -4.112441
v 1.904621 1.862435 -4.112441
v 1.904621 1.863630 -4.265500
v 1.904621 0.907109 -4.265500
v -1.743444 1.862377 -2.689810
v -1.743444 0.908361 -2.689810
v -1.938894 0.615407 -2.689810
v -1.938894 1.862366 -2.689810
v 1.904621 0.906686 -6.259020
v 1.904621 1.864052 -6.259020
v 1.904621 1.866338 -6.422282
v 1.904621 0.904401 -6.422282
v 2.068676 1.862333 -6.259020
v 2.068676 0.908405 -6.259020
v 2.068676 0.908405 -6.422282
v 2.068676 1.862333 -6.422282
v 0.280829 1.862513 -4.112441
v 0.280829 0.908225 -4.112441
v 0.437896 0.908269 -4.112441
v 0.437896 1.862469 -4.112441
v 0.280829 0.907985 -4.265500
v 0.280829 1.862753 -4.265500
v 0.437896 1.863311 -4.265500
v 0.437896 0.907427 -4.265500
v -0.702155 1.865354 -6.426429
v -0.702155 0.905384 -6.426429
v -0.702155 0.906126 -6.263168
v -0.702155 1.864612 -6.263168
v 0.437896 1.863071 -4.879030
v 0.437896 0.907667 -4.879030
v 0.280829 0.907849 -4.879030
v 0.280829 1.862890 -4.879030
v 1.464661 0.906584 9.529726
v 1.464661 1.864154 9.529726
v 2.545027 1.863765 9.529726
v 2.545027 0.906973 9.529726
v 1.464661 1.862333 9.729727
v 1.464661 0.908405 9.729727
v 2.545027 0.908405 9.729727
v 2.545027 1.862333 9.729727
v 3.988636 0.000000 7.662272
v 3.988636 2.000000 7.662272
v 4.138636 2.000000 7.662272
v 4.138636 0.000000 7.662272
v 3.988636 1.863400 7.662272
v 3.988636 0.907338 7.662272
v 4.138636 1.862333 7.662272
v 4.138636 0.908405 7.662272
v 2.005415 1.863959 9.529647
v 2.007125 0.906780 9.529647
v 1.951802 0.906760 9.529647
v 1.958591 1.863976 9.529647
v -3.747946 0.000000 9.529726
v -3.747946 0.000000 3.729347
v -3.747946 0.000000 3.570522
v -3.747946 0.000000 -10.097624
v -3.747946 0.493160 3.570523
v -3.747946 0.495452 -10.097624
v -3.747946 0.495429 9.529726
v -3.747946 0.493144 3.729348
v -1.966569 0.000000 -0.185409
v -1.966569 0.000000 -0.357572
v -1.966569 0.000000 3.568395
v -1.966240 0.000000 -2.689811
v -1.966240 0.615407 -2.689811
v -1.966569 0.615415 -0.357572
v -1.966569 0.615421 -0.185409
v -1.966569 0.615426 3.568395
v -3.935404 0.000000 -5.964763
v -3.935404 0.000000 -0.562337
v -3.935404 2.000000 -0.562337
v -3.935404 2.000000 -5.964763
v -3.771684 2.000000 -5.964763
v -3.771684 2.000000 -0.562337
v -3.771684 0.000000 -0.562337
v -3.771684 0.000000 -5.964763
v -3.771684 0.494759 -5.964764
v -3.771684 0.493853 -0.562337
v -3.771684 1.870064 -5.964764
v -3.771684 1.870970 -0.562337
v -3.935404 1.862333 -0.562337
v -3.935404 1.862333 -5.964763
v -3.935404 0.908405 -5.964763
v -3.935404 0.908405 -0.562337
v -3.747946 0.000000 -0.562337
v -3.747946 0.000000 -5.964763
v -3.747946 0.493853 -0.562337
v -3.747946 0.494759 -5.964764
vn -0.0000 1.0000 -0.0000
vn -1.0000 -0.0000 -0.0000
vn -0.0000 -0.0000 -1.0000
vn -0.0000 -0.0000 1.0000
vn -0.0000 -1.0000 -0.0000
vn 1.0000 -0.0000 -0.0000
vn -1.0000 -0.0000 0.0009
vn 1.0000 -0.0000 -0.0009
vn -0.0007 -0.0000 -1.0000
vn 0.0007 -0.0000 1.0000
vn -0.1664 -0.0000 0.9861
vn -1.0000 -0.0000 -0.0001
vn 1.0000 -0.0000 0.0001
vn -0.0016 -0.0000 1.0000
vn 0.0016 -0.0000 -1.0000
vn 1.0000 -0.0000 0.0016
vn -1.0000 -0.0000 -0.0016
vn -0.0000 1.0000 0.0002
vn -0.0004 1.0000 -0.0000
vn -0.0004 -1.0000 -0.0000
vn 0.0004 -1.0000 -0.0000
vn 0.0004 1.0000 -0.0000
vn 1.0000 0.0018 -0.0000
vn -1.0000 0.0071 -0.0000
vn -0.0000 1.0000 -0.0004
vn -0.0001 -0.0000 1.0000
vt 0.009598 0.000455
vt 0.009598 0.019025
vt 0.000928 0.019025
vt 0.000928 0.000455
vt 0.710280 0.994051
vt 0.710280 0.799159
vt 0.803519 0.799159
vt 0.803519 0.994051
vt 0.516130 0.379721
vt 0.507696 0.379721
vt 0.507696 0.361151
vt 0.516130 0.361151
vt 0.204236 0.999545
vt 0.195802 0.999545
vt 0.195802 0.980975
vt 0.204236 0.980975
vt 0.093762 0.980975
vt 0.093762 0.999545
vt 0.092833 0.999545
vt 0.092833 0.980975
vt 0.000000 0.019025
vt -0.000000 0.000455
vt 0.114694 0.980975
vt 0.114694 0.999545
vt 0.111654 0.999545
vt 0.111654 0.980975
vt 0.257132 0.936009
vt 0.257132 0.735543
vt 0.463428 0.735524
vt 0.463428 0.936009
vt 0.423282 0.504240
vt 0.431716 0.504240
vt 0.431716 0.512909
vt 0.423282 0.512909
vt 0.000000 0.979732
vt 0.000929 0.979732
vt 0.000929 1.000000
vt 0.000000 1.000000
vt 0.204236 0.020268
vt 0.195802 0.020268
vt 0.195802 -0.000000
vt 0.204236 -0.000000
vt 0.093762 0.020268
vt 0.092833 0.020268
vt 0.092833 -0.000000
vt 0.093762 -0.000000
vt 0.423282 0.426526
vt 0.414848 0.426526
vt 0.414848 0.425598
vt 0.423282 0.425598
vt 0.092047 1.000000
vt 0.092047 0.979732
vt 0.092833 0.979732
vt 0.092833 1.000000
vt 0.000928 0.197740
vt 0.000000 0.197740
vt 0.195802 0.802260
vt 0.204236 0.802260
vt 0.204236 0.668514
vt 0.195802 0.668514
vt 0.195802 0.369122
vt 0.204236 0.369122
vt 0.425262 1.002384
vt 0.432083 0.777205
vt 0.025037 0.771549
vt 0.018216 0.996728
vt 0.205515 0.723021
vt 0.204236 0.723021
vt 0.204236 0.020310
vt 0.205515 0.020310
vt 0.184880 0.020268
vt 0.184880 -0.000000
vt 0.185667 -0.000000
vt 0.185667 0.020268
vt 0.214372 0.723021
vt 0.222806 0.723021
vt 0.222806 0.743289
vt 0.214372 0.743289
vt 0.092833 0.277020
vt 0.092047 0.277020
vt 0.092047 0.256711
vt 0.092833 0.256711
vt 0.423282 0.353666
vt 0.414848 0.353666
vt 0.414848 0.334480
vt 0.423282 0.334480
vt 0.460802 0.366979
vt 0.462009 0.366979
vt 0.462015 0.386165
vt 0.460802 0.386165
vt 0.389933 0.348640
vt 0.390670 0.348640
vt 0.390670 0.419690
vt 0.389933 0.419690
vt 0.120827 0.824594
vt 0.124027 0.790966
vt 0.959447 0.801805
vt 0.956303 0.834845
vt 0.335502 0.515052
vt 0.334224 0.515052
vt 0.334224 0.497989
vt 0.335502 0.497989
vt 0.184880 0.722980
vt 0.185667 0.722980
vt 0.185667 0.743289
vt 0.184880 0.743289
vt 0.344359 0.515052
vt 0.352793 0.515052
vt 0.352793 0.515838
vt 0.344359 0.515838
vt 0.120709 0.982127
vt 0.120709 1.000000
vt 0.118872 1.000000
vt 0.118872 0.982127
vt 0.400548 0.473549
vt 0.400548 0.478127
vt 0.397609 0.478127
vt 0.397609 0.473549
vt 0.214372 0.020310
vt 0.222806 0.020310
vt 0.741001 0.746079
vt 0.725108 0.746079
vt 0.725108 0.516764
vt 0.741001 0.516764
vt 0.027875 0.277020
vt 0.028657 0.277020
vt 0.028657 0.506335
vt 0.027875 0.506335
vt 0.028657 0.256711
vt 0.027875 0.256711
vt 0.121490 0.722980
vt 0.121490 0.743289
vt 0.120709 0.743289
vt 0.120709 0.722980
vt 0.433418 0.464396
vt 0.441852 0.464396
vt 0.441852 0.488592
vt 0.436138 0.488592
vt 0.516130 0.256711
vt 0.507696 0.256711
vt 0.507696 0.017873
vt 0.516130 0.017873
vt 0.157094 0.722980
vt 0.157094 0.743289
vt 0.139663 0.743289
vt 0.139663 0.722980
vt 0.138863 0.722980
vt 0.138863 0.743289
vt 0.507696 -0.000000
vt 0.516130 -0.000000
vt 0.121490 0.982127
vt 0.121490 1.000000
vt 0.028657 0.017873
vt 0.027875 0.017873
vt 0.027875 0.000000
vt 0.028657 0.000000
vt 0.517967 0.129987
vt 0.517967 0.131265
vt 0.516130 0.131265
vt 0.516130 0.129987
vt 0.335502 0.469035
vt 0.334224 0.469035
vt 0.334224 0.451662
vt 0.335502 0.451662
vt 0.725108 0.766389
vt 0.741001 0.766389
vt 0.741001 1.005226
vt 0.725109 1.005226
vt 0.288650 0.467651
vt 0.297085 0.467651
vt 0.297085 0.485798
vt 0.288650 0.485798
vt 0.515434 0.453999
vt 0.515434 0.455277
vt 0.497561 0.455277
vt 0.497561 0.453999
vt 0.516130 0.111418
vt 0.516130 0.102983
vt 0.516911 0.102983
vt 0.516911 0.111418
vt 0.026039 0.017873
vt 0.026039 0.000000
vt 0.102431 0.980975
vt 0.102431 0.999545
vt 0.423282 0.491977
vt 0.431716 0.491977
vt 0.431716 0.495017
vt 0.423282 0.495017
vt 0.194664 0.643863
vt 0.219042 0.643863
vt 0.218993 0.715717
vt 0.194665 0.715717
vt 0.186945 0.980975
vt 0.185667 0.980975
vt 0.185667 0.802260
vt 0.186945 0.802260
vt 0.441852 0.495570
vt 0.440573 0.495570
vt 0.440573 0.495017
vt 0.441852 0.495017
vt 0.111101 0.999545
vt 0.111101 0.980975
vt 0.018267 0.019025
vt 0.018267 0.000455
vt 0.018820 0.000455
vt 0.018820 0.019025
vt 0.018267 0.486676
vt 0.018820 0.486676
vt 0.018820 0.504823
vt 0.018267 0.504823
vt 0.021860 0.000455
vt 0.021860 0.019025
vt 0.111654 0.513324
vt 0.111101 0.513324
vt 0.111101 0.495177
vt 0.111654 0.495177
vt 0.278515 0.467651
vt 0.279793 0.467651
vt 0.279793 0.485798
vt 0.278515 0.485798
vt 0.393332 0.479007
vt 0.393332 0.480285
vt 0.390789 0.480285
vt 0.390789 0.479007
vt 0.449709 0.592654
vt 0.460823 0.757714
vt 0.004266 0.749196
vt 0.008772 0.597221
vt 0.741142 0.506921
vt 0.742420 0.506921
vt 0.742420 0.974572
vt 0.741142 0.974572
vt 0.658071 0.516103
vt 0.658624 0.516103
vt 0.658624 0.983754
vt 0.658071 0.983754
vt 0.497561 0.416860
vt 0.497561 0.398290
vt 0.515708 0.398290
vt 0.515708 0.416860
vt 0.015724 0.504823
vt 0.015724 0.486676
vt 0.108557 0.513324
vt 0.108557 0.495177
vt 0.524365 0.454421
vt 0.524365 0.472569
vt 0.515434 0.472569
vt 0.515434 0.454421
vt 0.049762 0.990216
vt 0.049762 0.565367
vt 0.402981 0.565367
vt 0.402981 0.990216
vt 0.516130 0.056937
vt 0.516130 0.055709
vt 0.518854 0.055709
vt 0.518854 0.056949
vt 0.524640 0.417282
vt 0.524640 0.435429
vt 0.515708 0.435429
vt 0.515708 0.417282
vt 0.389933 0.015161
vt 0.371363 0.015161
vt 0.371363 0.000000
vt 0.389933 0.000000
vt 0.414848 0.333693
vt 0.423282 0.333693
vt 0.000000 0.646039
vt 0.000929 0.646039
vt 0.249319 0.812977
vt 0.249319 0.800624
vt 0.333756 0.800624
vt 0.333756 0.812985
vt 0.852419 0.563359
vt 0.852419 0.988208
vt 0.648069 0.988208
vt 0.648069 0.563359
vt 0.092833 0.353961
vt 0.093762 0.353961
vt 0.093762 0.369122
vt 0.092833 0.369122
vt 0.516406 0.398290
vt 0.516406 0.416860
vt 0.515708 0.416860
vt 0.000000 0.630878
vt 0.000929 0.630878
vt 0.185667 0.353961
vt 0.186945 0.353961
vt 0.186945 0.369122
vt 0.185667 0.369122
vt 0.564618 0.948513
vt 0.562252 0.532401
vt 0.895540 0.530507
vt 0.897905 0.946618
vt 0.390630 0.000168
vt 0.390630 0.015329
vt 0.389933 0.015347
vt 0.389933 0.000186
vt 0.398020 0.333311
vt 0.398020 0.348472
vt 0.397323 0.348454
vt 0.397323 0.333293
vt 0.867298 0.576384
vt 0.867298 0.972805
vt 0.647273 0.972805
vt 0.647273 0.576384
vt 0.063337 0.933541
vt 0.063337 0.544303
vt 0.279800 0.544307
vt 0.279800 0.933545
vt 0.003652 0.630947
vt 0.003652 0.646108
vt 0.478991 0.274798
vt 0.480269 0.274798
vt 0.480269 0.504113
vt 0.478991 0.504113
vt 0.403991 0.404349
vt 0.403991 0.385779
vt 0.404689 0.385779
vt 0.404689 0.404349
vt 0.397331 0.000000
vt 0.398028 0.000018
vt 0.421275 0.559008
vt 0.422796 0.924544
vt 0.089506 0.925931
vt 0.087985 0.560395
vt 0.390638 0.348622
vt 0.389941 0.348640
vt 0.404712 0.333479
vt 0.404712 0.348640
vt 0.397323 0.000000
vt 0.397323 0.015161
vt 0.314806 0.914842
vt 0.314806 0.764463
vt 0.363654 0.764248
vt 0.363654 0.914844
vt 0.194665 0.769492
vt 0.218924 0.769492
vt 0.218829 0.889865
vt 0.194665 0.889865
vt 0.553201 0.886634
vt 0.873857 0.876791
vt 0.873856 0.647476
vt 0.553200 0.657320
vt 0.457012 0.514452
vt 0.457012 0.522858
vt 0.441852 0.522858
vt 0.441852 0.514461
vt 0.371363 0.524635
vt 0.371363 0.506065
vt 0.386524 0.506065
vt 0.386524 0.524635
vt 0.457012 0.504289
vt 0.457012 0.505538
vt 0.441852 0.505529
vt 0.441852 0.504289
vt 0.096485 0.353892
vt 0.096485 0.369053
vt 0.120709 0.493665
vt 0.121490 0.493665
vt 0.516911 0.094126
vt 0.516911 0.092848
vt 0.518748 0.092848
vt 0.518748 0.094126
vt 0.477795 0.497560
vt 0.477795 0.498838
vt 0.460421 0.498838
vt 0.460421 0.497560
vt 0.046030 0.256711
vt 0.046030 0.277020
vt 0.344359 0.497989
vt 0.352793 0.497989
vt 0.046829 0.256711
vt 0.046829 0.277020
vt 0.405895 0.497576
vt 0.404712 0.497576
vt 0.404712 0.426526
vt 0.405902 0.426526
vt 0.335502 0.469834
vt 0.334224 0.469834
vt 0.352793 0.487266
vt 0.344359 0.487266
vt 0.344359 0.469834
vt 0.352793 0.469834
vt 0.046030 0.728682
vt 0.046829 0.728682
vt 0.046829 0.752878
vt 0.046030 0.752878
vt 0.139663 0.271318
vt 0.138863 0.271318
vt 0.138863 0.247122
vt 0.139663 0.247122
vt 0.000805 0.498660
vt 0.000805 0.258935
vt 0.496117 0.258935
vt 0.496117 0.498660
vt 0.782603 0.749563
vt 0.782603 0.758698
vt 0.657934 0.758700
vt 0.657934 0.749563
vt 0.469948 0.059483
vt 0.468802 0.249091
vt 0.052219 0.242000
vt 0.053365 0.052393
vt 0.291139 0.404419
vt 0.291139 0.330094
vt 0.297582 0.330094
vt 0.297582 0.404419
vt 0.028603 0.728682
vt 0.028603 0.752878
vt 0.027872 0.752878
vt 0.027872 0.728682
vt 0.121437 0.247122
vt 0.121437 0.271318
vt 0.120706 0.271318
vt 0.120706 0.247122
vt 0.876700 0.511281
vt 0.879986 0.747759
vt 0.795995 0.747854
vt 0.792710 0.511378
vt 0.335502 0.515838
vt 0.334224 0.515838
vt 0.405991 0.353666
vt 0.404712 0.353666
vt 0.404712 0.334480
vt 0.405991 0.334480
vt 0.027856 0.979732
vt 0.027856 1.000000
vt 0.120690 -0.000000
vt 0.120690 0.020268
vt 0.028594 0.979732
vt 0.028594 1.000000
vt 0.121427 -0.000000
vt 0.121427 0.020268
vt 0.404713 0.397933
vt 0.405991 0.397933
vt 0.405991 0.398670
vt 0.404713 0.398670
vt 0.389933 0.348640
vt 0.389933 0.344061
vt 0.389933 0.340301
vt 0.269673 0.931407
vt 0.279487 0.931407
vt 0.210458 0.649725
vt 0.200771 0.649725
vt 0.389933 0.331963
vt 0.222806 -0.000000
vt 0.224019 -0.000000
vt 0.224035 0.702712
vt 0.222806 0.702712
vt 0.797687 0.923625
vt 0.759944 0.923625
vt 0.759913 0.602039
vt 0.797687 0.602039
vt 0.371363 0.435015
vt 0.372555 0.435015
vt 0.372546 0.435015
vt 0.423310 0.351863
vt 0.423310 0.343517
vt 0.424048 0.343517
vt 0.424048 0.351863
vt 0.391407 0.419690
vt 0.390670 0.419690
vt 0.390670 0.348640
vt 0.391407 0.348640
vt 0.404015 0.348640
vt 0.404015 0.349918
vt 0.403233 0.349918
vt 0.403233 0.348640
vt 0.372641 0.410819
vt 0.371363 0.410819
vt 0.371363 0.348454
vt 0.372641 0.348454
vt 0.551786 0.241808
vt 0.568290 0.067268
vt 0.912144 0.076009
vt 0.895638 0.250569
vt 0.120706 0.184757
vt 0.121437 0.184757
vt 0.028603 0.815243
vt 0.027872 0.815243
vt 0.424041 0.351863
vt 0.424041 0.353141
vt 0.423310 0.353141
vt 0.423310 0.351863
vt 0.647077 0.513303
vt 0.648457 0.513303
vt 0.643536 0.735357
vt 0.642156 0.735357
vt 0.064261 0.256711
vt 0.064261 0.277020
vt 0.167818 0.743289
vt 0.167818 0.722980
vt 0.897952 0.594798
vt 0.896710 0.757737
vt 0.621925 0.754019
vt 0.623168 0.591090
vt 0.157805 0.722980
vt 0.157805 0.743289
vt 0.334224 0.487266
vt 0.335502 0.487266
vt 0.335502 0.487977
vt 0.334224 0.487977
vt 0.064971 0.277020
vt 0.064971 0.458597
vt 0.064261 0.458597
vt 0.064971 0.256711
vt 0.167060 0.722980
vt 0.167060 0.743289
vt 0.064261 0.478041
vt 0.064971 0.478041
vt 0.064971 0.752840
vt 0.064261 0.752840
vt 0.614039 0.473710
vt 0.614039 0.476901
vt 0.590642 0.476911
vt 0.590642 0.473710
vt 0.942209 0.564608
vt 0.939635 0.769596
vt 0.563601 0.766506
vt 0.566174 0.561526
vt 0.278515 0.485798
vt 0.297085 0.485798
vt 0.297085 0.509995
vt 0.278515 0.509995
vt 0.150490 0.247163
vt 0.150490 0.271359
vt 0.474293 0.437289
vt 0.474293 0.413093
vt 0.477548 0.413104
vt 0.477548 0.437301
vt 0.057657 0.728641
vt 0.057657 0.752837
vt 0.138863 0.243737
vt 0.139663 0.243737
vt 0.737028 0.993325
vt 0.737028 0.614814
vt 0.803370 0.614814
vt 0.803370 0.993325
vt 0.474793 0.346920
vt 0.474793 0.322724
vt 0.478048 0.322712
vt 0.478048 0.346908
vt 0.352793 0.497231
vt 0.344359 0.497231
vt 0.344359 0.487977
vt 0.352793 0.487977
vt 0.074226 0.256711
vt 0.074226 0.277020
vt 0.278515 0.512658
vt 0.259945 0.512658
vt 0.259945 0.488462
vt 0.278515 0.488462
vt 0.423282 0.464396
vt 0.424560 0.464396
vt 0.424560 0.488592
vt 0.423282 0.488592
vt 0.840800 0.685298
vt 0.840800 0.964502
vt 0.732474 0.964502
vt 0.732474 0.685298
vt 0.497560 0.491139
vt 0.497560 0.472569
vt 0.498318 0.472569
vt 0.498318 0.491139
vt 0.259945 0.229315
vt 0.261224 0.229315
vt 0.261224 0.249624
vt 0.259945 0.249624
vt 0.441091 0.374395
vt 0.441090 0.398845
vt 0.424048 0.398133
vt 0.424049 0.373683
vt 0.334224 0.497231
vt 0.335502 0.497231
vt 0.074984 0.256711
vt 0.074984 0.277020
vt 0.824724 0.074129
vt 0.806154 0.074129
vt 0.806154 0.049680
vt 0.824724 0.049680
vt 0.424050 0.439946
vt 0.424808 0.439946
vt 0.424809 0.464396
vt 0.424051 0.464396
vt 0.441849 0.374395
vt 0.441848 0.398845
vt 0.811602 0.495984
vt 0.639588 0.495984
vt 0.639588 0.115251
vt 0.811602 0.115251
vt 0.075003 0.599732
vt 0.074245 0.599732
vt 0.424048 0.398845
vt 0.424806 0.398845
vt 0.441852 0.000000
vt 0.443093 0.000000
vt 0.443102 0.322712
vt 0.441852 0.322712
vt 0.297085 0.475819
vt 0.315654 0.475819
vt 0.315654 0.500269
vt 0.297085 0.500269
vt 0.441850 0.439235
vt 0.441852 0.463684
vt 0.692387 0.290151
vt 0.692387 0.736639
vt 0.282637 0.736645
vt 0.282637 0.290156
vt 0.589792 0.979086
vt 0.589792 0.569617
vt 0.965568 0.569599
vt 0.965568 0.979067
vt 0.516130 0.341707
vt 0.497560 0.341707
vt 0.497560 0.322262
vt 0.516130 0.322262
vt 0.157805 0.521959
vt 0.157094 0.521959
vt 0.157094 0.247160
vt 0.157805 0.247160
vt 0.736803 0.136719
vt 0.738078 0.136719
vt 0.738079 0.411517
vt 0.736803 0.411517
vt 0.718552 0.765872
vt 0.718552 0.747472
vt 0.720102 0.747474
vt 0.720102 0.765872
vt 0.297085 0.274798
vt 0.298361 0.274798
vt 0.298362 0.294243
vt 0.297085 0.294243
vt 0.518978 0.000000
vt 0.518978 0.001269
vt 0.516130 0.001271
vt 0.516130 0.000000
vt 0.157805 0.541403
vt 0.157094 0.541403
vt 0.692640 0.416283
vt 0.692640 0.204052
vt 0.764342 0.204084
vt 0.764342 0.416283
vt 0.852796 0.481419
vt 0.852796 0.013939
vt 0.924500 0.013939
vt 0.924500 0.481417
vt 0.160653 0.521959
vt 0.160653 0.541403
vt 0.474793 0.366364
vt 0.474793 0.346920
vt 0.477641 0.346920
vt 0.477641 0.366364
vt 0.441094 0.333293
vt 0.441852 0.333293
vt 0.460421 0.456458
vt 0.478991 0.456458
vt 0.478991 0.497560
vt 0.460421 0.497560
vt 0.904416 0.065139
vt 0.897409 0.259343
vt 0.574911 0.247586
vt 0.581914 0.053502
vt 0.403991 0.385779
vt 0.403991 0.387029
vt 0.403233 0.387036
vt 0.403233 0.385779
vt 0.403233 0.385779
vt 0.403233 0.367209
vt 0.403991 0.367209
vt 0.403991 0.385779
vt 0.627448 0.058109
vt 0.627448 0.477715
vt 0.563087 0.477715
vt 0.563087 0.058109
vt 0.167079 0.400268
vt 0.167837 0.400268
vt 0.775574 0.213934
vt 0.775574 0.194489
vt 0.778422 0.194489
vt 0.778422 0.213934
vt 0.616436 0.342148
vt 0.616436 0.322703
vt 0.635005 0.322703
vt 0.635005 0.342148
vt 0.657717 0.232245
vt 0.657717 0.212800
vt 0.658988 0.212800
vt 0.658990 0.232245
vt 0.067820 0.458597
vt 0.067820 0.478041
vt 0.093762 0.668514
vt 0.092833 0.668514
vt 0.518854 0.074278
vt 0.518854 0.075535
vt 0.516130 0.075528
vt 0.516130 0.074278
vt 0.000000 0.331486
vt 0.000928 0.331486
vt 0.242271 0.637409
vt 0.242271 0.964879
vt 0.224123 0.964879
vt 0.224123 0.637409
vt 0.320104 0.527347
vt 0.318038 0.735952
vt 0.250199 0.735326
vt 0.184297 0.734718
vt 0.186364 0.526023
vt 0.093762 0.802260
vt 0.092833 0.802260
vt 0.185667 0.668514
vt 0.186945 0.668514
vt 0.195802 0.353961
vt 0.204236 0.353961
vt 0.218959 0.742294
vt 0.507701 0.361151
vt 0.507703 0.341707
vt 0.516130 0.361151
vt 0.571651 0.760022
vt 0.571636 0.545787
vt 0.894348 0.545764
vt 0.894362 0.760232
vt 0.879526 0.261359
vt 0.879526 0.461599
vt 0.811832 0.461599
vt 0.811832 0.261307
vt 0.403991 0.395942
vt 0.403991 0.404349
vt 0.403233 0.404349
vt 0.403233 0.395935
vt 0.707812 0.224183
vt 0.707812 0.212668
vt 0.733547 0.212668
vt 0.733547 0.224171
vt 0.773404 0.734397
vt 0.773404 0.736736
vt 0.753585 0.736736
vt 0.753585 0.734397
vt 0.523333 0.766166
vt 0.525906 0.561196
vt 0.934593 0.774645
vt 0.934593 0.970520
vt 0.536013 0.970520
vt 0.536013 0.774362
vt 0.801527 0.447712
vt 0.800265 0.447712
vt 0.800265 0.125000
vt 0.801522 0.125000
vt 0.298362 0.475819
vt 0.297085 0.475819
vt 0.402985 0.432869
vt 0.404263 0.432869
vt 0.404263 0.433668
vt 0.402985 0.433668
vt 0.779001 0.258193
vt 0.780795 0.032457
vt 0.962366 0.033900
vt 0.960572 0.259715
vt 0.879101 0.286695
vt 0.879101 0.493001
vt 0.652300 0.493002
vt 0.652300 0.286599
vt 0.718552 0.728135
vt 0.718552 0.725351
vt 0.720102 0.725351
vt 0.720102 0.728134
vt 0.344359 0.469035
vt 0.352793 0.469035
vt 0.757076 0.633472
vt 0.779580 0.633472
vt 0.779580 0.879091
vt 0.746363 0.879091
vt 0.424041 0.361998
vt 0.424041 0.370432
vt 0.423310 0.370432
vt 0.423310 0.361998
vt 0.137572 0.252043
vt 0.137572 0.240780
vt 0.291139 0.240780
vt 0.291139 0.252043
vt 0.400507 0.461922
vt 0.400507 0.462721
vt 0.397122 0.462721
vt 0.397122 0.461922
vt 0.389933 0.335722
vt 0.389933 0.340301
vt 0.423310 0.334483
vt 0.423310 0.333293
vt 0.424048 0.333293
vt 0.424048 0.334483
vt 0.372553 0.506065
vt 0.405991 0.425598
vt 0.404713 0.425598
vt 0.414848 0.397933
vt 0.423282 0.397933
vt 0.423282 0.398670
vt 0.414848 0.398670
vt 0.352793 0.451662
vt 0.354072 0.451662
vt 0.354072 0.514027
vt 0.352793 0.514027
vt 0.517537 0.692646
vt 0.520920 0.620250
vt 0.996303 0.606180
vt 0.990136 0.738143
vt 0.047780 0.979732
vt 0.047780 1.000000
vt 0.372641 0.435015
vt 0.371363 0.435015
vt 0.579512 0.748104
vt 0.576227 0.511627
vt 0.972660 0.763167
vt 0.972660 0.957130
vt 0.571742 0.957132
vt 0.571742 0.763162
vt 0.493680 0.794126
vt 0.502685 0.602361
vt 0.990283 0.611748
vt 0.981278 0.803517
vt 0.902211 0.765766
vt 0.902211 0.964926
vt 0.565150 0.964927
vt 0.565150 0.765763
vt 0.297085 -0.000000
vt 0.298361 -0.000000
vt 0.297582 0.240780
vt 0.297582 0.252043
vt 0.314147 0.500269
vt 0.314147 0.501498
vt 0.297085 0.501510
vt 0.297085 0.500269
vt 0.557019 0.619519
vt 0.559372 0.619519
vt 0.559372 0.639454
vt 0.557019 0.639454
vt 0.498839 0.256711
vt 0.497561 0.256711
vt 0.497561 0.017873
vt 0.498839 0.017873
vt 0.362623 0.451662
vt 0.344243 0.451662
vt 0.344242 -0.000000
vt 0.362623 -0.000000
vt 0.404015 0.358775
vt 0.404015 0.367209
vt 0.403233 0.367209
vt 0.403233 0.358775
vt 0.397162 0.473549
vt 0.347388 0.443601
vt 0.347388 0.602121
vt 0.296065 0.602121
vt 0.296065 0.443727
vt 0.200850 0.751577
vt 0.202916 0.542972
vt 0.502294 0.545937
vt 0.500229 0.754419
vt 0.455608 0.262770
vt 0.455608 0.465750
vt 0.037500 0.465750
vt 0.037500 0.262772
vt 0.186945 0.020268
vt 0.185667 0.020268
vt 0.185667 -0.000000
vt 0.186945 -0.000000
vt 0.246599 0.780656
vt 0.246599 0.779386
vt 0.249142 0.779386
vt 0.249142 0.780657
vt 0.269208 0.940729
vt 0.191439 0.940729
vt 0.191437 0.769109
vt 0.269266 0.769109
vt 0.252830 0.955624
vt 0.252830 0.755551
vt 0.313223 0.755542
vt 0.313223 0.955624
vt 0.717805 0.789253
vt 0.717805 0.793512
vt 0.717526 0.793512
vt 0.717526 0.789253
vt 0.431716 0.495570
vt 0.423282 0.495570
vt 0.523744 0.724083
vt 0.528315 0.529391
vt 0.995542 0.565486
vt 0.990971 0.760179
vt 0.390789 0.498854
vt 0.390789 0.497576
vt 0.393828 0.497576
vt 0.393828 0.498854
vt 0.036840 0.744730
vt 0.038908 0.535972
vt 0.217614 0.537742
vt 0.215547 0.746437
vt 0.498839 0.379721
vt 0.497561 0.379721
vt 0.497561 0.361151
vt 0.498839 0.361151
vt 0.516130 0.094126
vt 0.516130 0.092848
vt 0.714440 0.771126
vt 0.714440 0.821188
vt 0.703539 0.821188
vt 0.703539 0.771126
vt 0.515434 0.464134
vt 0.515434 0.472569
vt 0.497561 0.472569
vt 0.497561 0.464134
vt 0.772755 0.811280
vt 0.985339 0.811280
vt 0.985339 0.824808
vt 0.772755 0.824808
vt 0.344359 0.451662
vt 0.352793 0.451662
vt 0.497561 0.000000
vt 0.498839 0.000000
vt 0.518748 0.102983
vt 0.518748 0.111418
vt 0.139852 0.247193
vt 0.138534 0.001424
vt 0.367845 0.000194
vt 0.369163 0.245964
vt 0.711906 0.031634
vt 0.715107 0.031634
vt 0.715115 0.490680
vt 0.711906 0.490680
vt 0.849249 0.665787
vt 0.528594 0.665787
vt 0.528594 0.904625
vt 0.849249 0.904625
vt 0.669724 0.735232
vt 0.668788 0.501439
vt 0.739838 0.501155
vt 0.740775 0.735148
vt 0.460802 0.322712
vt 0.461994 0.322712
vt 0.462000 0.341898
vt 0.460802 0.341898
vt 0.204236 0.000000
vt 0.205515 0.000000
vt 0.214372 0.000000
vt 0.222806 0.000000
vt 0.205515 0.743289
vt 0.204236 0.743289
vt 0.404712 0.333693
vt 0.405991 0.333693
vt 0.140613 0.020268
vt 0.140613 0.023207
vt 0.121427 0.023207
vt 0.680922 0.827965
vt 0.668977 0.827965
vt 0.668977 0.722638
vt 0.680922 0.722638
vt 0.393885 0.479007
vt 0.393885 0.480285
vt 0.405991 0.426526
vt 0.404713 0.426526
vt 0.740743 0.793111
vt 0.740743 0.951353
vt 0.693023 0.951353
vt 0.693023 0.793111
vt 0.440573 0.504240
vt 0.441852 0.504240
vt 0.441852 0.512909
vt 0.440573 0.512909
vt 0.441852 0.513838
vt 0.440573 0.513838
vt 0.186945 0.999545
vt 0.185667 0.999545
vt 0.440573 0.491977
vt 0.441852 0.491977
vt 0.404397 0.357531
vt 0.404397 0.366414
vt 0.404206 0.366414
vt 0.404206 0.357531
vt 0.498044 0.975002
vt 0.198668 0.971915
vt 0.667859 0.212800
vt 0.667857 0.232245
vt 0.890009 0.464402
vt 0.567503 0.452886
vt 0.634046 0.101980
vt 0.705748 0.101947
vt 0.705748 0.325178
vt 0.634046 0.325146
vt 0.811832 0.050480
vt 0.879526 0.050427
vt 0.560898 0.981852
vt 0.520629 0.981532
vt 0.895404 0.928940
vt 0.620620 0.925242
vt 0.878288 0.434062
vt 0.534432 0.425341
vt 0.894378 0.987629
vt 0.571666 0.987886
vt 0.536013 0.565724
vt 0.934593 0.565441
vt 0.918043 0.604218
vt 0.918049 0.963102
vt 0.534284 0.963102
vt 0.534284 0.604218
vt 0.936932 0.984927
vt 0.958681 0.497589
vt 0.777109 0.496225
vt 0.571742 0.559422
vt 0.972660 0.559416
vt 0.711479 0.879091
vt 0.711479 0.633472
vt 0.000805 0.007191
vt 0.496117 0.007191
vt 0.533428 0.932187
vt 0.533430 0.566557
vt 0.909057 0.566557
vt 0.909059 0.932187
vt 0.718990 0.923625
vt 0.719022 0.602039
vt 0.741788 0.988447
vt 0.670740 0.988932
vt 0.385354 0.435015
vt 0.381594 0.435015
vt 0.400295 0.367826
vt 0.400295 0.348640
vt 0.403233 0.348640
vt 0.403233 0.367826
vt 0.405991 0.378746
vt 0.414848 0.378746
vt 0.799445 0.996188
vt 0.582962 0.996438
vt 0.883436 0.996090
vt 0.467598 0.448201
vt 0.051015 0.441111
vt 0.971821 1.004934
vt 0.484222 0.995552
vt 0.565150 0.556590
vt 0.902211 0.556586
vt 0.391407 0.433668
vt 0.391407 0.432869
vt 0.538715 0.876791
vt 0.538713 0.647476
vt 0.296065 0.275753
vt 0.347388 0.275880
vt 0.314806 0.603835
vt 0.363654 0.604051
vt 0.370547 0.504050
vt 0.141235 0.505280
vt 0.213366 0.966595
vt 0.034661 0.964762
vt 0.439247 0.540743
vt 0.032201 0.535086
vt 0.252830 0.544864
vt 0.313223 0.544872
vt 0.986172 0.964627
vt 0.518945 0.928532
vt 0.458782 0.917787
vt 0.013933 0.909235
vt 0.693023 0.626939
vt 0.740743 0.626939
vt 0.710280 0.594502
vt 0.803519 0.594502
vt 0.257132 0.524313
vt 0.463428 0.524332
vt 0.703539 0.718555
vt 0.714440 0.718555
vt 0.514107 0.904625
vt 0.514107 0.665787
vt 0.037500 0.049618
vt 0.455608 0.049618
vt 0.652300 0.068954
vt 0.879101 0.068858
vt 0.549518 0.824808
vt 0.549518 0.811280
vt 0.983549 0.879084
vt 0.508154 0.893407
vt 0.064179 0.550396
vt 0.476456 0.574823
vt 0.442683 0.929766
vt 0.030517 0.904162
vt 0.717526 0.784780
vt 0.717805 0.784780
vt 0.431716 0.513838
vt 0.423282 0.513838
vt 0.285239 0.913670
vt 0.267092 0.913670
vt 0.267092 0.785857
vt 0.267092 0.651278
vt 0.267092 0.632009
vt 0.285239 0.632009
vt 0.285239 0.651396
vt 0.285239 0.785738
vt 0.345243 0.317055
vt 0.345240 0.447152
vt 0.326331 0.445364
vt 0.326327 0.317055
vt 0.404015 0.357531
vt 0.404015 0.348640
vt 0.404205 0.348640
vt 0.404205 0.357531
vt 0.460612 0.322712
vt 0.460612 0.388617
vt 0.460421 0.389303
vt 0.460421 0.322712
vt 0.460802 0.322712
vt 0.460802 0.390357
vt 0.460612 0.389656
vt 0.460612 0.383859
vt 0.460612 0.322712
vt 0.460421 0.396152
vt 0.460612 0.456458
vt 0.460421 0.456458
vt 0.404396 0.355489
vt 0.404396 0.348640
vt 0.404587 0.348640
vt 0.404587 0.355489
vt 0.168895 0.237666
vt 0.187803 0.237216
vt 0.187799 0.379346
vt 0.168899 0.379346
vt 0.460802 0.456458
vt 0.460612 0.456458
vt 0.050836 0.524293
vt 0.050836 0.735563
vt 0.164883 0.812969
vt 0.164883 0.800624
vt 0.050836 0.936009
vt 0.326327 0.466061
vt 0.328115 0.447152
vt 0.340448 0.447152
vt 0.340899 0.466061
vt 0.404396 0.363327
vt 0.404396 0.357531
vt 0.404587 0.357531
vt 0.404587 0.363327
vt 0.404396 0.348640
vt 0.404396 0.357527
vt 0.404205 0.357527
vt 0.404205 0.348640
vt 0.404015 0.366419
vt 0.404015 0.357531
vt 0.404205 0.357531
vt 0.404206 0.366419
vt 0.619665 0.747109
vt 0.619652 0.667698
vt 0.830575 0.667669
vt 0.830588 0.747192
vt 0.105748 0.834976
vt 0.059993 0.702055
vt 0.386146 0.709847
vt 0.431691 0.842155
vt 0.394670 0.478127
vt 0.394670 0.473549
vt 0.397609 0.473549
vt 0.397609 0.478127
vt 0.400548 0.476023
vt 0.400548 0.471423
vt 0.403486 0.471423
vt 0.403486 0.476023
vt 0.400548 0.471423
vt 0.400548 0.444496
vt 0.403486 0.444496
vt 0.403486 0.471423
vt 0.405991 0.353666
vt 0.414848 0.353666
vt 0.120690 0.023207
vt 0.093762 0.023207
vt 0.394346 0.473549
vt 0.394346 0.478149
vt 0.391407 0.478149
vt 0.391407 0.473549
vt 0.624177 0.564573
vt 0.830870 0.564573
vt 0.830868 0.956226
vt 0.624179 0.956226
vt 0.889147 0.953689
vt 0.536374 0.953689
vt 0.536370 0.639962
vt 0.889147 0.639962
vt 0.391407 0.461922
vt 0.397122 0.461922
vt 0.397121 0.462721
vt 0.391407 0.462721
vt 0.400507 0.444495
vt 0.397122 0.444495
vt 0.150490 0.243777
vt 0.460802 0.455332
vt 0.460802 0.449618
vt 0.464188 0.449618
vt 0.464188 0.455332
vt 0.121437 0.243737
vt 0.441852 0.491977
vt 0.436138 0.491977
vt 0.556400 0.586005
vt 0.948205 0.585456
vt 0.950964 0.927617
vt 0.559162 0.928510
vt 0.645367 0.777294
vt 0.645354 0.653465
vt 0.856277 0.653421
vt 0.856290 0.777422
vt 0.526405 0.544660
vt 0.942274 0.543970
vt 0.945196 0.972983
vt 0.529330 0.974105
vt 0.400295 0.412093
vt 0.400295 0.392906
vt 0.403233 0.392906
vt 0.403233 0.412093
vt 0.165694 0.020268
vt 0.184880 0.023207
vt 0.165694 0.023207
vt 0.072860 1.000000
vt 0.072860 0.979732
vt 0.165694 0.020268
vt 0.165694 -0.000000
vt 0.404712 0.378746
vt 0.423282 0.378746
vt 0.879729 0.668939
vt 0.879742 0.761750
vt 0.604026 0.761623
vt 0.604013 0.668983
vt 0.954978 0.557391
vt 0.957210 0.937858
vt 0.542321 0.939157
vt 0.540085 0.558189
vt 0.140613 -0.000000
s 0
usemtl Material.004
f 437/1/1 436/2/1 10/3/1 12/4/1
f 66/5/2 320/6/2 256/7/2 3/8/2
f 3/9/3 256/10/3 253/11/3 7/12/3
f 5/13/4 251/14/4 257/15/4 1/16/4
f 9/17/5 11/18/5 5/19/5 1/20/5
f 12/4/1 10/3/1 2/21/1 6/22/1
f 3/23/5 7/24/5 64/25/5 66/26/5
f 435/27/2 440/28/2 321/29/2 65/30/2
f 438/31/6 442/32/6 262/33/6 11/34/6
f 18/35/1 17/36/1 16/37/1 15/38/1
f 19/39/4 272/40/4 266/41/4 14/42/4
f 20/43/5 19/44/5 14/45/5 13/46/5
f 14/47/2 266/48/2 267/49/2 13/50/2
f 26/51/1 25/52/1 23/53/1 21/54/1
f 2/21/1 10/3/1 240/55/1 237/56/1
f 1/16/4 257/15/4 433/57/4 235/58/4
f 236/59/4 432/60/4 337/61/4 89/62/4
f 90/63/4 336/64/4 272/65/4 19/66/4
f 276/67/3 23/68/3 34/69/3 289/70/3
f 28/71/5 27/72/5 22/73/5 24/74/5
f 275/75/3 24/76/3 22/77/3 274/78/3
f 34/79/1 33/80/1 31/81/1 30/82/1
f 463/83/2 477/84/2 282/85/2 27/86/2
f 467/87/6 473/88/6 280/89/6 25/90/6
f 137/91/5 138/92/5 151/93/5 150/94/5
f 17/95/6 269/96/6 379/97/6 145/98/6
f 286/99/6 31/100/6 195/101/6 410/102/6
f 36/103/5 35/104/5 29/105/5 32/106/5
f 285/107/6 32/108/6 29/109/6 284/110/6
f 49/111/5 45/112/5 53/113/5 55/114/5
f 377/115/4 143/116/4 449/117/4 451/118/4
f 24/76/3 275/75/3 290/119/3 35/120/3
f 28/71/5 24/74/5 35/104/5 36/103/5
f 23/53/1 25/52/1 33/80/1 34/79/1
f 294/121/4 39/122/4 107/123/4 346/124/4
f 39/125/1 44/126/1 105/127/1 107/128/1
f 41/129/1 44/126/1 39/125/1 38/130/1
f 43/131/5 42/132/5 37/133/5 40/134/5
f 400/135/3 183/136/3 182/137/3 401/138/3
f 42/139/3 300/140/3 306/141/3 51/142/3
f 165/143/5 168/144/5 121/145/5 128/146/5
f 127/147/5 122/148/5 42/132/5 43/131/5
f 51/142/3 306/141/3 304/149/3 48/150/3
f 49/111/5 51/151/5 48/152/5 45/112/5
f 52/153/1 50/154/1 46/155/1 47/156/1
f 50/157/2 307/158/2 312/159/2 56/160/2
f 353/161/6 125/162/6 41/163/6 299/164/6
f 41/129/1 38/130/1 50/154/1 52/153/1
f 37/133/5 42/132/5 51/151/5 49/111/5
f 38/165/4 291/166/4 307/167/4 50/168/4
f 325/169/3 69/170/3 59/171/3 313/172/3
f 56/173/4 312/174/4 309/175/4 54/176/4
f 48/177/6 304/178/6 301/179/6 45/180/6
f 46/155/1 50/154/1 56/181/1 54/182/1
f 435/183/5 438/184/5 11/18/5 9/17/5
f 7/185/6 253/186/6 317/187/6 64/188/6
f 10/189/3 263/190/3 429/191/3 240/192/3
f 258/193/4 2/194/4 237/195/4 434/196/4
f 68/197/6 315/198/6 318/199/6 67/200/6
f 63/201/5 65/202/5 66/26/5 64/25/5
f 62/203/1 68/204/1 67/205/1 61/206/1
f 71/207/1 72/208/1 58/209/1 57/210/1
f 8/211/1 4/212/1 61/206/1 67/205/1
f 69/213/5 70/214/5 60/215/5 59/216/5
f 72/217/3 326/218/3 314/219/3 58/220/3
f 57/221/2 259/222/2 329/223/2 82/224/2
f 65/225/4 321/226/4 323/227/4 70/228/4
f 61/229/3 319/230/3 326/231/3 72/232/3
f 66/26/5 65/202/5 70/214/5 69/213/5
f 62/233/1 61/234/1 72/235/1 71/236/1
f 75/237/4 76/238/4 74/239/4 73/240/4
f 71/207/1 57/210/1 82/241/1 83/242/1
f 60/215/5 70/214/5 88/243/5 86/244/5
f 85/245/5 87/246/5 75/247/5 73/248/5
f 87/249/6 84/250/6 76/251/6 75/252/6
f 332/253/7 91/254/7 113/255/7 348/256/7
f 84/257/1 81/258/1 74/259/1 76/260/1
f 80/261/3 78/262/3 77/263/3 79/264/3
f 27/86/2 282/85/2 274/265/2 22/266/2
f 95/267/1 91/268/1 17/36/1 18/35/1
f 439/269/2 436/270/2 62/271/2 322/272/2
f 81/273/2 85/274/2 73/275/2 74/276/2
f 90/277/5 93/278/5 94/279/5 89/280/5
f 99/281/8 100/282/8 79/283/8 77/239/8
f 91/268/1 95/267/1 96/284/1 92/285/1
f 95/286/4 335/287/4 338/288/4 96/289/4
f 93/278/5 90/277/5 19/44/5 20/43/5
f 78/290/9 80/291/9 101/292/9 102/293/9
f 100/294/5 97/295/5 80/296/5 79/297/5
f 98/298/1 99/299/1 77/300/1 78/301/1
f 111/302/8 116/303/8 100/304/8 99/305/8
f 109/306/7 114/307/7 98/308/7 97/309/7
f 91/268/1 92/285/1 112/310/1 113/311/1
f 44/312/3 297/313/3 341/314/3 105/315/3
f 104/316/7 103/317/7 102/318/7 101/319/7
f 98/298/1 78/301/1 102/320/1 103/321/1
f 97/322/10 98/323/10 103/324/10 104/325/10
f 80/296/5 97/295/5 104/326/5 101/327/5
f 114/328/1 111/329/1 99/299/1 98/298/1
f 116/330/5 109/331/5 97/295/5 100/294/5
f 93/332/7 331/333/7 347/334/7 110/335/7
f 239/336/3 428/337/3 334/338/3 92/339/3
f 40/340/4 293/341/4 345/342/4 108/343/4
f 344/344/3 115/345/3 110/346/3 347/347/3
f 116/348/4 111/349/4 114/350/4 109/351/4
f 112/352/3 343/353/3 348/354/3 113/355/3
f 94/279/5 93/278/5 110/356/5 115/357/5
f 43/131/5 40/134/5 108/358/5 106/359/5
f 302/360/6 46/361/6 54/362/6 309/363/6
f 124/364/2 350/365/2 297/366/2 44/367/2
f 125/368/1 124/369/1 44/126/1 41/129/1
f 32/108/6 285/107/6 409/370/6 193/371/6
f 122/148/5 127/147/5 128/146/5 121/145/5
f 124/369/1 125/368/1 126/372/1 123/373/1
f 370/374/3 139/375/3 152/376/3 367/377/3
f 125/162/6 353/161/6 355/378/6 126/379/6
f 168/380/6 392/381/6 356/382/6 121/383/6
f 132/384/1 130/385/1 118/386/1 117/387/1
f 129/388/5 131/389/5 120/390/5 119/391/5
f 131/392/6 361/393/6 384/394/6 154/395/6
f 171/396/2 396/397/2 352/398/2 123/399/2
f 128/146/5 127/147/5 131/389/5 129/388/5
f 124/369/1 123/373/1 130/385/1 132/384/1
f 127/400/4 349/401/4 361/402/4 131/403/4
f 154/404/6 384/405/6 365/406/6 134/407/6
f 153/408/1 155/409/1 135/410/1 136/411/1
f 156/412/5 154/413/5 134/414/5 133/415/5
f 134/416/4 365/417/4 363/418/4 133/419/4
f 31/100/6 286/99/6 283/420/6 30/421/6
f 476/422/2 466/423/2 26/424/2 281/425/2
f 16/37/1 17/36/1 145/426/1 142/427/1
f 20/43/5 13/46/5 147/428/5 144/429/5
f 146/430/1 141/431/1 142/427/1 145/426/1
f 148/432/5 143/433/5 144/429/5 147/428/5
f 141/434/2 373/435/2 375/436/2 142/437/2
f 143/438/11 377/439/11 369/440/11 138/438/11
f 91/441/3 332/442/3 269/443/3 17/444/3
f 144/445/1 143/445/1 138/445/1 137/445/1
f 146/445/1 145/445/1 140/445/1 139/445/1
f 25/446/4 280/447/4 287/448/4 33/449/4
f 138/450/3 369/451/3 368/452/3 151/453/3
f 145/454/3 379/455/3 277/456/3 140/454/3
f 151/457/6 368/458/6 371/459/6 150/460/6
f 139/461/1 140/462/1 149/463/1 152/464/1
f 105/465/2 341/466/2 346/467/2 107/468/2
f 120/390/5 131/389/5 154/413/5 156/412/5
f 132/384/1 117/387/1 155/409/1 153/408/1
f 364/469/4 135/470/4 158/471/4 386/472/4
f 415/473/3 210/474/3 163/475/3 389/476/3
f 156/412/5 133/415/5 157/477/5 160/478/5
f 135/410/1 155/409/1 159/479/1 158/480/1
f 159/481/2 388/482/2 386/483/2 158/484/2
f 123/485/3 352/486/3 360/487/3 130/488/3
f 170/489/1 171/490/1 123/373/1 126/372/1
f 36/103/5 32/106/5 193/491/5 191/492/5
f 213/493/4 412/494/4 358/495/4 164/496/4
f 168/144/5 165/143/5 166/497/5 167/498/5
f 170/499/6 391/500/6 393/501/6 169/502/6
f 171/490/1 172/503/1 212/504/1 215/505/1
f 171/490/1 170/489/1 169/506/1 172/503/1
f 192/507/5 194/508/5 167/498/5 166/497/5
f 216/509/1 211/510/1 161/511/1 162/512/1
f 189/513/2 404/514/2 397/515/2 172/516/2
f 165/517/4 395/518/4 413/519/4 214/520/4
f 175/521/3 176/522/3 174/523/3 173/524/3
f 129/388/5 119/391/5 182/525/5 183/526/5
f 184/527/5 181/528/5 174/529/5 176/530/5
f 118/386/1 130/385/1 178/531/1 179/532/1
f 119/391/5 120/390/5 455/533/5 456/534/5
f 181/535/12 180/536/12 173/537/12 174/538/12
f 180/539/1 177/540/1 175/541/1 173/542/1
f 194/543/6 408/544/6 394/545/6 167/546/6
f 196/547/1 189/548/1 172/503/1 169/506/1
f 184/549/4 177/550/4 180/551/4 181/552/4
f 178/553/3 399/554/3 402/555/3 179/556/3
f 177/557/13 184/558/13 176/559/13 175/560/13
f 187/561/2 186/562/2 185/563/2 188/564/2
f 39/565/4 294/566/4 291/567/4 38/568/4
f 198/569/5 188/570/5 204/571/5 203/572/5
f 194/508/5 192/507/5 191/492/5 193/491/5
f 196/573/6 407/574/6 410/102/6 195/101/6
f 189/548/1 196/547/1 195/575/1 190/576/1
f 31/81/1 33/80/1 190/576/1 195/575/1
f 197/577/14 199/578/14 186/579/14 187/580/14
f 199/581/1 200/582/1 185/583/1 186/584/1
f 198/569/5 197/585/5 187/586/5 188/570/5
f 217/587/14 220/588/14 199/589/14 197/590/14
f 189/548/1 190/576/1 224/591/1 219/592/1
f 220/593/1 223/594/1 200/582/1 199/581/1
f 190/595/15 405/596/15 419/597/15 224/598/15
f 202/599/15 203/600/15 204/601/15 201/602/15
f 185/583/1 200/582/1 202/603/1 201/604/1
f 200/605/16 198/606/16 203/607/16 202/608/16
f 188/609/17 185/610/17 201/611/17 204/612/17
f 207/613/3 206/614/3 205/615/3 208/616/3
f 210/617/5 213/618/5 164/619/5 163/620/5
f 211/621/3 416/622/3 390/623/3 161/624/3
f 164/625/2 358/626/2 389/627/2 163/628/2
f 216/629/4 411/630/4 414/631/4 215/632/4
f 212/633/6 417/634/6 423/635/6 225/636/6
f 213/618/5 210/617/5 209/637/5 214/638/5
f 211/510/1 216/509/1 215/505/1 212/504/1
f 166/497/5 165/143/5 214/638/5 209/637/5
f 210/639/2 415/640/2 425/641/2 231/642/2
f 232/643/2 227/644/2 206/645/2 207/646/2
f 209/637/5 210/617/5 231/647/5 230/648/5
f 229/649/5 232/650/5 207/651/5 208/652/5
f 222/653/5 217/654/5 197/585/5 198/569/5
f 223/655/15 222/656/15 198/657/15 200/658/15
f 192/659/14 403/660/14 421/661/14 218/662/14
f 224/663/2 419/664/2 422/665/2 219/666/2
f 222/667/6 223/668/6 220/669/6 217/670/6
f 226/671/6 229/672/6 208/673/6 205/674/6
f 191/492/5 192/507/5 218/675/5 221/676/5
f 227/677/1 226/678/1 205/679/1 206/680/1
f 226/681/4 227/682/4 232/683/4 229/684/4
f 228/685/3 225/686/3 423/687/3 426/688/3
f 211/510/1 212/504/1 225/689/1 228/690/1
f 234/691/5 236/692/5 89/280/5 94/279/5
f 92/693/8 334/694/8 343/695/8 112/696/8
f 238/697/1 239/698/1 92/285/1 96/284/1
f 84/699/3 87/700/3 85/701/3 81/702/3
f 234/703/3 427/704/3 241/705/3 430/706/3 233/707/3
f 236/692/5 234/691/5 233/708/5 235/709/5
f 238/710/4 431/711/4 434/196/4 237/195/4
f 239/698/1 238/697/1 237/56/1 240/55/1
f 9/17/5 1/20/5 235/709/5 233/708/5
f 432/60/4 236/59/4 235/58/4 433/57/4
f 336/712/4 90/713/4 89/62/4 337/61/4
f 428/337/3 239/336/3 240/192/3 429/191/3 244/714/3
f 425/715/3 424/716/3 230/613/3 231/717/3
f 406/718/15 191/719/15 221/720/15 420/721/15
f 418/722/6 209/723/6 230/724/6 424/725/6
f 420/726/2 221/727/2 218/728/2 421/729/2
f 416/730/2 211/731/2 228/732/2 426/733/2
f 130/734/13 360/735/13 399/736/13 178/737/13
f 392/381/6 168/380/6 167/546/6 394/545/6
f 408/544/6 194/543/6 193/371/6 409/370/6
f 412/738/4 213/739/4 214/520/4 413/519/4
f 288/740/2 36/741/2 191/742/2 406/743/2
f 404/744/14 189/745/14 219/746/14 422/747/14
f 396/748/4 171/749/4 215/632/4 414/631/4
f 339/750/2 117/751/2 118/752/2 296/753/2
f 398/754/3 166/755/3 209/756/3 418/757/3
f 403/758/2 192/759/2 166/760/2 398/761/2
f 407/574/6 196/573/6 169/502/6 393/501/6
f 357/762/2 162/763/2 161/764/2 390/765/2
f 354/766/6 122/767/6 121/383/6 356/382/6
f 382/768/3 156/769/3 160/770/3 387/771/3
f 387/772/2 160/773/2 157/774/2 385/775/2
f 362/776/6 132/777/6 153/778/6 383/779/6
f 340/780/1 295/781/1 460/782/1 461/783/1
f 378/445/1 146/445/1 139/445/1 370/445/1
f 380/784/6 144/785/6 137/785/6 278/445/6
f 367/786/6 152/787/6 149/788/6 372/789/6
f 140/454/4 277/456/4 372/790/4 149/349/4
f 268/791/2 16/792/2 142/437/2 375/436/2
f 374/793/2 148/794/2 147/795/2 376/796/2
f 155/797/3 381/798/3 388/799/3 159/800/3
f 279/801/4 28/802/4 36/803/4 288/804/4
f 141/431/1 146/430/1 468/805/1 465/806/1
f 366/807/4 136/808/4 135/470/4 364/469/4
f 133/419/4 363/418/4 385/809/4 157/810/4
f 395/811/2 165/812/2 128/813/2 351/814/2
f 351/815/3 128/816/3 129/817/3 359/818/3
f 359/819/13 129/820/13 183/821/13 400/822/13
f 411/630/4 216/629/4 162/823/4 357/824/4
f 391/500/6 170/499/6 126/379/6 355/378/6
f 383/779/6 153/778/6 136/825/6 366/826/6
f 33/827/2 287/828/2 405/829/2 190/830/2
f 296/831/12 118/832/12 179/833/12 402/834/12
f 299/835/3 41/836/3 52/837/3 305/838/3
f 350/839/4 124/840/4 132/841/4 362/842/4
f 342/843/2 106/844/2 108/845/2 345/846/2
f 295/781/1 401/115/1 459/847/1 460/782/1
f 333/848/8 94/849/8 115/850/8 344/851/8
f 427/852/3 234/853/3 94/854/3 333/855/3
f 349/856/2 127/857/2 43/858/2 298/859/2
f 431/711/4 238/710/4 96/289/4 338/288/4
f 271/860/4 18/861/4 15/862/4 265/863/4
f 335/287/4 95/286/4 18/861/4 271/860/4
f 324/864/6 71/865/6 83/866/6 328/867/6
f 322/868/4 62/869/4 71/870/4 324/871/4
f 70/872/6 323/873/6 327/874/6 88/875/6
f 313/876/2 59/877/2 60/878/2 260/879/2
f 316/880/6 63/881/6 64/188/6 317/187/6
f 320/882/3 66/883/3 69/884/3 325/885/3
f 319/886/2 61/887/2 4/888/2 255/889/2
f 264/890/3 9/891/3 233/892/3 430/893/3
f 255/894/3 4/895/3 8/896/3 254/897/3
f 303/898/6 47/899/6 46/361/6 302/360/6
f 308/900/2 49/901/2 55/902/2 311/903/2
f 311/904/4 55/905/4 53/906/4 310/907/4
f 293/908/4 40/909/4 37/910/4 292/911/4
f 122/767/6 354/766/6 300/912/6 42/913/6
f 305/838/3 52/837/3 47/914/3 303/915/3
f 45/180/6 301/179/6 310/916/6 53/917/6
f 298/918/3 43/919/3 106/920/3 342/921/3
f 172/922/3 397/923/3 417/924/3 212/925/3
f 292/926/4 37/927/4 49/928/4 308/929/4
f 278/930/4 137/931/4 150/932/4 371/933/4
f 146/934/6 378/935/6 474/936/6 468/937/6
f 289/70/3 34/69/3 30/938/3 283/939/3
f 35/120/3 290/119/3 284/940/3 29/941/3
f 23/68/3 276/67/3 273/942/3 21/943/3
f 281/425/2 26/424/2 21/944/2 273/945/2
f 143/433/5 469/946/5 479/947/5 449/948/5
f 117/949/2 339/950/2 381/951/2 155/952/2
f 58/953/2 314/954/2 259/222/2 57/221/2
f 13/50/2 267/49/2 376/796/2 147/795/2
f 265/955/2 15/956/2 16/792/2 268/791/2
f 260/957/2 60/958/2 86/959/2 330/960/2
f 441/961/6 437/962/6 12/963/6 261/964/6
f 261/964/6 12/963/6 6/965/6 252/966/6
f 252/967/4 6/968/4 2/194/4 258/193/4
f 254/969/6 8/970/6 67/200/6 318/199/6
f 432/60/4 433/57/4 434/196/4 431/711/4
f 429/971/2 430/972/2 247/973/2 248/974/2
f 427/852/3 333/855/3 334/975/3 428/976/3
f 424/977/3 425/978/3 426/688/3 423/687/3
f 420/726/2 421/729/2 422/665/2 419/664/2
f 404/979/14 422/980/14 421/661/14 403/660/14
f 416/981/2 426/982/2 425/983/2 415/984/2
f 418/722/6 424/725/6 423/985/6 417/986/6
f 412/738/4 413/519/4 414/987/4 411/988/4
f 411/989/4 357/990/4 358/495/4 412/494/4
f 415/473/3 389/476/3 390/991/3 416/992/3
f 406/718/15 420/721/15 419/993/15 405/994/15
f 408/544/6 409/370/6 410/102/6 407/574/6
f 288/740/2 406/743/2 405/995/2 287/996/2
f 400/135/3 401/138/3 402/555/3 399/554/3
f 407/574/6 393/501/6 394/545/6 408/544/6
f 296/997/12 402/998/12 401/999/12 295/1000/12
f 396/1001/4 414/987/4 413/519/4 395/518/4
f 398/754/3 418/757/3 417/1002/3 397/1003/3
f 392/381/6 394/545/6 393/501/6 391/500/6
f 357/762/2 390/765/2 389/627/2 358/626/2
f 395/811/2 351/814/2 352/1004/2 396/1005/2
f 382/768/3 387/771/3 388/1006/3 381/1007/3
f 387/772/2 385/775/2 386/483/2 388/482/2
f 362/1008/6 383/1009/6 384/394/6 361/393/6
f 340/1010/2 382/1011/2 381/1012/2 339/1013/2
f 370/1014/3 367/1015/3 368/452/3 369/451/3
f 278/930/4 371/933/4 372/1016/4 277/1017/4
f 367/786/6 372/789/6 371/459/6 368/458/6
f 380/1018/3 278/1019/3 277/456/3 379/455/3
f 268/791/2 375/436/2 376/796/2 267/49/2
f 378/445/3 370/445/3 369/445/3 377/445/3
f 374/793/2 376/796/2 375/436/2 373/435/2
f 472/1020/18 377/1021/18 451/1022/18 481/1023/18
f 373/435/2 475/1024/2 478/1025/2 374/793/2
f 364/1026/4 386/1027/4 385/809/4 363/418/4
f 366/1028/4 364/1026/4 363/418/4 365/417/4
f 350/1029/4 362/1030/4 361/402/4 349/401/4
f 351/815/3 359/818/3 360/1031/3 352/1032/3
f 359/819/13 400/822/13 399/1033/13 360/1034/13
f 391/500/6 355/378/6 356/382/6 392/381/6
f 354/766/6 356/382/6 355/378/6 353/161/6
f 383/779/6 366/826/6 365/406/6 384/405/6
f 286/99/6 410/102/6 409/370/6 285/107/6
f 339/750/2 296/753/2 295/1035/2 340/1036/2
f 353/161/6 299/164/6 300/912/6 354/766/6
f 344/344/3 347/347/3 348/354/3 343/353/3
f 342/843/2 345/846/2 346/467/2 341/466/2
f 294/1037/4 346/1038/4 345/342/4 293/341/4
f 333/848/8 344/851/8 343/1039/8 334/1040/8
f 332/1041/7 348/1042/7 347/334/7 331/333/7
f 298/918/3 342/921/3 341/1043/3 297/1044/3
f 336/712/4 337/61/4 338/288/4 335/287/4
f 264/890/3 430/893/3 429/1045/3 263/1046/3
f 335/1047/4 271/1048/4 272/65/4 336/64/4
f 324/1049/6 328/1050/6 327/874/6 323/873/6
f 320/882/3 325/885/3 326/1051/3 319/1052/3
f 322/1053/4 324/1054/4 323/227/4 321/226/4
f 260/957/2 330/960/2 329/1055/2 259/1056/2
f 325/169/3 313/172/3 314/219/3 326/218/3
f 316/880/6 317/187/6 318/199/6 315/198/6
f 319/1057/2 255/1058/2 256/7/2 320/6/2
f 439/1059/2 322/1060/2 321/29/2 440/28/2
f 254/969/6 318/199/6 317/187/6 253/186/6
f 302/360/6 309/363/6 310/916/6 301/179/6
f 308/900/2 311/903/2 312/1061/2 307/1062/2
f 311/904/4 310/907/4 309/175/4 312/174/4
f 292/926/4 308/929/4 307/1063/4 291/1064/4
f 299/835/3 305/838/3 306/141/3 300/140/3
f 305/838/3 303/915/3 304/149/3 306/141/3
f 303/898/6 302/360/6 301/179/6 304/178/6
f 349/856/2 298/859/2 297/1065/2 350/1066/2
f 403/758/2 398/761/2 397/1067/2 404/1068/2
f 293/908/4 292/911/4 291/1069/4 294/1070/4
f 276/67/3 289/70/3 290/119/3 275/75/3
f 279/801/4 288/804/4 287/1071/4 280/1072/4
f 289/70/3 283/939/3 284/940/3 290/119/3
f 285/107/6 284/110/6 283/420/6 286/99/6
f 270/1073/6 380/1074/6 379/1075/6 269/1076/6
f 281/425/2 273/945/2 274/265/2 282/85/2
f 275/75/3 274/78/3 273/942/3 276/67/3
f 431/711/4 338/288/4 337/61/4 432/60/4
f 258/193/4 434/196/4 433/57/4 257/15/4
f 271/860/4 265/863/4 266/41/4 272/40/4
f 265/955/2 268/791/2 267/49/2 266/48/2
f 313/876/2 260/879/2 259/1077/2 314/1078/2
f 441/961/6 261/964/6 262/33/6 442/32/6
f 252/967/4 258/193/4 257/15/4 251/14/4
f 261/964/6 252/966/6 251/1079/6 262/33/6
f 255/894/3 254/897/3 253/11/3 256/10/3
f 11/34/6 262/33/6 251/1079/6 5/1080/6
f 86/1081/4 88/1082/4 327/1083/4 328/1084/4 83/1085/4 82/1086/4 329/1087/4 330/1088/4
f 249/1089/3 243/1090/3 245/1091/3 250/1092/3
f 427/1093/6 428/1094/6 249/1095/6 250/1096/6
f 430/1097/19 241/1098/19 246/1099/19 247/1100/19
f 428/1101/20 244/1102/20 242/1103/20 243/1104/20 249/1105/20
f 246/1099/19 241/1098/19 245/1106/19
f 245/1106/19 241/1098/19 427/1107/19 250/1108/19
f 246/1109/21 245/1110/21 445/1111/21 444/1112/21
f 246/1113/3 242/1114/3 248/1115/3 247/1116/3
f 242/1103/20 244/1102/20 429/1117/20 248/1118/20
f 315/198/6 441/961/6 442/32/6 316/880/6
f 263/1119/2 439/1059/2 440/28/2 264/1120/2
f 315/198/6 68/197/6 437/962/6 441/961/6
f 263/1121/2 10/1122/2 436/270/2 439/269/2
f 65/202/5 63/201/5 438/184/5 435/183/5
f 63/881/6 316/880/6 442/32/6 438/31/6
f 9/1123/2 264/1120/2 440/28/2 435/27/2
f 68/204/1 62/203/1 436/2/1 437/1/1
f 445/1124/3 446/1125/3 443/1126/3 444/1127/3
f 243/1128/22 242/1129/22 443/1130/22 446/1131/22
f 242/1132/23 246/1133/23 444/1134/23 443/1135/23
f 245/1136/24 243/1137/24 446/1138/24 445/1139/24
f 451/1140/6 449/1141/6 479/1142/6 481/1143/6
f 453/1144/6 447/1145/6 448/1146/6 454/1147/6
f 144/1148/3 380/1149/3 454/1150/3 448/1151/3
f 28/1152/3 279/1153/3 452/1154/3 450/1155/3
f 380/1156/25 270/1157/25 453/1158/25 454/1159/25
f 476/1160/2 281/425/2 282/85/2 477/1161/2
f 20/43/5 144/429/5 448/1162/5 447/1163/5
f 270/1164/4 20/1165/4 447/1166/4 453/1167/4
f 456/1168/12 460/1169/12 459/1170/12 458/1171/12
f 461/1172/2 455/1173/2 457/1174/2 462/1175/2
f 455/1176/2 461/1177/2 460/1178/2 456/1179/2
f 382/1180/1 340/780/1 461/783/1 462/1181/1
f 182/525/5 119/391/5 456/534/5 458/1182/5
f 156/1183/26 382/1184/26 462/1185/26 457/1186/26
f 120/390/5 156/412/5 457/1187/5 455/533/5
f 401/138/3 182/137/3 458/1188/3 459/1189/3
f 377/1190/6 472/1191/6 474/1192/6 378/1193/6
f 482/1194/6 480/1195/6 450/1196/6 452/1197/6
f 471/1198/6 279/1199/6 280/1200/6 473/1201/6
f 279/1202/18 471/1203/18 482/1204/18 452/1205/18
f 470/1206/5 28/71/5 450/1207/5 480/1208/5
f 466/1209/1 467/1210/1 25/52/1 26/51/1
f 470/1211/5 463/1212/5 27/72/5 28/71/5
f 373/435/2 141/434/2 465/1213/2 475/1024/2
f 148/794/2 374/793/2 478/1025/2 464/1214/2
f 472/1020/18 481/1023/18 482/1204/18 471/1203/18
f 480/1215/6 482/1216/6 481/1217/6 479/1218/6
f 476/1160/2 477/1161/2 478/1025/2 475/1024/2
f 471/1219/6 473/1220/6 474/1221/6 472/1222/6
f 470/1206/5 480/1208/5 479/947/5 469/946/5
f 473/88/6 467/87/6 468/937/6 474/936/6
f 466/423/2 476/422/2 475/1024/2 465/1213/2
f 477/84/2 463/83/2 464/1214/2 478/1025/2
f 467/1210/1 466/1209/1 465/806/1 468/805/1
f 463/1212/5 470/1211/5 469/946/5 464/1223/5
f 143/433/5 148/432/5 464/1223/5 469/946/5
o Cube.001
v -3.885104 1.919372 10.005483
v -3.885104 2.078418 10.005483
v -3.885104 1.919372 -10.411847
v -3.885104 2.078418 -10.411847
v 4.088286 1.919372 10.005483
v 4.088286 2.078418 10.005483
v 4.088286 1.919372 -10.411847
v 4.088286 2.078418 -10.411847
vn -1.0000 -0.0000 -0.0000
vn -0.0000 -0.0000 -1.0000
vn 1.0000 -0.0000 -0.0000
vn -0.0000 -0.0000 1.0000
vn -0.0000 -1.0000 -0.0000
vn -0.0000 1.0000 -0.0000
vt 0.375000 0.000000
vt 0.625000 0.000000
vt 0.625000 0.250000
vt 0.375000 0.250000
vt 0.625000 0.500000
vt 0.375000 0.500000
vt 0.625000 0.750000
vt 0.375000 0.750000
vt 0.625000 1.000000
vt 0.375000 1.000000
vt 0.520965 0.567360
vt 0.894446 0.567360
vt 0.894446 0.948405
vt 0.520965 0.948405
vt 0.442772 -0.227797
vt 1.057228 -0.227797
vt 1.057228 1.477797
vt 0.442772 1.477797
s 0
usemtl Material.001
f 483/1224/27 484/1225/27 486/1226/27 485/1227/27
f 485/1227/28 486/1226/28 490/1228/28 489/1229/28
f 489/1229/29 490/1228/29 488/1230/29 487/1231/29
f 487/1231/30 488/1230/30 484/1232/30 483/1233/30
f 485/1234/31 489/1235/31 487/1236/31 483/1237/31
f 490/1238/32 486/1239/32 484/1240/32 488/1241/32
o Plane
v -4.769750 0.000000 12.822694
v 4.769750 0.000000 12.822694
v -4.769750 0.000000 -12.822694
v 4.769750 0.000000 -12.822694
vn -0.0000 1.0000 -0.0000
vt 0.000000 0.000000
vt 1.000000 0.000000
vt 1.000000 1.000000
vt 0.000000 1.000000
s 0
usemtl Material.003
f 491/1242/33 492/1243/33 494/1244/33 493/1245/33
