# Blender 4.2.10 LTS
# www.blender.org
mtllib kitchen_cupboard.mtl
o Cube.004
v -1.000000 4.000000 2.000000
v -1.000000 4.200000 2.000000
v -1.000000 4.000000 -2.000000
v -1.000000 4.200000 -2.000000
v 1.000000 4.000000 2.000000
v 1.000000 4.200000 2.000000
v 1.000000 4.000000 -2.000000
v 1.000000 4.200000 -2.000000
v -1.000000 0.000000 0.000000
v -1.000000 4.000000 0.000000
v -1.000000 0.000000 -2.000000
v -1.000000 4.000000 -2.000000
v 1.000000 0.166933 -0.142534
v 1.000000 3.833066 -0.142534
v 1.000000 0.166933 -1.857466
v 1.000000 3.833066 -1.857466
v 1.000000 4.000000 -2.000000
v 1.000000 0.000000 -2.000000
v 1.000000 0.000000 0.000000
v 1.000000 4.000000 0.000000
v 1.111571 3.866621 -1.933310
v 1.111571 0.133379 -1.933310
v 1.111571 0.133379 -0.066690
v 1.111571 3.866621 -0.066690
v 1.111571 3.710820 -1.800282
v 1.111571 0.289180 -1.800282
v 1.111571 0.289180 -0.199718
v 1.111571 3.710820 -0.199718
v 1.176785 1.650811 -0.284735
v 1.176785 2.343923 -0.284735
v 1.176785 1.650811 -0.415265
v 1.176785 2.343923 -0.415265
v 1.321375 1.666951 -0.301051
v 1.321375 2.327782 -0.301051
v 1.321375 1.666951 -0.398949
v 1.321375 2.327782 -0.398949
v 1.037835 2.327782 -0.398949
v 1.037835 2.327782 -0.301051
v 1.037835 1.666951 -0.301051
v 1.037835 1.666951 -0.398949
v 1.176153 2.161325 -0.275598
v 1.176153 1.833409 -0.275598
v 1.176153 1.833409 -0.424403
v 1.176153 2.161325 -0.424403
v 1.337692 1.841651 -0.415265
v 1.337692 2.153082 -0.415265
v 1.337692 1.841651 -0.284735
v 1.337692 2.153082 -0.284735
v 1.037835 2.230940 -0.301051
v 1.037835 2.230940 -0.398949
v 1.037835 1.763793 -0.398949
v 1.037835 1.763793 -0.301051
v 1.176785 1.626601 -0.350000
v 1.089448 1.653576 -0.287530
v 1.176785 2.368133 -0.350000
v 1.027851 2.279361 -0.409676
v 1.266514 1.653576 -0.412470
v 1.266514 2.341157 -0.412470
v 1.027851 2.279361 -0.290325
v 1.332102 1.656341 -0.350000
v 1.332102 2.338393 -0.350000
v 1.027851 2.338393 -0.350000
v 1.266514 1.653576 -0.287530
v 1.266514 2.341157 -0.287530
v 1.088700 1.782715 -0.286551
v 1.027851 1.715372 -0.409676
v 1.027851 1.774404 -0.350000
v 1.027851 1.656341 -0.350000
v 1.089448 2.341157 -0.412470
v 1.027851 2.220330 -0.350000
v 1.027851 1.715372 -0.290325
v 1.088700 2.212019 -0.413449
v 1.337692 1.997367 -0.284735
v 1.269194 2.153965 -0.258602
v 1.200697 1.997367 -0.282777
v 1.269194 1.840768 -0.258602
v 1.337692 1.997367 -0.415265
v 1.362166 2.153082 -0.350000
v 1.362166 1.841651 -0.350000
v 1.200697 1.997367 -0.417223
v 1.269194 2.153965 -0.441399
v 1.269194 1.840768 -0.441399
v 1.150815 2.129293 -0.350000
v 1.150815 1.865440 -0.350000
v 1.334897 2.269554 -0.287530
v 1.176717 2.273815 -0.258602
v 1.176717 1.720918 -0.258602
v 1.176717 1.720918 -0.441399
v 1.176717 2.273815 -0.441399
v 1.334897 1.725179 -0.287530
v 1.334897 1.725179 -0.412470
v 1.334897 2.269554 -0.412470
v 1.088700 2.212019 -0.286551
v 1.089448 1.653576 -0.412470
v 1.088700 1.782715 -0.413449
v 1.089448 2.341157 -0.287530
v 1.268084 1.723389 -0.260545
v 1.358389 1.724133 -0.350000
v 1.006897 1.715372 -0.350000
v 1.088446 1.716437 -0.263793
v 1.267572 1.630337 -0.350000
v 1.267572 2.364397 -0.350000
v 1.268084 1.723389 -0.439456
v 1.358389 2.270600 -0.350000
v 1.268084 2.271344 -0.439456
v 1.088446 2.278296 -0.436208
v 1.271127 1.997367 -0.259771
v 1.362166 1.997367 -0.350000
v 1.271127 1.997367 -0.440229
v 1.175025 1.997367 -0.350000
v 1.268084 2.271344 -0.260545
v 1.006897 2.279361 -0.350000
v 1.085710 2.187053 -0.350000
v 1.088446 1.716437 -0.436208
v 1.088463 2.364397 -0.350000
v 1.088446 2.278296 -0.263793
v 1.088463 1.630337 -0.350000
v 1.085710 1.807681 -0.350000
v -1.000000 0.000000 2.000000
v -1.000000 4.000000 2.000000
v -1.000000 0.000000 0.000000
v -1.000000 4.000000 0.000000
v 1.000000 0.166933 1.857466
v 1.000000 3.833066 1.857466
v 1.000000 0.166933 0.142534
v 1.000000 3.833066 0.142534
v 1.000000 4.000000 0.000000
v 1.000000 0.000000 0.000000
v 1.000000 0.000000 2.000000
v 1.000000 4.000000 2.000000
v 1.111571 3.866621 0.066690
v 1.111571 0.133379 0.066690
v 1.111571 0.133379 1.933310
v 1.111571 3.866621 1.933310
v 1.111571 3.710820 0.199718
v 1.111571 0.289180 0.199718
v 1.111571 0.289180 1.800282
v 1.111571 3.710820 1.800282
v 1.176785 1.650811 0.415265
v 1.176785 2.343923 0.415265
v 1.176785 1.650811 0.284735
v 1.176785 2.343923 0.284735
v 1.321375 1.666951 0.398949
v 1.321375 2.327782 0.398949
v 1.321375 1.666951 0.301051
v 1.321375 2.327782 0.301051
v 1.037835 2.327782 0.301051
v 1.037835 2.327782 0.398949
v 1.037835 1.666951 0.398949
v 1.037835 1.666951 0.301051
v 1.176153 2.161325 0.424402
v 1.176153 1.833409 0.424402
v 1.176153 1.833409 0.275598
v 1.176153 2.161325 0.275598
v 1.337692 1.841651 0.284735
v 1.337692 2.153082 0.284735
v 1.337692 1.841651 0.415265
v 1.337692 2.153082 0.415265
v 1.037835 2.230940 0.398949
v 1.037835 2.230940 0.301051
v 1.037835 1.763793 0.301051
v 1.037835 1.763793 0.398949
v 1.176785 1.626601 0.350000
v 1.089448 1.653576 0.412470
v 1.176785 2.368133 0.350000
v 1.027851 2.279361 0.290325
v 1.266514 1.653576 0.287530
v 1.266514 2.341157 0.287530
v 1.027851 2.279361 0.409675
v 1.332102 1.656341 0.350000
v 1.332102 2.338393 0.350000
v 1.027851 2.338393 0.350000
v 1.266514 1.653576 0.412470
v 1.266514 2.341157 0.412470
v 1.088700 1.782715 0.413449
v 1.027851 1.715372 0.290325
v 1.027851 1.774404 0.350000
v 1.027851 1.656341 0.350000
v 1.089448 2.341157 0.287530
v 1.027851 2.220330 0.350000
v 1.027851 1.715372 0.409675
v 1.088700 2.212019 0.286551
v 1.337692 1.997367 0.415265
v 1.269194 2.153965 0.441398
v 1.200697 1.997367 0.417223
v 1.269194 1.840768 0.441398
v 1.337692 1.997367 0.284735
v 1.362166 2.153082 0.350000
v 1.362166 1.841651 0.350000
v 1.200697 1.997367 0.282777
v 1.269194 2.153965 0.258602
v 1.269194 1.840768 0.258602
v 1.150815 2.129293 0.350000
v 1.150815 1.865440 0.350000
v 1.334897 2.269554 0.412470
v 1.176717 2.273815 0.441398
v 1.176717 1.720918 0.441398
v 1.176717 1.720918 0.258602
v 1.176717 2.273815 0.258602
v 1.334897 1.725179 0.412470
v 1.334897 1.725179 0.287530
v 1.334897 2.269554 0.287530
v 1.088700 2.212019 0.413449
v 1.089448 1.653576 0.287530
v 1.088700 1.782715 0.286551
v 1.089448 2.341157 0.412470
v 1.268084 1.723389 0.439456
v 1.358389 1.724133 0.350000
v 1.006897 1.715372 0.350000
v 1.088446 1.716437 0.436207
v 1.267572 1.630337 0.350000
v 1.267572 2.364397 0.350000
v 1.268084 1.723389 0.260544
v 1.358389 2.270600 0.350000
v 1.268084 2.271344 0.260544
v 1.088446 2.278296 0.263793
v 1.271127 1.997367 0.440229
v 1.362166 1.997367 0.350000
v 1.271127 1.997367 0.259771
v 1.175025 1.997367 0.350000
v 1.268084 2.271344 0.439456
v 1.006897 2.279361 0.350000
v 1.085710 2.187053 0.350000
v 1.088446 1.716437 0.263793
v 1.088463 2.364397 0.350000
v 1.088446 2.278296 0.436207
v 1.088463 1.630337 0.350000
v 1.085710 1.807681 0.350000
vn -1.0000 -0.0000 -0.0000
vn -0.0000 -0.0000 -1.0000
vn 1.0000 -0.0000 -0.0000
vn -0.0000 -0.0000 1.0000
vn -0.0000 -1.0000 -0.0000
vn -0.0000 1.0000 -0.0000
vn 0.7670 0.6416 -0.0000
vn -0.4561 -0.0000 0.8899
vn -0.7386 -0.6741 -0.0000
vn 0.7670 -0.6416 -0.0000
vn 0.5131 -0.0000 -0.8583
vn -0.4561 -0.0000 -0.8899
vn -0.7386 0.6741 -0.0000
vn 0.5131 -0.0000 0.8583
vn 0.3349 -0.3199 0.8863
vn 0.3657 -0.0250 0.9304
vn -0.0846 0.0653 0.9943
vn 0.0347 -0.3550 0.9342
vn 0.8970 -0.3165 -0.3086
vn 0.9357 -0.0305 -0.3516
vn 0.9357 -0.0305 0.3516
vn 0.8970 -0.3165 0.3086
vn -0.9121 -0.2914 0.2883
vn -0.9121 0.2914 0.2883
vn -0.9121 0.2914 -0.2883
vn -0.9121 -0.2914 -0.2883
vn -0.0391 -0.3512 0.9355
vn -0.1558 0.2142 0.9643
vn -0.3760 0.2904 0.8799
vn -0.3496 -0.3085 0.8846
vn 0.0391 -0.9366 -0.3482
vn 0.3293 -0.8932 -0.3062
vn 0.3293 -0.8932 0.3062
vn 0.0391 -0.9366 0.3482
vn 0.3293 0.8932 -0.3062
vn 0.0391 0.9366 -0.3482
vn 0.0391 0.9366 0.3482
vn 0.3293 0.8932 0.3062
vn 0.0347 -0.3550 -0.9342
vn -0.0846 0.0653 -0.9943
vn 0.3657 -0.0250 -0.9304
vn 0.3349 -0.3199 -0.8863
vn 0.9357 0.0305 -0.3516
vn 0.8970 0.3165 -0.3086
vn 0.8970 0.3165 0.3086
vn 0.9357 0.0305 0.3516
vn -0.0846 -0.0653 -0.9943
vn 0.0347 0.3550 -0.9342
vn 0.3349 0.3199 -0.8863
vn 0.3657 0.0250 -0.9304
vn -0.0391 0.3512 -0.9355
vn -0.1558 -0.2142 -0.9643
vn -0.3760 -0.2904 -0.8799
vn -0.3496 0.3085 -0.8846
vn 0.3538 -0.0013 0.9353
vn -0.2394 -0.0450 0.9699
vn -0.2394 0.0450 0.9699
vn 0.3538 0.0013 0.9353
vn 0.9363 -0.0000 -0.3511
vn 0.9363 -0.0000 0.3511
vn -0.2394 -0.0450 -0.9699
vn 0.3538 -0.0013 -0.9353
vn 0.3538 0.0013 -0.9353
vn -0.2394 0.0450 -0.9699
vn -0.9166 -0.1599 0.3663
vn -0.9166 -0.1599 -0.3663
vn -0.9166 0.1599 -0.3663
vn -0.9166 0.1599 0.3663
vn 0.3657 0.0250 0.9304
vn 0.3349 0.3199 0.8863
vn 0.0347 0.3550 0.9342
vn -0.0846 -0.0653 0.9943
vn -0.5471 -0.7279 -0.4134
vn -0.5471 -0.7279 0.4134
vn -0.4445 -0.8380 0.3166
vn -0.4445 -0.8380 -0.3166
vn -0.1558 0.2142 -0.9643
vn -0.0391 -0.3512 -0.9355
vn -0.3496 -0.3085 -0.8846
vn -0.3760 0.2904 -0.8799
vn -0.0402 0.9366 0.3482
vn -0.0402 0.9366 -0.3482
vn -0.3478 0.8870 -0.3037
vn -0.3478 0.8870 0.3037
vn -0.1558 -0.2142 0.9643
vn -0.0391 0.3512 0.9355
vn -0.3496 0.3085 0.8846
vn -0.3760 -0.2904 0.8799
vn -0.0402 -0.9366 -0.3482
vn -0.0402 -0.9366 0.3482
vn -0.3478 -0.8870 0.3037
vn -0.3478 -0.8870 -0.3037
vn -0.5471 0.7279 0.4134
vn -0.5471 0.7279 -0.4134
vn -0.4445 0.8380 -0.3166
vn -0.4445 0.8380 0.3166
vt 0.415181 0.050000
vt 0.365181 0.050000
vt 0.365181 0.000000
vt 0.415181 0.000000
vt 0.365181 0.300000
vt 0.365181 0.250000
vt 0.415180 0.250000
vt 0.415180 0.300000
vt 0.415181 0.100000
vt 0.365181 0.100000
vt 0.365181 0.050000
vt 0.415181 0.050000
vt 0.365181 0.200000
vt 0.415180 0.200000
vt 0.415181 0.100000
vt 0.415181 0.150000
vt 0.365181 0.150000
vt 0.365181 0.100000
vt 0.415181 0.150000
vt 0.415181 0.200000
vt 0.365181 0.200000
vt 0.365181 0.150000
vt 0.211133 1.000000
vt 0.211133 0.000000
vt 0.236133 0.000000
vt 0.236133 1.000000
vt 0.158350 1.000000
vt 0.158350 0.000000
vt 0.208349 0.000000
vt 0.208349 1.000000
vt 0.311133 0.916533
vt 0.311133 0.000000
vt 0.332570 0.000000
vt 0.332570 0.916533
vt 0.002784 1.000000
vt 0.002784 0.000000
vt 0.052783 0.000000
vt 0.052783 1.000000
vt 0.390181 0.300000
vt 0.390181 0.350000
vt 0.365181 0.350000
vt 0.365181 0.300000
vt 0.390181 0.400000
vt 0.365181 0.400000
vt 0.261133 0.000000
vt 0.260300 0.033345
vt 0.236967 0.033345
vt 0.356800 0.000000
vt 0.356800 0.916533
vt 0.354007 0.885972
vt 0.354007 0.030562
vt 0.390181 0.300000
vt 0.411617 0.300000
vt 0.410902 0.330562
vt 0.390895 0.330562
vt 0.261133 1.000000
vt 0.236967 0.966655
vt 0.260300 0.966655
vt 0.238630 0.072295
vt 0.238630 0.927705
vt 0.258637 0.927705
vt 0.258637 0.072295
vt 0.211133 0.033345
vt 0.211133 0.966655
vt 0.359594 0.916533
vt 0.359594 0.000000
vt 0.362387 0.030562
vt 0.362387 0.885972
vt 0.411617 0.361123
vt 0.390181 0.361123
vt 0.390895 0.330562
vt 0.410902 0.330562
vt 0.000000 0.966655
vt 0.000000 0.033345
vt 0.423340 0.175295
vt 0.423001 0.160738
vt 0.424670 0.161186
vt 0.424711 0.178639
vt 0.422931 0.131620
vt 0.424642 0.131841
vt 0.426969 0.133681
vt 0.426954 0.161804
vt 0.426954 0.179330
vt 0.430886 0.167860
vt 0.430717 0.153303
vt 0.431498 0.153565
vt 0.431498 0.170513
vt 0.430682 0.124185
vt 0.431498 0.124185
vt 0.432314 0.124185
vt 0.432279 0.153303
vt 0.432110 0.167860
vt 0.413477 0.326855
vt 0.413477 0.314749
vt 0.414223 0.314757
vt 0.414060 0.329514
vt 0.413745 0.302646
vt 0.414387 0.300000
vt 0.414969 0.302659
vt 0.414969 0.314765
vt 0.414701 0.326868
vt 0.429161 0.162924
vt 0.429138 0.178639
vt 0.429156 0.146355
vt 0.430429 0.151085
vt 0.430678 0.163190
vt 0.430429 0.175295
vt 0.418908 0.379330
vt 0.421151 0.378639
vt 0.421173 0.384449
vt 0.418903 0.385383
vt 0.422521 0.375295
vt 0.422786 0.377948
vt 0.424689 0.184449
vt 0.423076 0.177948
vt 0.426959 0.185383
vt 0.422521 0.210088
vt 0.421151 0.206744
vt 0.421173 0.200934
vt 0.422786 0.207435
vt 0.418908 0.206053
vt 0.418903 0.200000
vt 0.424689 0.000934
vt 0.426959 0.000000
vt 0.426954 0.006053
vt 0.424711 0.006744
vt 0.423076 0.007435
vt 0.423340 0.010088
vt 0.418908 0.361804
vt 0.421192 0.361186
vt 0.418893 0.333681
vt 0.421220 0.331841
vt 0.422930 0.331620
vt 0.422860 0.360738
vt 0.430682 0.046328
vt 0.430717 0.017210
vt 0.431498 0.016948
vt 0.431498 0.046328
vt 0.430886 0.002653
vt 0.431498 0.000000
vt 0.432110 0.002653
vt 0.432279 0.017210
vt 0.432314 0.046328
vt 0.418893 0.251702
vt 0.418908 0.223579
vt 0.421192 0.224197
vt 0.421220 0.253542
vt 0.422860 0.224645
vt 0.422930 0.253763
vt 0.416701 0.222459
vt 0.416724 0.206744
vt 0.416706 0.239028
vt 0.415433 0.234298
vt 0.415184 0.222193
vt 0.415433 0.210088
vt 0.422931 0.053763
vt 0.424642 0.053542
vt 0.424594 0.092692
vt 0.422931 0.092692
vt 0.426969 0.051702
vt 0.426356 0.092692
vt 0.431498 0.085257
vt 0.430682 0.085257
vt 0.432314 0.085257
vt 0.421268 0.292692
vt 0.419506 0.292692
vt 0.422930 0.292692
vt 0.411617 0.300000
vt 0.412547 0.308008
vt 0.412547 0.340990
vt 0.411707 0.340990
vt 0.413477 0.300000
vt 0.413388 0.340990
vt 0.413477 0.381979
vt 0.412547 0.373971
vt 0.411617 0.381979
vt 0.423001 0.024645
vt 0.424670 0.024197
vt 0.426954 0.023579
vt 0.413377 0.408847
vt 0.413109 0.396744
vt 0.413855 0.396736
vt 0.414018 0.411493
vt 0.413109 0.384638
vt 0.413692 0.381979
vt 0.414333 0.384625
vt 0.414601 0.396728
vt 0.414601 0.408834
vt 0.418254 0.259710
vt 0.416626 0.245270
vt 0.427608 0.059710
vt 0.429156 0.039028
vt 0.429236 0.045270
vt 0.430429 0.034298
vt 0.430682 0.036951
vt 0.415180 0.236951
vt 0.416701 0.362924
vt 0.416706 0.346355
vt 0.416724 0.378639
vt 0.415433 0.375295
vt 0.415184 0.363190
vt 0.415433 0.351085
vt 0.429167 0.000934
vt 0.429138 0.006744
vt 0.416695 0.200934
vt 0.415180 0.207435
vt 0.430682 0.007435
vt 0.430429 0.010088
vt 0.429161 0.022459
vt 0.430678 0.022193
vt 0.416695 0.384449
vt 0.429167 0.184449
vt 0.430682 0.177948
vt 0.415180 0.377948
vt 0.427608 0.125673
vt 0.429236 0.140113
vt 0.418254 0.325673
vt 0.416626 0.340113
vt 0.415180 0.348432
vt 0.430682 0.148432
vt 0.286133 0.000000
vt 0.286133 1.000000
vt 0.052783 1.000000
vt 0.052783 0.000000
vt 0.102782 0.000000
vt 0.102782 1.000000
vt 0.354007 0.000000
vt 0.354007 0.916533
vt 0.108351 1.000000
vt 0.108351 0.000000
vt 0.158350 0.000000
vt 0.158350 1.000000
vt 0.440180 0.385383
vt 0.440180 0.435383
vt 0.415180 0.435383
vt 0.415180 0.385383
vt 0.390181 0.400000
vt 0.390181 0.450000
vt 0.365181 0.450000
vt 0.365181 0.400000
vt 0.311133 0.000000
vt 0.310300 0.033345
vt 0.286967 0.033345
vt 0.359594 0.000000
vt 0.359594 0.916533
vt 0.356800 0.885972
vt 0.356800 0.030562
vt 0.410902 0.391685
vt 0.390895 0.391685
vt 0.311133 1.000000
vt 0.286967 0.966655
vt 0.310300 0.966655
vt 0.288630 0.072295
vt 0.288630 0.927705
vt 0.308637 0.927705
vt 0.308637 0.072295
vt 0.105567 0.033345
vt 0.105567 0.966655
vt 0.362387 0.916533
vt 0.362387 0.000000
vt 0.365181 0.030562
vt 0.365181 0.885972
vt 0.411617 0.422247
vt 0.390181 0.422247
vt 0.390895 0.391685
vt 0.410902 0.391685
vt 0.105567 0.966655
vt 0.105567 0.033345
vt 0.415590 0.175295
vt 0.415251 0.160738
vt 0.416919 0.161186
vt 0.416960 0.178639
vt 0.415181 0.131620
vt 0.416891 0.131841
vt 0.419218 0.133681
vt 0.419203 0.161804
vt 0.419203 0.179330
vt 0.430885 0.367860
vt 0.430716 0.353303
vt 0.431497 0.353565
vt 0.431497 0.370513
vt 0.430681 0.324185
vt 0.431497 0.324185
vt 0.432313 0.324185
vt 0.432278 0.353303
vt 0.432109 0.367860
vt 0.413477 0.356369
vt 0.413477 0.344263
vt 0.414223 0.344271
vt 0.414060 0.359028
vt 0.413745 0.332160
vt 0.414387 0.329514
vt 0.414969 0.332173
vt 0.414969 0.344279
vt 0.414701 0.356382
vt 0.421410 0.162924
vt 0.421387 0.178639
vt 0.421405 0.146355
vt 0.422678 0.151085
vt 0.422927 0.163190
vt 0.422678 0.175295
vt 0.426659 0.379330
vt 0.428902 0.378639
vt 0.428923 0.384449
vt 0.426654 0.385383
vt 0.430272 0.375295
vt 0.430537 0.377948
vt 0.416938 0.184449
vt 0.415325 0.177948
vt 0.419208 0.185383
vt 0.430272 0.210088
vt 0.428902 0.206744
vt 0.428923 0.200934
vt 0.430537 0.207435
vt 0.426659 0.206053
vt 0.426654 0.200000
vt 0.416938 0.000934
vt 0.419208 0.000000
vt 0.419203 0.006053
vt 0.416960 0.006744
vt 0.415325 0.007435
vt 0.415590 0.010088
vt 0.426659 0.361804
vt 0.428943 0.361186
vt 0.426644 0.333681
vt 0.428971 0.331841
vt 0.430681 0.331620
vt 0.430611 0.360738
vt 0.430681 0.246328
vt 0.430716 0.217210
vt 0.431497 0.216948
vt 0.431497 0.246328
vt 0.430885 0.202653
vt 0.431497 0.200000
vt 0.432109 0.202653
vt 0.432278 0.217210
vt 0.432313 0.246328
vt 0.426644 0.251702
vt 0.426659 0.223579
vt 0.428943 0.224197
vt 0.428971 0.253542
vt 0.430611 0.224645
vt 0.430681 0.253763
vt 0.424452 0.222459
vt 0.424475 0.206744
vt 0.424456 0.239028
vt 0.423184 0.234298
vt 0.422935 0.222193
vt 0.423184 0.210088
vt 0.415181 0.053763
vt 0.416891 0.053542
vt 0.416843 0.092692
vt 0.415181 0.092692
vt 0.419218 0.051702
vt 0.418605 0.092692
vt 0.431497 0.285257
vt 0.430681 0.285257
vt 0.432313 0.285257
vt 0.429019 0.292692
vt 0.427257 0.292692
vt 0.430681 0.292692
vt 0.432314 0.000000
vt 0.433244 0.008008
vt 0.433244 0.040989
vt 0.432404 0.040989
vt 0.434174 0.000000
vt 0.434084 0.040989
vt 0.434174 0.081979
vt 0.433244 0.073971
vt 0.432314 0.081979
vt 0.415251 0.024645
vt 0.416919 0.024197
vt 0.419203 0.023579
vt 0.411885 0.408847
vt 0.411617 0.396744
vt 0.412363 0.396736
vt 0.412527 0.411493
vt 0.411617 0.384638
vt 0.412200 0.381979
vt 0.412841 0.384625
vt 0.413109 0.396728
vt 0.413109 0.408834
vt 0.426005 0.259710
vt 0.424377 0.245270
vt 0.419857 0.059710
vt 0.421405 0.039028
vt 0.421485 0.045270
vt 0.422678 0.034298
vt 0.422931 0.036951
vt 0.422930 0.236951
vt 0.424452 0.362924
vt 0.424456 0.346355
vt 0.424475 0.378639
vt 0.423184 0.375295
vt 0.422935 0.363190
vt 0.423184 0.351085
vt 0.421416 0.000934
vt 0.421387 0.006744
vt 0.424446 0.200934
vt 0.422930 0.207435
vt 0.422931 0.007435
vt 0.422678 0.010088
vt 0.421410 0.022459
vt 0.422927 0.022193
vt 0.424446 0.384449
vt 0.421416 0.184449
vt 0.422931 0.177948
vt 0.422930 0.377948
vt 0.419857 0.125673
vt 0.421485 0.140113
vt 0.426005 0.325673
vt 0.424377 0.340113
vt 0.422930 0.348432
vt 0.422931 0.148432
s 0
usemtl Material
f 1/1/1 2/2/1 4/3/1 3/4/1
f 3/5/2 4/6/2 8/7/2 7/8/2
f 7/9/3 8/10/3 6/11/3 5/12/3
f 5/6/4 6/13/4 2/14/4 1/7/4
f 3/15/5 7/16/5 5/17/5 1/18/5
f 8/19/6 4/20/6 2/21/6 6/22/6
f 9/23/1 10/24/1 12/25/1 11/26/1
f 11/27/2 12/28/2 17/29/2 18/30/2
f 15/31/3 16/32/3 14/33/3 13/34/3
f 19/35/4 20/36/4 10/37/4 9/38/4
f 11/39/5 18/40/5 19/41/5 9/42/5
f 17/40/6 12/43/6 10/44/6 20/41/6
f 17/25/7 20/45/7 24/46/7 21/47/7
f 16/48/8 15/49/8 26/50/8 25/51/8
f 14/52/9 16/53/9 25/54/9 28/55/9
f 19/56/10 18/26/10 22/57/10 23/58/10
f 25/59/3 26/60/3 22/57/3 21/47/3
f 26/60/3 27/61/3 23/58/3 22/57/3
f 28/62/3 25/59/3 21/47/3 24/46/3
f 27/61/3 28/62/3 24/46/3 23/58/3
f 18/30/11 17/29/11 21/63/11 22/64/11
f 13/65/12 14/66/12 28/67/12 27/68/12
f 15/69/13 13/70/13 27/71/13 26/72/13
f 20/36/14 19/35/14 23/73/14 24/74/14
f 33/75/15 90/76/15 97/77/15 63/78/15
f 90/76/16 47/79/16 76/80/16 97/77/16
f 97/77/17 76/80/17 42/81/17 87/82/17
f 63/78/18 97/77/18 87/82/18 29/83/18
f 35/84/19 91/85/19 98/86/19 60/87/19
f 91/85/20 45/88/20 79/89/20 98/86/20
f 98/86/21 79/89/21 47/90/21 90/91/21
f 60/87/22 98/86/22 90/91/22 33/92/22
f 39/93/23 71/94/23 99/95/23 68/96/23
f 71/94/24 52/97/24 67/98/24 99/95/24
f 99/95/25 67/98/25 51/99/25 66/100/25
f 68/96/26 99/95/26 66/100/26 40/101/26
f 29/83/27 87/82/27 100/102/27 54/103/27
f 87/82/28 42/81/28 65/104/28 100/102/28
f 100/102/29 65/104/29 52/105/29 71/106/29
f 54/103/30 100/102/30 71/106/30 39/107/30
f 31/108/31 57/109/31 101/110/31 53/111/31
f 57/109/32 35/112/32 60/113/32 101/110/32
f 101/114/33 60/115/33 33/75/33 63/78/33
f 53/116/34 101/114/34 63/78/34 29/83/34
f 36/117/35 58/118/35 102/119/35 61/120/35
f 58/118/36 32/121/36 55/122/36 102/119/36
f 102/123/37 55/124/37 30/125/37 64/126/37
f 61/127/38 102/123/38 64/126/38 34/128/38
f 31/108/39 88/129/39 103/130/39 57/109/39
f 88/129/40 43/131/40 82/132/40 103/130/40
f 103/130/41 82/132/41 45/133/41 91/134/41
f 57/109/42 103/130/42 91/134/42 35/112/42
f 46/135/43 92/136/43 104/137/43 78/138/43
f 92/136/44 36/139/44 61/140/44 104/137/44
f 104/137/45 61/140/45 34/141/45 85/142/45
f 78/138/46 104/137/46 85/142/46 48/143/46
f 44/144/47 89/145/47 105/146/47 81/147/47
f 89/145/48 32/121/48 58/118/48 105/146/48
f 105/146/49 58/118/49 36/117/49 92/148/49
f 81/147/50 105/146/50 92/148/50 46/149/50
f 32/121/51 89/145/51 106/150/51 69/151/51
f 89/145/52 44/144/52 72/152/52 106/150/52
f 106/150/53 72/152/53 50/153/53 56/154/53
f 69/151/54 106/150/54 56/154/54 37/155/54
f 48/156/55 74/157/55 107/158/55 73/159/55
f 74/157/56 41/160/56 75/161/56 107/158/56
f 107/158/57 75/161/57 42/81/57 76/80/57
f 73/159/58 107/158/58 76/80/58 47/79/58
f 46/135/59 78/138/59 108/162/59 77/163/59
f 78/138/60 48/143/60 73/164/60 108/162/60
f 108/162/60 73/164/60 47/90/60 79/89/60
f 77/163/59 108/162/59 79/89/59 45/88/59
f 44/144/61 81/147/61 109/165/61 80/166/61
f 81/147/62 46/149/62 77/167/62 109/165/62
f 109/165/63 77/167/63 45/133/63 82/132/63
f 80/166/64 109/165/64 82/132/64 43/131/64
f 41/168/65 83/169/65 110/170/65 75/171/65
f 83/169/66 44/172/66 80/173/66 110/170/66
f 110/170/67 80/173/67 43/174/67 84/175/67
f 75/171/68 110/170/68 84/175/68 42/176/68
f 48/156/69 85/177/69 111/178/69 74/157/69
f 85/177/70 34/128/70 64/126/70 111/178/70
f 111/178/71 64/126/71 30/125/71 86/179/71
f 74/157/72 111/178/72 86/179/72 41/160/72
f 49/180/23 59/181/23 112/182/23 70/183/23
f 59/181/24 38/184/24 62/185/24 112/182/24
f 112/182/25 62/185/25 37/186/25 56/187/25
f 70/183/26 112/182/26 56/187/26 50/188/26
f 44/144/73 83/189/73 113/190/73 72/152/73
f 83/191/74 41/160/74 93/192/74 113/193/74
f 113/193/75 93/192/75 49/194/75 70/195/75
f 72/152/76 113/190/76 70/196/76 50/153/76
f 43/131/77 88/129/77 114/197/77 95/198/77
f 88/129/78 31/108/78 94/199/78 114/197/78
f 114/197/79 94/199/79 40/200/79 66/201/79
f 95/198/80 114/197/80 66/201/80 51/202/80
f 30/125/81 55/124/81 115/203/81 96/204/81
f 55/122/82 32/121/82 69/151/82 115/205/82
f 115/205/83 69/151/83 37/155/83 62/206/83
f 96/204/84 115/203/84 62/207/84 38/208/84
f 41/160/85 86/179/85 116/209/85 93/192/85
f 86/179/86 30/125/86 96/204/86 116/209/86
f 116/209/87 96/204/87 38/208/87 59/210/87
f 93/192/88 116/209/88 59/210/88 49/194/88
f 31/108/89 53/111/89 117/211/89 94/199/89
f 53/116/90 29/83/90 54/103/90 117/212/90
f 117/212/91 54/103/91 39/107/91 68/213/91
f 94/199/92 117/211/92 68/214/92 40/200/92
f 42/81/93 84/215/93 118/216/93 65/104/93
f 84/217/94 43/131/94 95/198/94 118/218/94
f 118/218/95 95/198/95 51/202/95 67/219/95
f 65/104/96 118/216/96 67/220/96 52/105/96
f 119/56/1 120/45/1 122/221/1 121/222/1
f 121/223/2 122/224/2 127/225/2 128/226/2
f 125/34/3 126/33/3 124/227/3 123/228/3
f 129/229/4 130/230/4 120/231/4 119/232/4
f 121/233/5 128/234/5 129/235/5 119/236/5
f 127/237/6 122/238/6 120/239/6 130/240/6
f 127/221/7 130/241/7 134/242/7 131/243/7
f 126/244/8 125/245/8 136/246/8 135/247/8
f 124/70/9 126/69/9 135/248/9 138/249/9
f 129/250/10 128/222/10 132/251/10 133/252/10
f 135/253/3 136/254/3 132/251/3 131/243/3
f 136/254/3 137/255/3 133/252/3 132/251/3
f 138/256/3 135/253/3 131/243/3 134/242/3
f 137/255/3 138/256/3 134/242/3 133/252/3
f 128/226/11 127/225/11 131/257/11 132/258/11
f 123/259/12 124/260/12 138/261/12 137/262/12
f 125/263/13 123/264/13 137/265/13 136/266/13
f 130/230/14 129/229/14 133/267/14 134/268/14
f 143/269/15 200/270/15 207/271/15 173/272/15
f 200/270/16 157/273/16 186/274/16 207/271/16
f 207/271/17 186/274/17 152/275/17 197/276/17
f 173/272/18 207/271/18 197/276/18 139/277/18
f 145/278/19 201/279/19 208/280/19 170/281/19
f 201/279/20 155/282/20 189/283/20 208/280/20
f 208/280/21 189/283/21 157/284/21 200/285/21
f 170/281/22 208/280/22 200/285/22 143/286/22
f 149/287/23 181/288/23 209/289/23 178/290/23
f 181/288/24 162/291/24 177/292/24 209/289/24
f 209/289/25 177/292/25 161/293/25 176/294/25
f 178/290/26 209/289/26 176/294/26 150/295/26
f 139/277/27 197/276/27 210/296/27 164/297/27
f 197/276/28 152/275/28 175/298/28 210/296/28
f 210/296/29 175/298/29 162/299/29 181/300/29
f 164/297/30 210/296/30 181/300/30 149/301/30
f 141/302/31 167/303/31 211/304/31 163/305/31
f 167/303/32 145/306/32 170/307/32 211/304/32
f 211/308/33 170/309/33 143/269/33 173/272/33
f 163/310/34 211/308/34 173/272/34 139/277/34
f 146/311/35 168/312/35 212/313/35 171/314/35
f 168/312/36 142/315/36 165/316/36 212/313/36
f 212/317/37 165/318/37 140/319/37 174/320/37
f 171/321/38 212/317/38 174/320/38 144/322/38
f 141/302/39 198/323/39 213/324/39 167/303/39
f 198/323/40 153/325/40 192/326/40 213/324/40
f 213/324/41 192/326/41 155/327/41 201/328/41
f 167/303/42 213/324/42 201/328/42 145/306/42
f 156/329/43 202/330/43 214/331/43 188/332/43
f 202/330/44 146/333/44 171/334/44 214/331/44
f 214/331/45 171/334/45 144/335/45 195/336/45
f 188/332/46 214/331/46 195/336/46 158/337/46
f 154/338/47 199/339/47 215/340/47 191/341/47
f 199/339/48 142/315/48 168/312/48 215/340/48
f 215/340/49 168/312/49 146/311/49 202/342/49
f 191/341/50 215/340/50 202/342/50 156/343/50
f 142/315/51 199/339/51 216/344/51 179/345/51
f 199/339/52 154/338/52 182/346/52 216/344/52
f 216/344/53 182/346/53 160/347/53 166/348/53
f 179/345/54 216/344/54 166/348/54 147/349/54
f 158/350/55 184/351/55 217/352/55 183/353/55
f 184/351/56 151/354/56 185/355/56 217/352/56
f 217/352/57 185/355/57 152/275/57 186/274/57
f 183/353/58 217/352/58 186/274/58 157/273/58
f 156/329/59 188/332/59 218/356/59 187/357/59
f 188/332/60 158/337/60 183/358/60 218/356/60
f 218/356/60 183/358/60 157/284/60 189/283/60
f 187/357/59 218/356/59 189/283/59 155/282/59
f 154/338/61 191/341/61 219/359/61 190/360/61
f 191/341/62 156/343/62 187/361/62 219/359/62
f 219/359/63 187/361/63 155/327/63 192/326/63
f 190/360/64 219/359/64 192/326/64 153/325/64
f 151/362/65 193/363/65 220/364/65 185/365/65
f 193/363/66 154/366/66 190/367/66 220/364/66
f 220/364/67 190/367/67 153/368/67 194/369/67
f 185/365/68 220/364/68 194/369/68 152/370/68
f 158/350/69 195/371/69 221/372/69 184/351/69
f 195/371/70 144/322/70 174/320/70 221/372/70
f 221/372/71 174/320/71 140/319/71 196/373/71
f 184/351/72 221/372/72 196/373/72 151/354/72
f 159/374/23 169/375/23 222/376/23 180/377/23
f 169/375/24 148/378/24 172/379/24 222/376/24
f 222/376/25 172/379/25 147/380/25 166/381/25
f 180/377/26 222/376/26 166/381/26 160/382/26
f 154/338/73 193/383/73 223/384/73 182/346/73
f 193/385/74 151/354/74 203/386/74 223/387/74
f 223/387/75 203/386/75 159/388/75 180/389/75
f 182/346/76 223/384/76 180/390/76 160/347/76
f 153/325/77 198/323/77 224/391/77 205/392/77
f 198/323/78 141/302/78 204/393/78 224/391/78
f 224/391/79 204/393/79 150/394/79 176/395/79
f 205/392/80 224/391/80 176/395/80 161/396/80
f 140/319/81 165/318/81 225/397/81 206/398/81
f 165/316/82 142/315/82 179/345/82 225/399/82
f 225/399/83 179/345/83 147/349/83 172/400/83
f 206/398/84 225/397/84 172/401/84 148/402/84
f 151/354/85 196/373/85 226/403/85 203/386/85
f 196/373/86 140/319/86 206/398/86 226/403/86
f 226/403/87 206/398/87 148/402/87 169/404/87
f 203/386/88 226/403/88 169/404/88 159/388/88
f 141/302/89 163/305/89 227/405/89 204/393/89
f 163/310/90 139/277/90 164/297/90 227/406/90
f 227/406/91 164/297/91 149/301/91 178/407/91
f 204/393/92 227/405/92 178/408/92 150/394/92
f 152/275/93 194/409/93 228/410/93 175/298/93
f 194/411/94 153/325/94 205/392/94 228/412/94
f 228/412/95 205/392/95 161/396/95 177/413/95
f 175/298/96 228/410/96 177/414/96 162/299/96
