# Blender 4.2.10 LTS
# www.blender.org
mtllib magic.mtl
o Cube.002
v -2.378775 -0.163986 3.778195
v -2.378775 0.163986 3.778195
v -2.280644 -0.163986 3.315248
v -2.280644 0.163986 3.315248
v 1.137488 -0.163986 4.523536
v 1.245737 0.163986 4.521158
v 1.235619 -0.163986 4.060589
v 1.127371 0.163986 4.062967
v 3.709306 0.163986 3.289917
v 3.709306 -0.163986 3.289917
v 4.165158 -0.163986 3.416991
v 4.165158 0.163986 3.416991
v 4.609856 0.163986 -0.754999
v 4.609856 -0.163986 -0.754999
v 5.065708 -0.163986 -0.627926
v 5.065708 0.163986 -0.627926
v 2.700070 0.163986 -1.983566
v 2.700070 -0.163986 -1.983566
v 2.829717 -0.163986 -2.438694
v 2.829717 0.163986 -2.438694
v -0.901503 0.163986 -2.695773
v -0.901503 -0.163986 -2.695773
v -0.771856 -0.163986 -3.150900
v -0.771856 0.163986 -3.150900
v -3.192922 0.163986 -1.813531
v -3.192922 -0.163986 -1.813531
v -3.629178 -0.163986 -1.996919
v -3.629178 0.163986 -1.996919
v -4.084829 0.163986 1.392251
v -4.084829 -0.163986 1.392251
v -4.512137 -0.163986 1.595615
v -4.512137 0.163986 1.595615
v -2.319085 0.163986 3.317350
v -2.319085 -0.163986 3.317350
v -2.426791 -0.163986 3.778164
v -2.426791 0.163986 3.778164
v -1.281562 -0.116937 3.157265
v -1.281562 0.116937 3.157265
v -1.281562 -0.116937 2.819808
v -1.281562 0.116937 2.819808
v 1.281562 -0.116937 3.157265
v 1.356724 0.116937 3.139600
v 1.281562 -0.116937 2.819808
v 1.206401 0.116937 2.837473
v 2.893226 0.116937 1.916414
v 2.893226 -0.116937 1.916414
v 3.230014 -0.116937 1.937654
v 3.230014 0.116937 1.937654
v 2.923327 0.116937 -1.038444
v 2.923327 -0.116937 -1.038444
v 3.260116 -0.116937 -1.017205
v 3.260116 0.116937 -1.017205
v 1.409412 0.116937 -1.613085
v 1.409412 -0.116937 -1.613085
v 1.432554 -0.116937 -1.949749
v 1.432554 0.116937 -1.949749
v -1.208323 0.116937 -1.577357
v -1.208323 -0.116937 -1.577357
v -1.185182 -0.116937 -1.914020
v -1.185182 0.116937 -1.914020
v -2.676342 0.116937 -0.623084
v -2.676342 -0.116937 -0.623084
v -3.007786 -0.116937 -0.686507
v -3.007786 0.116937 -0.686507
v -2.824495 0.116937 1.745123
v -2.824495 -0.116937 1.745123
v -3.092510 -0.116937 1.950174
v -3.092510 0.116937 1.950174
v -1.308068 0.116937 2.826958
v -1.308068 -0.116937 2.826958
v -1.315063 -0.116937 3.164343
v -1.315063 0.116937 3.164343
v -1.293095 -0.063544 -0.088316
v -1.293095 0.063544 -0.088316
v -1.109843 -0.063544 -0.095070
v -1.109843 0.063544 -0.095070
v -1.241792 -0.063544 1.303549
v -1.230694 0.063544 1.344011
v -1.058540 -0.063544 1.296795
v -1.069638 0.063544 1.256333
v -0.535708 0.063544 2.153901
v -0.535708 -0.063544 2.153901
v -0.540501 -0.063544 2.337214
v -0.540501 0.063544 2.337214
v 1.069484 0.063544 2.111104
v 1.069484 -0.063544 2.111104
v 1.064691 -0.063544 2.294417
v 1.064691 0.063544 2.294417
v 1.351231 0.063544 1.277494
v 1.351231 -0.063544 1.277494
v 1.534514 -0.063544 1.283322
v 1.534514 0.063544 1.283322
v 1.279433 0.063544 -0.143312
v 1.279433 -0.063544 -0.143312
v 1.462717 -0.063544 -0.137484
v 1.462717 0.063544 -0.137484
v 0.731848 0.063544 -0.921396
v 0.731848 -0.063544 -0.921396
v 0.759654 -0.063544 -1.102650
v 0.759654 0.063544 -1.102650
v -0.557136 0.063544 -0.954447
v -0.557136 -0.063544 -0.954447
v -0.673850 -0.063544 -1.095883
v -0.673850 0.063544 -1.095883
v -1.114257 0.063544 -0.109320
v -1.114257 -0.063544 -0.109320
v -1.297609 -0.063544 -0.106366
v -1.297609 0.063544 -0.106366
vn -0.9783 -0.0000 -0.2074
vn 0.2106 0.0383 -0.9768
vn 0.3479 -0.0540 0.9360
vn -0.2039 0.0372 0.9783
vn -0.0000 -1.0000 -0.0000
vn -0.0000 1.0000 -0.0000
vn -0.2917 -0.0447 -0.9555
vn -0.5410 -0.0000 0.8410
vn -0.9761 -0.0000 -0.2173
vn 0.9761 -0.0000 0.2173
vn 0.1940 -0.0000 -0.9810
vn 0.6293 -0.0000 -0.7771
vn -0.1940 -0.0000 0.9810
vn -0.9711 -0.0000 -0.2387
vn 0.3593 -0.0000 0.9332
vn -0.3745 -0.0000 -0.9272
vn 0.9634 -0.0000 0.2680
vn 0.9738 -0.0000 0.2276
vn 0.7370 -0.0000 -0.6759
vn -0.7230 -0.0000 0.6908
vn -1.0000 -0.0000 -0.0000
vn 0.0035 0.0383 -0.9993
vn 0.5344 -0.0540 0.8435
vn 0.0034 0.0372 0.9993
vn -0.4835 -0.0447 -0.8742
vn -0.3549 -0.0000 0.9349
vn -0.9999 -0.0000 -0.0102
vn 0.9999 -0.0000 0.0102
vn -0.0136 -0.0000 -0.9999
vn 0.4545 -0.0000 -0.8907
vn 0.0136 -0.0000 0.9999
vn -0.9995 -0.0000 -0.0321
vn 0.5450 -0.0000 0.8384
vn -0.5586 -0.0000 -0.8294
vn 0.9980 -0.0000 0.0624
vn 0.9998 -0.0000 0.0207
vn 0.5808 -0.0000 -0.8141
vn -0.5641 -0.0000 0.8257
vn -0.0368 -0.0000 -0.9993
vn 0.9987 0.0383 -0.0333
vn -0.8232 -0.0540 0.5652
vn -0.9985 0.0372 0.0402
vn 0.8558 -0.0447 -0.5154
vn -0.9474 -0.0000 -0.3202
vn -0.0267 -0.0000 -0.9996
vn 0.0267 -0.0000 0.9996
vn 0.9987 -0.0000 -0.0505
vn 0.9069 -0.0000 0.4214
vn -0.9987 -0.0000 0.0505
vn -0.0047 -0.0000 -1.0000
vn -0.8178 -0.0000 0.5755
vn 0.8083 -0.0000 -0.5888
vn -0.0256 -0.0000 0.9997
vn 0.0161 -0.0000 0.9999
vn 0.8349 -0.0000 0.5504
vn -0.8460 -0.0000 -0.5333
vt 0.375000 0.000000
vt 0.625000 0.000000
vt 0.625000 0.250000
vt 0.375000 0.250000
vt 0.625000 0.500000
vt 0.375000 0.500000
vt 0.625000 0.750000
vt 0.375000 0.750000
vt 0.625000 1.000000
vt 0.375000 1.000000
vt 0.125000 0.500000
vt 0.125000 0.750000
vt 0.875000 0.500000
vt 0.875000 0.750000
s 0
usemtl Material.001
f 1/1/1 2/2/1 4/3/1 3/4/1
f 3/4/2 4/3/2 8/5/2 7/6/2
f 6/7/3 5/8/3 11/8/3 12/7/3
f 5/8/4 6/7/4 2/9/4 1/10/4
f 3/11/5 7/6/5 5/8/5 1/12/5
f 8/5/6 4/13/6 2/14/6 6/7/6
f 9/5/6 12/7/6 16/7/6 13/5/6
f 5/8/5 7/6/5 10/6/5 11/8/5
f 8/5/6 6/7/6 12/7/6 9/5/6
f 7/6/7 8/5/7 9/5/7 10/6/7
f 14/6/8 13/5/8 17/5/8 18/6/8
f 10/6/9 9/5/9 13/5/9 14/6/9
f 12/7/10 11/8/10 15/8/10 16/7/10
f 11/8/5 10/6/5 14/6/5 15/8/5
f 20/7/11 19/8/11 23/8/11 24/7/11
f 16/7/12 15/8/12 19/8/12 20/7/12
f 15/8/5 14/6/5 18/6/5 19/8/5
f 13/5/6 16/7/6 20/7/6 17/5/6
f 21/5/6 24/7/6 28/7/6 25/5/6
f 19/8/5 18/6/5 22/6/5 23/8/5
f 17/5/6 20/7/6 24/7/6 21/5/6
f 18/6/13 17/5/13 21/5/13 22/6/13
f 28/7/14 27/8/14 31/8/14 32/7/14
f 22/6/15 21/5/15 25/5/15 26/6/15
f 24/7/16 23/8/16 27/8/16 28/7/16
f 23/8/5 22/6/5 26/6/5 27/8/5
f 31/8/5 30/6/5 34/6/5 35/8/5
f 27/8/5 26/6/5 30/6/5 31/8/5
f 25/5/6 28/7/6 32/7/6 29/5/6
f 26/6/17 25/5/17 29/5/17 30/6/17
f 34/6/18 33/5/18 36/7/18 35/8/18
f 29/5/6 32/7/6 36/7/6 33/5/6
f 30/6/19 29/5/19 33/5/19 34/6/19
f 32/7/20 31/8/20 35/8/20 36/7/20
f 37/1/21 38/2/21 40/3/21 39/4/21
f 39/4/22 40/3/22 44/5/22 43/6/22
f 42/7/23 41/8/23 47/8/23 48/7/23
f 41/8/24 42/7/24 38/9/24 37/10/24
f 39/11/5 43/6/5 41/8/5 37/12/5
f 44/5/6 40/13/6 38/14/6 42/7/6
f 45/5/6 48/7/6 52/7/6 49/5/6
f 41/8/5 43/6/5 46/6/5 47/8/5
f 44/5/6 42/7/6 48/7/6 45/5/6
f 43/6/25 44/5/25 45/5/25 46/6/25
f 50/6/26 49/5/26 53/5/26 54/6/26
f 46/6/27 45/5/27 49/5/27 50/6/27
f 48/7/28 47/8/28 51/8/28 52/7/28
f 47/8/5 46/6/5 50/6/5 51/8/5
f 56/7/29 55/8/29 59/8/29 60/7/29
f 52/7/30 51/8/30 55/8/30 56/7/30
f 51/8/5 50/6/5 54/6/5 55/8/5
f 49/5/6 52/7/6 56/7/6 53/5/6
f 57/5/6 60/7/6 64/7/6 61/5/6
f 55/8/5 54/6/5 58/6/5 59/8/5
f 53/5/6 56/7/6 60/7/6 57/5/6
f 54/6/31 53/5/31 57/5/31 58/6/31
f 64/7/32 63/8/32 67/8/32 68/7/32
f 58/6/33 57/5/33 61/5/33 62/6/33
f 60/7/34 59/8/34 63/8/34 64/7/34
f 59/8/5 58/6/5 62/6/5 63/8/5
f 67/8/5 66/6/5 70/6/5 71/8/5
f 63/8/5 62/6/5 66/6/5 67/8/5
f 61/5/6 64/7/6 68/7/6 65/5/6
f 62/6/35 61/5/35 65/5/35 66/6/35
f 70/6/36 69/5/36 72/7/36 71/8/36
f 65/5/6 68/7/6 72/7/6 69/5/6
f 66/6/37 65/5/37 69/5/37 70/6/37
f 68/7/38 67/8/38 71/8/38 72/7/38
f 73/1/39 74/2/39 76/3/39 75/4/39
f 75/4/40 76/3/40 80/5/40 79/6/40
f 78/7/41 77/8/41 83/8/41 84/7/41
f 77/8/42 78/7/42 74/9/42 73/10/42
f 75/11/5 79/6/5 77/8/5 73/12/5
f 80/5/6 76/13/6 74/14/6 78/7/6
f 81/5/6 84/7/6 88/7/6 85/5/6
f 77/8/5 79/6/5 82/6/5 83/8/5
f 80/5/6 78/7/6 84/7/6 81/5/6
f 79/6/43 80/5/43 81/5/43 82/6/43
f 86/6/44 85/5/44 89/5/44 90/6/44
f 82/6/45 81/5/45 85/5/45 86/6/45
f 84/7/46 83/8/46 87/8/46 88/7/46
f 83/8/5 82/6/5 86/6/5 87/8/5
f 92/7/47 91/8/47 95/8/47 96/7/47
f 88/7/48 87/8/48 91/8/48 92/7/48
f 87/8/5 86/6/5 90/6/5 91/8/5
f 85/5/6 88/7/6 92/7/6 89/5/6
f 93/5/6 96/7/6 100/7/6 97/5/6
f 91/8/5 90/6/5 94/6/5 95/8/5
f 89/5/6 92/7/6 96/7/6 93/5/6
f 90/6/49 89/5/49 93/5/49 94/6/49
f 100/7/50 99/8/50 103/8/50 104/7/50
f 94/6/51 93/5/51 97/5/51 98/6/51
f 96/7/52 95/8/52 99/8/52 100/7/52
f 95/8/5 94/6/5 98/6/5 99/8/5
f 103/8/5 102/6/5 106/6/5 107/8/5
f 99/8/5 98/6/5 102/6/5 103/8/5
f 97/5/6 100/7/6 104/7/6 101/5/6
f 98/6/53 97/5/53 101/5/53 102/6/53
f 106/6/54 105/5/54 108/7/54 107/8/54
f 101/5/6 104/7/6 108/7/6 105/5/6
f 102/6/55 101/5/55 105/5/55 106/6/55
f 104/7/56 103/8/56 107/8/56 108/7/56
