# Blender 4.2.10 LTS
# www.blender.org
mtllib sofa.mtl
o Cube
v 1.000000 -0.003821 -2.036720
v 1.000000 -0.003821 2.036720
v -1.157511 1.673280 -2.036720
v -1.000000 -0.003821 -2.036720
v -1.157511 1.673280 2.036720
v -1.000000 -0.003821 2.036720
v -0.457262 -0.003821 -2.036720
v -0.614774 1.673280 2.036720
v -0.457262 -0.003821 2.036720
v -0.614774 1.673280 -2.036720
v 1.000000 0.538917 -2.036720
v -1.000000 0.538917 2.036720
v 1.000000 0.538917 2.036720
v -1.000000 0.538917 -2.036720
v -0.457262 0.538917 -2.036720
v -0.457262 0.538917 2.036720
v 1.000000 0.538917 -2.241485
v 1.000000 -0.003821 -2.241485
v -0.457262 -0.003821 -2.241485
v -0.457262 0.538917 -2.241485
v -0.551769 1.216216 -2.036720
v 1.000000 1.216216 -2.036720
v -0.551769 1.216216 -2.241485
v 1.000000 1.216216 -2.241485
v -0.994805 0.501594 -2.036720
v -0.994805 -0.041143 -2.036720
v -0.994805 0.501594 -2.241485
v -0.994805 -0.041143 -2.241485
v -1.089312 1.178894 -2.036720
v -1.089312 1.178894 -2.241485
v -0.585790 1.706204 -2.036720
v -0.585790 1.706204 -2.241485
v -1.123332 1.668882 -2.036720
v -1.123332 1.668882 -2.241485
v 1.000000 0.538917 2.209983
v 1.000000 -0.003821 2.209983
v -0.457262 -0.003821 2.209983
v -1.000000 -0.003821 2.209983
v -0.457262 0.538917 2.209983
v -1.000000 0.538917 2.209983
v -0.552213 1.208341 2.036720
v -0.552213 1.208341 2.209983
v 1.000000 1.208341 2.036720
v 1.000000 1.208341 2.209983
v -0.555707 1.214904 2.036720
v -0.555707 1.214904 2.209983
v -1.098445 1.214904 2.036720
v -1.098445 1.214904 2.209983
v -0.608211 1.694001 2.036720
v -0.608211 1.694001 2.209983
v -1.150949 1.694001 2.036720
v -1.150949 1.694001 2.209983
vn -0.0000 1.0000 -0.0000
vn -0.0000 -0.0000 1.0000
vn -0.9905 -0.1375 -0.0000
vn -0.0000 -1.0000 -0.0000
vn -0.0000 -0.0000 -1.0000
vn 0.9905 0.1375 -0.0000
vn 1.0000 -0.0000 -0.0000
vn -1.0000 -0.0000 -0.0000
vn -0.9904 -0.1382 -0.0000
vn 0.0693 -0.9976 -0.0000
vn -0.0693 0.9976 -0.0000
vn 0.9976 0.0693 -0.0000
vn -0.9976 -0.0693 -0.0000
vn -0.9896 -0.1441 -0.0000
vn -0.9901 -0.1404 -0.0000
vn 0.9896 0.1441 -0.0000
vn 0.9940 0.1089 -0.0000
vn -0.9940 -0.1089 -0.0000
vt 0.846500 0.348544
vt 0.935848 0.348544
vt 0.935848 0.667489
vt 0.846500 0.667489
vt 0.000000 0.886100
vt 0.000000 0.703465
vt 0.088504 0.691561
vt 0.088504 0.874196
vt 0.757449 0.667489
vt 0.569194 0.667489
vt 0.569194 0.348544
vt 0.757449 0.348544
vt 0.239900 0.332511
vt 0.000000 0.332511
vt 0.000000 0.013566
vt 0.239900 0.013566
vt 0.854855 0.849945
vt 0.846500 0.667489
vt 0.935462 0.675582
vt 0.943817 0.858038
vt 0.329247 0.332511
vt 0.329247 0.013566
vt 0.805783 1.000000
vt 0.565884 1.000000
vt 0.565883 0.681055
vt 0.805783 0.681055
vt 0.812162 0.000000
vt 1.000000 0.000000
vt 1.000000 0.318945
vt 0.812162 0.318945
vt 0.239900 0.000000
vt 0.329247 0.000000
vt 0.846500 0.936117
vt 0.935462 0.944211
vt 0.239900 0.348544
vt 0.000000 0.348544
vt 0.529844 0.332511
vt 0.440607 0.332511
vt 0.440607 0.013566
vt 0.529844 0.013566
vt 0.389730 0.685747
vt 0.389730 0.918140
vt 0.279520 0.933282
vt 0.279520 0.685747
vt 0.561395 0.584536
vt 0.472058 0.582917
vt 0.476546 0.350564
vt 0.565883 0.352183
vt 0.529844 0.348544
vt 0.440607 0.348544
vt 0.618982 0.239316
vt 0.731299 0.246870
vt 0.731299 0.332800
vt 0.618982 0.325246
vt 0.360280 0.595965
vt 0.365059 0.348544
vt 0.805783 0.928503
vt 0.805783 0.681055
vt 0.822335 0.681055
vt 0.822335 0.928503
vt 0.329247 0.348544
vt 0.602365 0.007481
vt 0.713604 0.000000
vt 0.476546 0.668737
vt 0.364767 0.681785
vt 0.935847 0.622008
vt 0.935847 0.535749
vt 0.952399 0.535749
vt 0.952399 0.622008
vt 0.935847 0.426865
vt 0.952399 0.426865
vt 0.328463 0.332511
vt 0.328463 0.348544
vt 0.565883 0.670356
vt 0.284008 0.685747
vt 0.279520 0.599928
vt 0.529844 0.245311
vt 0.529844 0.331241
vt 0.507991 0.685747
vt 0.524542 0.685747
vt 0.524542 0.771534
vt 0.507991 0.771534
vt 0.812162 0.246870
vt 0.812162 0.332800
vt 0.541094 0.764062
vt 0.524542 0.764062
vt 0.524542 0.685747
vt 0.541094 0.685747
vt 0.935847 0.348544
vt 0.952399 0.348544
vt 0.279520 0.691561
vt 0.190167 0.691561
vt 0.190167 0.459168
vt 0.279520 0.459168
vt 0.190167 0.372616
vt 0.279520 0.372616
vt 0.000000 0.000000
vt 0.757449 0.681055
vt 0.645203 0.681055
vt 0.645203 0.667489
vt 0.846500 0.681055
vt 0.440607 0.000000
vt 0.529844 0.000000
vt 0.957823 0.667489
vt 0.957823 0.915008
vt 0.943817 0.915008
vt 0.943817 0.667489
vt 0.330542 0.013566
vt 0.330542 0.000000
vt 0.079956 0.691561
vt 0.079956 0.444026
vt 0.493985 0.793386
vt 0.479980 0.793386
vt 0.479980 0.685747
vt 0.493985 0.685747
vt 0.078876 0.356917
vt 0.078876 0.443469
vt 0.000000 0.435096
vt 0.000000 0.348544
vt 0.479980 0.882733
vt 0.391380 0.871518
vt 0.389730 0.762591
vt 0.478330 0.773806
vt 0.836340 0.866250
vt 0.822335 0.866250
vt 0.822335 0.757786
vt 0.836340 0.757786
vt 0.507991 0.685747
vt 0.507991 0.772293
vt 0.493985 0.772293
vt 0.493985 0.685747
vt 0.822335 0.681055
vt 0.836340 0.681055
vt 0.565883 0.681055
vt 0.565883 0.667489
vt 0.391380 0.685747
vt 0.479980 0.696963
s 0
usemtl Material
f 10/1/1 3/2/1 5/3/1 8/4/1
f 16/5/2 8/6/2 5/7/2 12/8/2
f 12/9/3 5/10/3 3/11/3 14/12/3
f 7/13/4 1/14/4 2/15/4 9/16/4
f 14/17/5 3/18/5 10/19/5 15/20/5
f 4/21/4 7/13/4 9/16/4 6/22/4
f 16/23/1 13/24/1 11/25/1 15/26/1
f 8/27/6 16/28/6 15/29/6 10/30/6
f 6/22/4 9/16/4 37/31/4 38/32/4
f 4/33/5 14/17/5 15/20/5 7/34/5
f 1/14/4 7/13/4 19/35/4 18/36/4
f 1/37/7 11/38/7 13/39/7 2/40/7
f 6/4/8 12/9/8 14/12/8 4/1/8
f 13/41/5 16/42/5 41/43/5 43/44/5
f 19/45/5 20/46/5 17/47/5 18/48/5
f 11/38/7 1/37/7 18/49/7 17/50/7
f 15/51/2 21/52/2 29/53/2 25/54/2
f 17/47/5 20/46/5 23/55/5 24/56/5
f 21/57/1 22/58/1 24/59/1 23/60/1
f 11/38/7 17/50/7 24/61/7 22/21/7
f 15/51/2 11/62/2 22/63/2 21/52/2
f 23/55/5 20/46/5 27/64/5 30/65/5
f 26/66/8 25/67/8 27/68/8 28/69/8
f 27/68/9 25/67/9 29/70/9 30/71/9
f 19/35/10 7/13/10 26/72/10 28/73/10
f 20/46/5 19/45/5 28/74/5 27/64/5
f 23/55/5 30/65/5 34/75/5 32/76/5
f 7/77/2 15/51/2 25/54/2 26/78/2
f 31/79/11 32/80/11 34/81/11 33/82/11
f 29/53/2 21/52/2 31/83/2 33/84/2
f 21/85/12 23/86/12 32/87/12 31/88/12
f 30/71/13 29/70/13 33/89/13 34/90/13
f 36/91/2 35/92/2 39/93/2 37/94/2
f 37/94/2 39/93/2 40/95/2 38/96/2
f 9/16/4 2/15/4 36/97/4 37/31/4
f 12/9/14 40/98/14 48/99/14 47/100/14
f 12/9/8 6/4/8 38/101/8 40/98/8
f 2/40/7 13/39/7 35/102/7 36/103/7
f 43/104/1 41/105/1 42/106/1 44/107/1
f 35/102/7 13/39/7 43/108/7 44/109/7
f 39/93/2 35/92/2 44/110/2 42/111/2
f 16/112/15 39/113/15 42/114/15 41/115/15
f 48/116/2 46/117/2 50/118/2 52/119/2
f 16/120/5 12/121/5 47/122/5 45/123/5
f 39/124/16 16/125/16 45/126/16 46/127/16
f 40/95/2 39/93/2 46/117/2 48/116/2
f 49/128/1 51/129/1 52/130/1 50/131/1
f 46/127/17 45/126/17 49/132/17 50/133/17
f 47/100/18 48/99/18 52/134/18 51/135/18
f 45/123/5 47/122/5 51/136/5 49/137/5
