# Blender 4.2.10 LTS
# www.blender.org
mtllib tv.mtl
o Cube
v -0.043814 -0.700000 1.000000
v -0.043814 0.700000 1.000000
v -0.043814 -0.700000 -1.000000
v -0.043814 0.700000 -1.000000
v 0.043814 -0.656470 0.937815
v 0.043814 0.656470 0.937815
v 0.043814 -0.656470 -0.937815
v 0.043814 0.656470 -0.937815
v 0.043814 0.700000 -1.000000
v 0.043814 -0.700000 -1.000000
v 0.043814 -0.700000 1.000000
v 0.043814 0.700000 1.000000
v 0.056474 0.700000 -1.000000
v 0.056474 -0.700000 -1.000000
v 0.056474 -0.700000 1.000000
v 0.056474 0.700000 1.000000
v 0.056474 0.656470 -0.937815
v 0.056474 -0.656470 -0.937815
v 0.056474 -0.656470 0.937815
v 0.056474 0.656470 0.937815
vn -1.0000 -0.0000 -0.0000
vn -0.0000 -0.0000 -1.0000
vn 1.0000 -0.0000 -0.0000
vn -0.0000 -0.0000 1.0000
vn -0.0000 -1.0000 -0.0000
vn -0.0000 1.0000 -0.0000
vt 0.375000 0.000000
vt 0.625000 0.000000
vt 0.625000 0.250000
vt 0.375000 0.250000
vt 0.625000 0.500000
vt 0.375000 0.500000
vt 0.382773 0.507773
vt 0.617227 0.507773
vt 0.617227 0.742227
vt 0.382773 0.742227
vt 0.375000 0.750000
vt 0.625000 0.750000
vt 0.625000 1.000000
vt 0.375000 1.000000
vt 0.125000 0.500000
vt 0.125000 0.750000
vt 0.875000 0.500000
vt 0.875000 0.750000
s 0
usemtl Material.001
f 1/1/1 2/2/1 4/3/1 3/4/1
f 3/4/2 4/3/2 9/5/2 10/6/2
f 7/7/3 8/8/3 6/9/3 5/10/3
f 11/11/4 12/12/4 2/13/4 1/14/4
f 3/15/5 10/6/5 11/11/5 1/16/5
f 9/5/6 4/17/6 2/18/6 12/12/6
f 10/6/2 9/5/2 13/5/2 14/6/2
f 9/5/6 12/12/6 16/12/6 13/5/6
f 8/8/4 7/7/4 18/7/4 17/8/4
f 6/9/5 8/8/5 17/8/5 20/9/5
f 17/8/3 18/7/3 14/6/3 13/5/3
f 18/7/3 19/10/3 15/11/3 14/6/3
f 20/9/3 17/8/3 13/5/3 16/12/3
f 19/10/3 20/9/3 16/12/3 15/11/3
f 5/10/2 6/9/2 20/9/2 19/10/2
f 7/7/6 5/10/6 19/10/6 18/7/6
f 12/12/4 11/11/4 15/11/4 16/12/4
f 11/11/5 10/6/5 14/6/5 15/11/5
