# Blender 4.2.10 LTS
# www.blender.org
mtllib house.mtl
o Cube
v -2.303009 -0.003340 2.303009
v -2.303009 4.602677 2.303009
v -2.303009 -0.003340 -2.303009
v -2.303009 4.602677 -2.303009
v 2.303009 -0.003340 2.303009
v 2.303009 4.602677 2.303009
v 2.303009 -0.003340 -2.303009
v 2.303009 4.602677 -2.303009
v -2.463426 -0.003340 2.463426
v -2.463426 -0.003340 -2.463426
v 2.463426 -0.003340 2.463426
v 2.463426 -0.003340 -2.463426
v -2.463426 -0.137225 2.463426
v -2.463426 -0.137225 -2.463426
v 2.463426 -0.137225 2.463426
v 2.463426 -0.137225 -2.463426
v -2.096203 4.815318 2.096203
v -2.096203 4.815318 -2.096204
v 2.096203 4.815318 -2.096204
v 2.096203 4.815318 2.096203
v -2.303009 4.815318 2.303009
v -2.303009 4.815318 -2.303010
v 2.303009 4.815318 -2.303010
v 2.303009 4.815318 2.303009
v -2.096203 4.541014 2.096203
v -2.096203 4.541014 -2.096203
v 2.096203 4.541014 -2.096203
v 2.096203 4.541014 2.096203
v -2.303009 2.520505 2.303009
v -2.303009 2.520505 -2.303009
v 2.303009 2.520505 -2.303009
v 2.303009 2.520505 2.303009
v 1.957165 -0.003340 -2.303009
v 1.957165 4.602677 -2.303009
v 1.957165 -0.003340 2.303009
v 1.957165 4.602677 2.303009
v 2.093492 -0.003340 -2.463426
v 2.093492 -0.003340 2.463426
v 2.093492 -0.137225 -2.463426
v 2.093492 -0.137225 2.463426
v 1.957165 4.815318 -2.303010
v 1.957165 4.815318 2.303009
v 1.781415 4.815318 -2.096204
v 1.781415 4.815318 2.096203
v 1.781415 4.541014 -2.096203
v 1.781415 4.541014 2.096203
v 1.957165 2.520505 2.303009
v 1.957165 2.520505 -2.303009
v 1.026238 -0.003340 -2.303009
v 1.026238 4.602677 2.303009
v 1.097721 -0.003340 -2.463426
v 1.097721 -0.137225 -2.463426
v 1.026238 4.815318 2.303009
v 0.934084 4.815318 2.096203
v 0.934084 4.541014 2.096203
v 1.026238 2.520505 2.303009
v 1.026238 4.602677 -2.303009
v 1.026238 -0.003340 2.303009
v 1.097721 -0.003340 2.463426
v 1.097721 -0.137225 2.463426
v 1.026238 4.815318 -2.303010
v 0.934084 4.815318 -2.096204
v 0.934084 4.541014 -2.096203
v 1.026238 2.520505 -2.303009
v -2.303009 1.921092 -2.303009
v 2.303009 1.921092 -2.303009
v 2.303009 1.921092 2.303009
v -2.303009 1.921092 2.303009
v 1.957165 1.921092 -2.303009
v 1.957165 1.921092 2.303009
v 1.026238 1.921092 -2.303009
v 1.026238 1.921092 2.303009
v 1.957165 1.921092 -2.219766
v 1.957165 -0.003340 -2.219766
v 1.026238 -0.003340 -2.219766
v 1.026238 1.921092 -2.219766
v 1.958045 -0.145531 -2.303009
v 0.958771 -0.148597 -2.303009
v 1.958045 1.935805 -2.303009
v 0.958771 1.932739 -2.303009
v 1.862422 0.094362 -2.339512
v 1.051440 0.094362 -2.339512
v 1.862422 1.845076 -2.339512
v 1.051440 1.845076 -2.339512
v -1.518362 1.442676 -2.342912
v -0.104007 1.442676 -2.342912
v -1.518362 0.494716 -2.347358
v -0.104007 0.494716 -2.347358
v -1.571150 0.441697 -2.298233
v -1.571150 1.495231 -2.293292
v -0.051219 1.495231 -2.293292
v -0.051219 0.441697 -2.298233
v -1.571150 0.441929 -2.347606
v -1.571150 1.495463 -2.342665
v -0.051219 1.495463 -2.342665
v -0.051219 0.441929 -2.347606
v -1.518362 0.494538 -2.309448
v -1.518362 1.442498 -2.305002
v -0.104007 1.442498 -2.305002
v -0.104007 0.494538 -2.309448
v -1.083589 3.120074 -2.346534
v 0.207315 3.120074 -2.346534
v -1.083589 3.857689 -2.347311
v 0.207315 3.857689 -2.347311
v -1.147361 3.921552 -2.334035
v -1.147361 3.056395 -2.333124
v 0.271086 3.056395 -2.333124
v 0.271086 3.921552 -2.334035
v -1.147361 3.921460 -2.347378
v -1.147361 3.056303 -2.346467
v 0.271086 3.056303 -2.346467
v 0.271086 3.921460 -2.347378
v -1.083589 3.857751 -2.287880
v -1.083589 3.120137 -2.287104
v 0.207315 3.120137 -2.287104
v 0.207315 3.857751 -2.287880
vn -1.0000 -0.0000 -0.0000
vn -0.0000 -0.0000 -1.0000
vn 1.0000 -0.0000 -0.0000
vn -0.0000 -0.0000 1.0000
vn -0.0000 1.0000 -0.0000
vn 0.0006 -0.3788 0.9255
vn -0.3665 -0.0000 -0.9304
vn -0.3566 -0.0000 0.9342
vn -0.0000 0.0047 -1.0000
vn -0.0000 -1.0000 -0.0047
vn -0.0000 -0.0047 1.0000
vn -0.0000 0.0011 1.0000
vn -0.0000 1.0000 -0.0069
vn -0.0000 -0.0011 -1.0000
vn -0.0000 1.0000 -0.0011
vn -0.0000 -1.0000 -0.0000
vn -0.0000 1.0000 0.0047
vn -0.0000 -1.0000 0.0010
vn -0.0000 -1.0000 0.0069
vt 0.717064 0.585938
vt 0.830078 0.585938
vt 0.830078 0.835938
vt 0.717064 0.835938
vt 0.748314 0.795682
vt 0.861328 0.795682
vt 0.861328 0.814453
vt 0.748314 0.814453
vt 0.808861 0.607422
vt 0.921875 0.607422
vt 0.921875 0.857422
vt 0.808861 0.857422
vt 0.738549 0.766565
vt 0.851562 0.766565
vt 0.851562 0.947266
vt 0.738549 0.947266
vt 0.141160 0.118395
vt 0.141160 0.065523
vt 0.375000 0.819299
vt 0.375000 1.000000
vt 0.375000 0.481229
vt 0.375000 0.500000
vt 0.375000 0.000000
vt 0.375000 0.250000
vt 0.375000 0.750000
vt 0.288976 0.603068
vt 0.288976 0.536487
vt 0.141160 0.211821
vt 0.141160 0.138672
vt 0.285691 0.668409
vt 0.285691 0.178551
vt 0.211024 0.208536
vt 0.211024 0.141956
vt 0.214309 0.138672
vt 0.214309 0.211821
vt 0.149443 0.141956
vt 0.144444 0.141956
vt 0.146652 0.138672
vt 0.144444 0.208536
vt 0.194770 0.606380
vt 0.359244 0.606380
vt 0.370469 0.617605
vt 0.189768 0.617605
vt 0.697348 0.710443
vt 0.861822 0.710443
vt 0.861822 0.937994
vt 0.697348 0.937994
vt 0.355556 0.536487
vt 0.355556 0.603068
vt 0.293975 0.603068
vt 0.307431 0.536487
vt 0.706015 0.766565
vt 0.706015 0.947266
vt 0.776327 0.607422
vt 0.776327 0.857422
vt 0.715780 0.795682
vt 0.715780 0.814453
vt 0.684530 0.585938
vt 0.684530 0.835938
vt 0.715780 0.745154
vt 0.748314 0.745154
vt 0.706015 0.697266
vt 0.738549 0.697266
vt 0.738549 0.716037
vt 0.706015 0.716037
vt 0.293975 0.536487
vt 0.307431 0.603068
vt 0.636225 0.511225
vt 0.723623 0.474115
vt 0.723623 0.701666
vt 0.636225 0.738775
vt 0.149443 0.208536
vt 0.146652 0.211821
vt 0.162900 0.141956
vt 0.161437 0.138672
vt 0.141160 0.232097
vt 0.141160 0.217313
vt 0.375000 0.430701
vt 0.375000 0.768771
vt 0.141160 0.133179
vt 0.851562 0.697266
vt 0.851562 0.716037
vt 0.861328 0.745154
vt 0.748314 0.564453
vt 0.861328 0.564453
vt 0.141160 0.284969
vt 0.715780 0.564453
vt 0.769613 0.474115
vt 0.769613 0.701666
vt 0.162900 0.208536
vt 0.161437 0.211821
vt 0.601562 0.716037
vt 0.601562 0.766565
vt 0.611328 0.564453
vt 0.611328 0.745154
vt 0.601562 0.697266
vt 0.580078 0.585938
vt 0.580078 0.835938
vt 0.611328 0.795682
vt 0.611328 0.814453
vt 0.671875 0.607422
vt 0.671875 0.857422
vt 0.601562 0.947266
vt 0.089844 0.694373
vt 0.194296 0.694373
vt 0.194296 0.744901
vt 0.089844 0.744901
vt 0.000000 0.000000
vt 1.000000 0.000000
vt 1.000000 1.000000
vt 0.000000 1.000000
vt 0.138501 0.527027
vt 0.138501 0.269848
vt 0.128574 0.255527
vt 0.128574 0.541348
vt 0.404468 0.269848
vt 0.414395 0.255527
vt 0.404468 0.527027
vt 0.414395 0.541348
vt 0.124893 0.283096
vt 0.398545 0.283096
vt 0.398545 0.556748
vt 0.124893 0.556748
vt 0.137196 0.536577
vt 0.137196 0.303267
vt 0.386242 0.303267
vt 0.386242 0.536577
vt 0.044959 0.073711
vt 0.044959 0.926289
vt 0.955042 0.926289
vt 0.955041 0.073711
vt 0.141160 0.330242
vt 0.141160 0.098892
vt 0.479452 0.430701
vt 0.479452 0.481229
s 0
usemtl Material.003
f 29/1/1 2/2/1 4/3/1 30/4/1
f 48/5/2 34/6/2 8/7/2 31/8/2
f 31/9/3 8/10/3 6/11/3 32/12/3
f 56/13/4 50/14/4 2/15/4 29/16/4
f 57/17/2 4/18/2 22/18/2 61/17/2
f 58/19/5 1/20/5 9/20/5 59/19/5
f 33/21/5 7/22/5 12/22/5 37/21/5
f 1/23/5 3/24/5 10/24/5 9/23/5
f 7/22/5 5/25/5 11/25/5 12/22/5
f 12/22/3 11/25/3 15/25/3 16/22/3
f 9/23/1 10/24/1 14/24/1 13/23/1
f 37/21/2 12/22/2 16/22/2 39/21/2
f 20/26/1 19/27/1 27/27/1 28/26/1
f 6/28/3 8/29/3 23/29/3 24/28/3
f 4/30/1 2/31/1 21/31/1 22/30/1
f 17/32/5 18/33/5 22/34/5 21/35/5
f 43/36/5 19/37/5 23/29/5 41/38/5
f 19/37/5 20/39/5 24/28/5 23/29/5
f 54/40/5 17/41/5 21/42/5 53/43/5
f 63/44/5 26/45/5 25/46/5 55/47/5
f 18/48/3 17/49/3 25/49/3 26/48/3
f 44/50/2 20/26/2 28/26/2 46/50/2
f 62/51/4 18/48/4 26/48/4 63/51/4
f 72/52/4 56/13/4 29/16/4 68/53/4
f 66/54/3 31/9/3 32/12/3 67/55/3
f 69/56/2 48/5/2 31/8/2 66/57/2
f 68/58/1 29/1/1 30/4/1 65/59/1
f 71/60/2 64/61/2 48/5/2 69/56/2
f 67/62/4 32/63/4 47/64/4 70/65/4
f 19/27/4 43/66/4 45/66/4 27/27/4
f 54/67/2 44/50/2 46/50/2 55/67/2
f 27/68/5 45/69/5 46/70/5 28/71/5
f 20/39/5 44/72/5 42/73/5 24/28/5
f 62/74/5 43/36/5 41/38/5 61/75/5
f 50/76/4 36/77/4 42/77/4 53/76/4
f 51/78/2 37/21/2 39/21/2 52/78/2
f 49/78/5 33/21/5 37/21/5 51/78/5
f 5/25/5 35/79/5 38/79/5 11/25/5
f 8/29/2 34/80/2 41/80/2 23/29/2
f 32/63/4 6/81/4 36/82/4 47/64/4
f 64/61/2 57/83/2 34/6/2 48/5/2
f 30/84/2 4/85/2 57/83/2 64/61/2
f 3/24/5 49/78/5 51/78/5 10/24/5
f 10/24/2 51/78/2 52/78/2 14/24/2
f 2/86/4 50/76/4 53/76/4 21/86/4
f 18/33/5 62/74/5 61/75/5 22/34/5
f 17/49/2 54/67/2 55/67/2 25/49/2
f 65/87/2 30/84/2 64/61/2 71/60/2
f 70/65/4 47/64/4 56/13/4 72/52/4
f 43/66/4 62/51/4 63/51/4 45/66/4
f 45/69/5 63/88/5 55/89/5 46/70/5
f 44/72/5 54/90/5 53/91/5 42/73/5
f 35/79/5 58/19/5 59/19/5 38/79/5
f 34/80/2 57/17/2 61/17/2 41/80/2
f 47/64/4 36/82/4 50/14/4 56/13/4
f 35/92/4 70/65/4 72/52/4 58/93/4
f 3/94/2 65/87/2 71/60/2 49/95/2
f 5/96/4 67/62/4 70/65/4 35/92/4
f 33/21/5 49/78/5 75/78/5 74/21/5
f 1/97/1 68/58/1 65/59/1 3/98/1
f 33/99/2 69/56/2 66/57/2 7/100/2
f 7/101/3 66/54/3 67/55/3 5/102/3
f 58/93/4 72/52/4 68/53/4 1/103/4
f 75/104/2 76/105/2 73/106/2 74/107/2
f 79/108/6 80/108/6 84/108/6 83/108/6
f 78/108/7 80/108/7 84/108/7 82/108/7
f 77/108/8 79/108/8 83/108/8 81/108/8
f 90/108/9 91/109/9 92/110/9 89/111/9
f 94/108/10 95/109/10 91/109/10 90/108/10
f 87/112/11 85/113/11 94/114/11 93/115/11
f 85/113/11 86/116/11 95/117/11 94/114/11
f 86/116/11 88/118/11 96/119/11 95/117/11
f 88/118/11 87/112/11 93/115/11 96/119/11
f 98/113/11 97/112/11 100/118/11 99/116/11
f 85/113/1 87/112/1 97/112/1 98/113/1
f 87/112/10 88/118/10 100/118/10 97/112/10
f 106/120/12 107/121/12 108/122/12 105/123/12
f 112/110/13 109/111/13 105/111/13 108/110/13
f 103/124/14 101/125/14 110/120/14 109/123/14
f 101/125/14 102/126/14 111/121/14 110/120/14
f 102/126/14 104/127/14 112/122/14 111/121/14
f 104/127/14 103/124/14 109/123/14 112/122/14
f 114/128/14 113/129/14 116/130/14 115/131/14
f 102/126/15 101/125/15 114/125/15 115/126/15
f 104/127/1 102/126/1 115/126/1 116/127/1
usemtl Material.001
f 59/19/4 9/20/4 13/20/4 60/19/4
f 36/132/4 6/133/4 24/133/4 42/132/4
f 11/25/4 38/79/4 40/79/4 15/25/4
f 38/79/4 59/19/4 60/19/4 40/79/4
f 49/78/3 71/134/3 76/134/3 75/78/3
f 71/134/16 69/135/16 73/135/16 76/134/16
f 69/135/1 33/21/1 74/21/1 73/135/1
f 88/118/3 86/116/3 99/116/3 100/118/3
f 96/110/17 93/111/17 89/111/17 92/110/17
f 95/109/1 96/110/1 92/110/1 91/109/1
f 93/111/3 94/108/3 90/108/3 89/111/3
f 86/116/17 85/113/17 98/113/17 99/116/17
f 103/124/18 104/127/18 116/127/18 113/124/18
f 111/109/3 112/110/3 108/110/3 107/109/3
f 109/111/1 110/108/1 106/108/1 105/111/1
f 110/108/19 111/109/19 107/109/19 106/108/19
f 101/125/3 103/124/3 113/124/3 114/125/3
