# Blender 4.2.10 LTS
# www.blender.org
mtllib wall.mtl
o Cube
v -1.000000 0.000000 3.000000
v -1.000000 2.000000 3.000000
v -1.000000 0.000000 -3.000000
v -1.000000 2.000000 -3.000000
v 1.000000 0.000000 3.000000
v 1.000000 2.000000 3.000000
v 1.000000 0.000000 -3.000000
v 1.000000 2.000000 -3.000000
v -1.072153 2.009221 3.116514
v -1.072153 2.009221 -3.116514
v 1.072153 2.009221 -3.116514
v 1.072153 2.009221 3.116514
v -1.072153 2.165051 3.116514
v -1.072153 2.165051 -3.116514
v 1.072153 2.165051 -3.116514
v 1.072153 2.165051 3.116514
vn -1.0000 -0.0000 -0.0000
vn -0.0000 -0.0000 -1.0000
vn 1.0000 -0.0000 -0.0000
vn -0.0000 -0.0000 1.0000
vn -0.0000 -1.0000 -0.0000
vn -0.0000 -0.9969 -0.0789
vn 0.1268 -0.9919 -0.0000
vn -0.1268 -0.9919 -0.0000
vn -0.0000 -0.9969 0.0789
vn -0.0000 1.0000 -0.0000
vt 0.646220 0.399087
vt 0.728779 0.399087
vt 0.728779 0.481646
vt 0.646220 0.481646
vt 0.512158 0.401585
vt 0.582842 0.401585
vt 0.582842 0.472268
vt 0.512158 0.472268
vt 0.456023 0.399211
vt 0.558977 0.399211
vt 0.558977 0.502165
vt 0.456023 0.502165
vt 0.816827 0.407309
vt 0.908173 0.407309
vt 0.908173 0.498655
vt 0.816827 0.498655
vt 0.384037 0.397317
vt 0.460963 0.397317
vt 0.460963 0.474243
vt 0.384037 0.474243
vt 0.625000 0.500000
vt 0.625000 0.250000
vt 0.282426 0.826795
vt 0.628968 0.829495
vt 0.625000 0.750000
vt 0.625000 0.000000
vt 0.625000 1.000000
vt 0.829547 0.737321
vt 0.908390 0.737321
vt 0.908390 0.816164
vt 0.829547 0.816164
vt 0.386675 0.762696
vt 0.931261 0.772440
vt 0.086528 0.805736
vt 0.631409 0.800502
vt 0.975511 0.832195
s 0
usemtl Material.001
f 1/1/1 2/2/1 4/3/1 3/4/1
f 3/5/2 4/6/2 8/7/2 7/8/2
f 7/9/3 8/10/3 6/11/3 5/12/3
f 5/13/4 6/14/4 2/15/4 1/16/4
f 3/17/5 7/18/5 5/19/5 1/20/5
f 8/21/6 4/22/6 10/22/6 11/21/6
f 12/23/3 11/24/3 15/24/3 16/23/3
f 6/25/7 8/21/7 11/21/7 12/25/7
f 4/22/8 2/26/8 9/26/8 10/22/8
f 2/27/9 6/25/9 12/25/9 9/27/9
f 15/28/10 14/29/10 13/30/10 16/31/10
f 10/32/1 9/33/1 13/33/1 14/32/1
f 9/34/4 12/35/4 16/35/4 13/34/4
f 11/24/2 10/36/2 14/36/2 15/24/2
o Cube.001
v -0.456333 2.141963 2.879580
v -0.456333 2.443185 2.879580
v -0.456333 2.141963 1.956253
v -0.456333 2.443185 1.956253
v 0.456333 2.141963 2.879580
v 0.456333 2.443185 2.879580
v 0.456333 2.141963 1.956253
v 0.456333 2.443185 1.956253
v -0.334533 2.465896 2.756356
v -0.334533 2.465896 2.079477
v 0.334533 2.465896 2.079477
v 0.334533 2.465896 2.756356
v -0.334533 3.620930 2.756356
v -0.216974 3.659730 2.637424
v -0.216974 3.659730 2.198409
v -0.334533 3.620930 2.079477
v 0.216974 3.659730 2.198409
v 0.334533 3.620930 2.079477
v 0.216974 3.659730 2.637424
v 0.334533 3.620930 2.756356
vn -1.0000 -0.0000 -0.0000
vn -0.0000 -0.0000 -1.0000
vn 1.0000 -0.0000 -0.0000
vn -0.0000 -0.0000 1.0000
vn -0.0000 -1.0000 -0.0000
vn -0.0000 0.9834 0.1813
vn -0.0000 0.9834 -0.1813
vn 0.1833 0.9831 -0.0000
vn -0.1833 0.9831 -0.0000
vn -0.0000 1.0000 -0.0000
vn -0.3134 0.9496 -0.0000
vn -0.0000 0.9507 -0.3101
vn 0.3134 0.9496 -0.0000
vn -0.0000 0.9507 0.3101
vt 0.570107 0.569529
vt 0.620382 0.569529
vt 0.620382 0.619804
vt 0.570107 0.619804
vt 0.426695 0.559830
vt 0.493935 0.559830
vt 0.493935 0.627070
vt 0.426695 0.627070
vt 0.540802 0.605642
vt 0.538568 0.590962
vt 0.608333 0.588728
vt 0.610567 0.603408
vt 0.678098 0.586493
vt 0.680332 0.601173
vt 0.543037 0.620322
vt 0.612802 0.618088
vt 0.468803 0.593197
vt 0.399038 0.595432
vt 0.550433 0.587990
vt 0.548984 0.578469
vt 0.594232 0.577020
vt 0.595682 0.586541
vt 0.668654 0.636553
vt 0.668654 0.564910
vt 0.536333 0.576282
vt 0.606098 0.574048
s 0
usemtl Material.003
f 17/37/11 18/38/11 20/39/11 19/40/11
f 19/41/12 20/42/12 24/43/12 23/44/12
f 23/45/13 24/46/13 22/47/13 21/48/13
f 21/48/14 22/47/14 18/49/14 17/50/14
f 19/51/15 23/45/15 21/48/15 17/52/15
f 18/49/16 22/47/16 28/47/16 25/49/16
f 24/46/17 20/53/17 26/53/17 27/46/17
f 22/47/18 24/46/18 27/46/18 28/47/18
f 20/53/19 18/54/19 25/54/19 26/53/19
f 25/49/14 28/47/14 36/47/14 29/49/14
f 33/55/20 31/56/20 30/57/20 35/58/20
f 27/59/12 26/60/12 32/60/12 34/59/12
f 28/47/13 27/46/13 34/46/13 36/47/13
f 30/57/21 31/56/21 32/61/21 29/62/21
f 31/56/22 33/55/22 34/46/22 32/61/22
f 33/55/23 35/58/23 36/47/23 34/46/23
f 35/58/24 30/57/24 29/62/24 36/47/24
f 26/53/11 25/54/11 29/54/11 32/53/11
o Cube.002
v -0.456333 2.141963 -1.942239
v -0.456333 2.443185 -1.942239
v -0.456333 2.141963 -2.865565
v -0.456333 2.443185 -2.865565
v 0.456333 2.141963 -1.942239
v 0.456333 2.443185 -1.942239
v 0.456333 2.141963 -2.865565
v 0.456333 2.443185 -2.865565
v -0.334533 2.465896 -2.065462
v -0.334533 2.465896 -2.742342
v 0.334533 2.465896 -2.742342
v 0.334533 2.465896 -2.065462
v -0.334533 3.619200 -2.065462
v -0.211729 3.659730 -2.189699
v -0.211729 3.659730 -2.618104
v -0.334533 3.619200 -2.742342
v 0.211729 3.659730 -2.618104
v 0.334533 3.619200 -2.742342
v 0.211729 3.659730 -2.189699
v 0.334533 3.619200 -2.065462
vn -1.0000 -0.0000 -0.0000
vn -0.0000 -0.0000 -1.0000
vn 1.0000 -0.0000 -0.0000
vn -0.0000 -0.0000 1.0000
vn -0.0000 -1.0000 -0.0000
vn -0.0000 0.9834 0.1813
vn -0.0000 0.9834 -0.1813
vn 0.1833 0.9831 -0.0000
vn -0.1833 0.9831 -0.0000
vn -0.0000 1.0000 -0.0000
vn -0.3134 0.9496 -0.0000
vn -0.0000 0.9507 -0.3101
vn 0.3134 0.9496 -0.0000
vn -0.0000 0.9507 0.3101
vt 0.767398 0.569051
vt 0.804066 0.569051
vt 0.804066 0.605719
vt 0.767398 0.605719
vt 0.615794 0.579028
vt 0.619856 0.606377
vt 0.489883 0.610439
vt 0.485821 0.583090
vt 0.357018 0.601012
vt 0.347750 0.600923
vt 0.348173 0.591655
vt 0.357441 0.591744
vt 0.603766 0.573498
vt 0.600321 0.591216
vt 0.516114 0.587771
vt 0.519559 0.570053
vt 0.125000 0.500000
vt 0.375000 0.500000
vt 0.375000 0.750000
vt 0.125000 0.750000
vt 0.348596 0.582388
vt 0.347327 0.610191
vt 0.346904 0.619459
vt 0.346127 0.599206
vt 0.340261 0.599149
vt 0.340529 0.593284
vt 0.346394 0.593340
vt 0.612964 0.606315
vt 0.666259 0.608496
vt 0.681082 0.612380
vt 0.596876 0.608935
vt 0.338482 0.600834
vt 0.615144 0.595101
s 0
usemtl Material.002
f 37/63/25 38/64/25 40/65/25 39/66/25
f 39/67/26 40/68/26 44/69/26 43/70/26
f 43/71/27 44/72/27 42/73/27 41/74/27
f 41/75/28 42/76/28 38/77/28 37/78/28
f 39/79/29 43/80/29 41/81/29 37/82/29
f 38/83/30 42/73/30 48/73/30 45/83/30
f 44/72/31 40/84/31 46/84/31 47/72/31
f 42/73/32 44/72/32 47/72/32 48/73/32
f 40/84/33 38/85/33 45/85/33 46/84/33
f 45/77/28 48/76/28 56/76/28 49/77/28
f 53/86/34 51/87/34 50/88/34 55/89/34
f 47/69/26 46/68/26 52/68/26 54/69/26
f 48/73/27 47/72/27 54/72/27 56/73/27
f 50/90/35 51/91/35 52/92/35 49/93/35
f 51/87/36 53/86/36 54/72/36 52/94/36
f 53/86/37 55/89/37 56/73/37 54/72/37
f 55/95/38 50/90/38 49/93/38 56/76/38
f 46/65/25 45/64/25 49/64/25 52/65/25
o Cube.003
v -0.140109 3.202994 2.459071
v -0.140109 3.445237 2.459071
v -0.140109 3.202994 -2.459071
v -0.140109 3.445237 -2.459071
v 0.140109 3.202994 2.459071
v 0.140109 3.445237 2.459071
v 0.140109 3.202994 -2.459071
v 0.140109 3.445237 -2.459071
vn -1.0000 -0.0000 -0.0000
vn -0.0000 -0.0000 -1.0000
vn 1.0000 -0.0000 -0.0000
vn -0.0000 -0.0000 1.0000
vn -0.0000 -1.0000 -0.0000
vn -0.0000 1.0000 -0.0000
vt 0.789729 0.594283
vt 0.787488 0.611286
vt 0.706679 0.609045
vt 0.708921 0.592042
vt 0.625872 0.606804
vt 0.628113 0.589801
vt 0.545064 0.604563
vt 0.547305 0.587559
vt 0.464256 0.602322
vt 0.466497 0.585318
vt 0.630354 0.572797
vt 0.549546 0.570556
vt 0.623630 0.623808
vt 0.542822 0.621567
s 0
usemtl Material.005
f 57/96/39 58/97/39 60/98/39 59/99/39
f 59/99/40 60/98/40 64/100/40 63/101/40
f 63/101/41 64/100/41 62/102/41 61/103/41
f 61/103/42 62/102/42 58/104/42 57/105/42
f 59/106/43 63/101/43 61/103/43 57/107/43
f 64/100/44 60/108/44 58/109/44 62/102/44
o Cube.004
v -0.140109 2.632248 2.459071
v -0.140109 2.874491 2.459071
v -0.140109 2.632248 -2.459071
v -0.140109 2.874491 -2.459071
v 0.140109 2.632248 2.459071
v 0.140109 2.874491 2.459071
v 0.140109 2.632248 -2.459071
v 0.140109 2.874491 -2.459071
vn -1.0000 -0.0000 -0.0000
vn -0.0000 -0.0000 -1.0000
vn 1.0000 -0.0000 -0.0000
vn -0.0000 -0.0000 1.0000
vn -0.0000 -1.0000 -0.0000
vn -0.0000 1.0000 -0.0000
vt 0.673954 0.607996
vt 0.670222 0.629024
vt 0.570288 0.625291
vt 0.574020 0.604263
vt 0.470354 0.621559
vt 0.474087 0.600531
vt 0.370421 0.617827
vt 0.374153 0.596799
vt 0.270487 0.614095
vt 0.274219 0.593067
vt 0.477819 0.579503
vt 0.377885 0.575771
vt 0.466622 0.642587
vt 0.366689 0.638855
s 0
usemtl Material.004
f 65/110/45 66/111/45 68/112/45 67/113/45
f 67/113/46 68/112/46 72/114/46 71/115/46
f 71/115/47 72/114/47 70/116/47 69/117/47
f 69/117/48 70/116/48 66/118/48 65/119/48
f 67/120/49 71/115/49 69/117/49 65/121/49
f 72/114/50 68/122/50 66/123/50 70/116/50
